<svg width="243" height="43" viewBox="0 0 243 43" fill="none" xmlns="http://www.w3.org/2000/svg">
<mask id="mask0" style="mask-type:alpha" maskUnits="userSpaceOnUse" x="2" y="0" width="27" height="25">
<path fill-rule="evenodd" clip-rule="evenodd" d="M2 0.292023H28.761V24.5082H2V0.292023Z" fill="white"/>
</mask>
<g mask="url(#mask0)">
<path fill-rule="evenodd" clip-rule="evenodd" d="M24.64 7.75364C24.0137 7.6284 23.3767 7.57068 22.7385 7.57992C22.1651 7.58857 21.5952 7.65091 21.0361 7.76692C21.2744 6.63105 21.2726 5.46056 21.0307 4.32585C21.6582 4.45052 22.2982 4.50592 22.9417 4.49842C23.514 4.48919 24.0832 4.4257 24.6412 4.30969C24.5307 4.83145 24.4707 5.36244 24.4617 5.89517C24.451 6.51966 24.5111 7.14242 24.64 7.75364ZM26.7532 0.292023C25.6896 1.20683 24.3199 1.72282 22.8949 1.74533C21.4706 1.78977 20.0896 1.2986 18.9986 0.424771L17.005 2.36463C18.8026 4.47244 18.8507 7.45351 17.1518 9.58095L9.13877 17.364L7.31986 15.5979L5.28288 17.5759L7.10178 19.3426L5.85571 20.5529L4.03739 18.7862L1.99982 20.7647L5.85689 24.5082L19.1454 11.5981C21.3559 9.87934 24.4352 9.89146 26.6332 11.6259L28.6268 9.68888C27.7456 8.63555 27.2731 7.3046 27.2957 5.9396C27.3189 4.57287 27.8394 3.25404 28.7611 2.22669L26.7532 0.292023Z" fill="#ECBC3E"/>
</g>
<path fill-rule="evenodd" clip-rule="evenodd" d="M21.7266 34.353C22.3983 34.4808 23.0815 34.5405 23.7659 34.531C24.3809 34.5222 24.9921 34.4577 25.5918 34.3394C25.3362 35.5029 25.3381 36.7031 25.5975 37.8654C24.9252 37.7382 24.2382 37.6814 23.548 37.6891C22.9343 37.6986 22.3238 37.7637 21.7254 37.8826C21.8439 37.3478 21.9083 36.803 21.9178 36.2577C21.9293 35.6171 21.8649 34.9794 21.7266 34.353ZM19.4605 42.0001C20.6012 41.0625 22.0701 40.5337 23.5983 40.5107C25.1259 40.4651 26.607 40.9685 27.777 41.8641L29.9151 39.876C27.9873 37.7158 27.9357 34.6606 29.7584 32.4803L38.3515 24.5037L40.3022 26.3137L42.4869 24.2866L40.5361 22.476L41.8725 21.2356L43.8226 23.0462L46.0079 21.0185L41.8712 17.1819L27.6196 30.4129C25.2489 32.1744 21.9465 32.162 19.5892 30.3845L17.4511 32.3691C18.3962 33.4486 18.9035 34.8132 18.8786 36.2115C18.8538 37.6128 18.2955 38.9644 17.3071 40.0173L19.4605 42.0001Z" fill="#ECBC3E"/>
<path fill-rule="evenodd" clip-rule="evenodd" d="M219.071 7.39584L216.547 9.91966L214.024 7.39584L216.547 4.87201L219.071 7.39584Z" fill="#171717"/>
<path fill-rule="evenodd" clip-rule="evenodd" d="M81.9369 12.1049C81.9369 9.85536 81.0928 8.98957 78.8974 8.98957H68.2607V21.4504H78.8974C81.0928 21.4504 81.9369 20.5852 81.9369 18.335V12.1049ZM79.0663 6.13394C83.0769 6.13394 84.9764 8.0814 84.9764 12.191V18.2487C84.9764 22.3589 83.0769 24.3057 79.0663 24.3057H68.2607V33.7374H73.1567V36.4199H61V33.7374H65.2213V8.81698H61V6.13394H79.0663Z" fill="#171717"/>
<path fill-rule="evenodd" clip-rule="evenodd" d="M96.6005 25.3361C94.338 25.6009 93.4332 26.2181 93.4332 29.568C93.4332 32.9173 94.338 33.9756 97.5053 33.9756C101.533 33.9756 103.523 32.961 106.193 31.1103V24.2785L96.6005 25.3361ZM113.071 36.4428H106.193V33.1814C104.156 35.5178 101.894 36.6191 97.4599 36.6191C92.3474 36.6191 90.3561 34.5038 90.3561 29.568C90.3561 24.6309 92.3474 23.2649 96.5103 22.8681C98.7273 22.6477 102.211 22.3835 106.193 22.2073V18.3727C106.193 16.1689 105.288 15.2869 103.026 15.2869H97.4151C95.1527 15.2869 94.2478 16.1689 94.2478 18.3727V19.0342H91.1707V18.6369C91.1707 14.5818 93.162 12.6428 97.3243 12.6428H103.116C107.279 12.6428 109.27 14.5818 109.27 18.6369V33.8865H113.071V36.4428Z" fill="#171717"/>
<path fill-rule="evenodd" clip-rule="evenodd" d="M134.027 18.657C131.42 16.8517 129.475 15.8628 125.322 15.8628C122.007 15.8628 121.123 16.7229 121.123 18.8721V31.0785C121.123 33.2276 122.007 34.0871 125.322 34.0871C129.475 34.0871 131.42 33.0982 134.027 31.2935V18.657ZM140.833 36.5801H134.027V33.3995C131.685 35.3336 129.829 36.752 125.277 36.752C120.062 36.752 118.118 34.861 118.118 30.9066V19.044C118.118 15.0896 120.062 13.1986 125.277 13.1986C129.829 13.1986 131.685 14.617 134.027 16.5511V7.69705H129.608V5.20413H137.032V34.0871H140.833V36.5801Z" fill="#171717"/>
<path fill-rule="evenodd" clip-rule="evenodd" d="M162.65 11.9317C162.65 9.68219 161.816 8.81639 159.647 8.81639H151.971C149.801 8.81639 148.967 9.68219 148.967 11.9317V15.0037C148.967 17.2966 149.926 18.0316 151.971 18.5079L160.064 20.4548C163.318 21.2332 166.071 22.099 166.071 26.6415V30.3622C166.071 34.473 164.194 36.4199 160.231 36.4199H151.72C147.757 36.4199 145.88 34.473 145.88 30.3622V27.2909H148.884V30.6221C148.884 32.8722 149.718 33.7368 151.887 33.7368H160.064C162.233 33.7368 163.067 32.8722 163.067 30.6221V26.9876C163.067 24.6946 162.108 23.9597 160.064 23.4833L151.971 21.5365C148.717 20.7575 145.964 19.8923 145.964 15.3492V12.191C145.964 8.08082 147.841 6.13394 151.804 6.13394H159.813C163.776 6.13394 165.654 8.08082 165.654 12.191V14.9603H162.65V11.9317Z" fill="#171717"/>
<path fill-rule="evenodd" clip-rule="evenodd" d="M188.327 18.3215C188.327 16.1704 187.45 15.3095 184.161 15.3095C180.04 15.3095 178.11 16.2999 175.523 18.1063V30.7543C178.11 32.5613 180.04 33.5505 184.161 33.5505C187.45 33.5505 188.327 32.6902 188.327 30.5391V18.3215ZM191.309 18.4935V30.367C191.309 34.325 189.38 36.2177 184.205 36.2177C179.689 36.2177 177.847 34.798 175.523 32.8622V40.4341H180.171V42.9287H168.595V40.4341H172.541V15.3094H168.595V12.8148H175.523V15.9989C177.847 14.0624 179.689 12.6428 184.205 12.6428C189.38 12.6428 191.309 14.5354 191.309 18.4935Z" fill="#171717"/>
<path fill-rule="evenodd" clip-rule="evenodd" d="M208.976 36.5H197.619V34.0937H201.808V8.62041H197.619V6.2141H204.973V34.0937H208.976V36.5Z" fill="#171717"/>
<path fill-rule="evenodd" clip-rule="evenodd" d="M224.119 36.5002H212.762V34.0438H216.951V15.2174H212.762V12.6428H220.116V34.0438H224.119V36.5002Z" fill="#171717"/>
<path fill-rule="evenodd" clip-rule="evenodd" d="M231.981 31.2995C231.981 33.4655 232.872 34.3318 235.102 34.3318H238V37.0176H235.012C230.911 37.0176 228.948 35.1118 228.948 31.1263V16.2243H225.381V13.6254H228.948V7.99362H231.981V13.6254H238V16.2243H231.981V31.2995Z" fill="#171717"/>
</svg>
