<svg width="209" height="97" viewBox="0 0 209 97" fill="none" xmlns="http://www.w3.org/2000/svg">
<mask id="mask0" style="mask-type:alpha" maskUnits="userSpaceOnUse" x="77" y="0" width="29" height="27">
<path fill-rule="evenodd" clip-rule="evenodd" d="M77.3572 0.319397H105.829V26.8039H77.3572V0.319397Z" fill="white"/>
</mask>
<g mask="url(#mask0)">
<path fill-rule="evenodd" clip-rule="evenodd" d="M101.445 8.47993C100.778 8.34295 100.101 8.27983 99.4216 8.28993C98.8115 8.2994 98.2052 8.36757 97.6103 8.49445C97.8638 7.25219 97.8619 5.97205 97.6046 4.73106C98.2722 4.8674 98.9531 4.928 99.6378 4.91979C100.247 4.9097 100.852 4.84026 101.446 4.71338C101.328 5.28401 101.264 5.86474 101.255 6.44737C101.244 7.13036 101.307 7.81146 101.445 8.47993ZM103.693 0.319397C102.561 1.3199 101.104 1.88421 99.5879 1.90883C98.0725 1.95744 96.6033 1.42026 95.4426 0.46458L93.3215 2.58614C95.2339 4.89139 95.2851 8.15169 93.4776 10.4784L84.9523 18.9905L83.0171 17.059L80.8499 19.2222L82.7851 21.1544L81.4593 22.4781L79.5248 20.5459L77.3569 22.7097L81.4606 26.8039L95.5987 12.6845C97.9505 10.8047 101.227 10.818 103.565 12.7148L105.686 10.5964C104.749 9.44445 104.246 7.98883 104.27 6.49598C104.295 5.00122 104.849 3.55887 105.829 2.43528L103.693 0.319397Z" fill="#ECBC3E"/>
</g>
<path fill-rule="evenodd" clip-rule="evenodd" d="M98.0315 36.8405C98.6985 36.9732 99.3769 37.0353 100.057 37.0255C100.667 37.0163 101.274 36.9493 101.87 36.8264C101.616 38.0352 101.618 39.2822 101.875 40.4898C101.208 40.3577 100.526 40.2987 99.8402 40.3067C99.2307 40.3165 98.6245 40.3841 98.0303 40.5077C98.148 39.9521 98.2119 39.3861 98.2214 38.8194C98.2328 38.1538 98.1689 37.4913 98.0315 36.8405ZM95.7812 44.7857C96.914 43.8116 98.3726 43.2622 99.8902 43.2382C101.407 43.1909 102.878 43.7139 104.04 44.6444L106.163 42.5788C104.248 40.3343 104.197 37.1601 106.007 34.8947L114.54 26.6072L116.477 28.4878L118.647 26.3817L116.709 24.5004L118.036 23.2117L119.973 25.0929L122.143 22.9861L118.035 19L103.883 32.7468C101.529 34.577 98.2499 34.5641 95.909 32.7173L93.7859 34.7792C94.7244 35.9008 95.2281 37.3186 95.2034 38.7715C95.1788 40.2274 94.6244 41.6317 93.6429 42.7257L95.7812 44.7857Z" fill="#ECBC3E"/>
<path fill-rule="evenodd" clip-rule="evenodd" d="M179.143 58.3571L176.429 61.0714L173.714 58.3571L176.429 55.6429L179.143 58.3571Z" fill="#171717"/>
<path fill-rule="evenodd" clip-rule="evenodd" d="M31.6598 63.4215C31.6598 61.0022 30.7519 60.071 28.3909 60.071H16.9515V73.4722H28.3909C30.7519 73.4722 31.6598 72.5417 31.6598 70.1218V63.4215ZM28.5725 57.0001C32.8858 57.0001 34.9286 59.0945 34.9286 63.5142V70.029C34.9286 74.4494 32.8858 76.5432 28.5725 76.5432H16.9515V86.6866H22.217V89.5715H9.14288V86.6866H13.6827V59.8856H9.14288V57.0001H28.5725Z" fill="#171717"/>
<path fill-rule="evenodd" clip-rule="evenodd" d="M47.4299 77.6512C44.9967 77.9359 44.0236 78.5998 44.0236 82.2025C44.0236 85.8046 44.9967 86.9427 48.403 86.9427C52.7343 86.9427 54.8752 85.8515 57.7464 83.8612V76.5138L47.4299 77.6512ZM65.1429 89.5962H57.7464V86.0886C55.556 88.6014 53.1229 89.7858 48.3542 89.7858C42.8558 89.7858 40.7143 87.5108 40.7143 82.2025C40.7143 76.8929 42.8558 75.4238 47.3329 74.9971C49.7172 74.76 53.464 74.4759 57.7464 74.2863V70.1624C57.7464 67.7923 56.7733 66.8438 54.3401 66.8438H48.306C45.8729 66.8438 44.8997 67.7923 44.8997 70.1624V70.8739H41.5904V70.4465C41.5904 66.0855 43.732 64.0001 48.2084 64.0001H54.4371C58.9142 64.0001 61.0551 66.0855 61.0551 70.4465V86.8469H65.1429V89.5962Z" fill="#171717"/>
<path fill-rule="evenodd" clip-rule="evenodd" d="M87.6809 70.4682C84.8767 68.5267 82.7858 67.4631 78.3185 67.4631C74.754 67.4631 73.8035 68.3882 73.8035 70.6994V83.827C73.8035 86.1383 74.754 87.0627 78.3185 87.0627C82.7858 87.0627 84.8767 85.9992 87.6809 84.0583V70.4682ZM95 89.7438H87.6809V86.3232C85.1621 88.4032 83.1659 89.9286 78.2708 89.9286C72.6624 89.9286 70.5715 87.895 70.5715 83.6422V70.8843C70.5715 66.6315 72.6624 64.5978 78.2708 64.5978C83.1659 64.5978 85.1621 66.1232 87.6809 68.2033V58.6811H82.9282V56.0001H90.9129V87.0627H95V89.7438Z" fill="#171717"/>
<path fill-rule="evenodd" clip-rule="evenodd" d="M118.464 63.2354C118.464 60.8161 117.566 59.8849 115.234 59.8849H106.979C104.646 59.8849 103.748 60.8161 103.748 63.2354V66.5391C103.748 69.0051 104.78 69.7956 106.979 70.3078L115.683 72.4016C119.182 73.2388 122.143 74.1699 122.143 79.0552V83.0567C122.143 87.4777 120.124 89.5715 115.862 89.5715H106.709C102.447 89.5715 100.429 87.4777 100.429 83.0567V79.7536H103.659V83.3362C103.659 85.7561 104.556 86.686 106.889 86.686H115.683C118.015 86.686 118.912 85.7561 118.912 83.3362V79.4274C118.912 76.9614 117.881 76.171 115.683 75.6587L106.979 73.5649C103.48 72.7272 100.519 71.7967 100.519 66.9107V63.5142C100.519 59.0939 102.537 57.0001 106.8 57.0001H115.413C119.675 57.0001 121.695 59.0939 121.695 63.5142V66.4925H118.464V63.2354Z" fill="#171717"/>
<path fill-rule="evenodd" clip-rule="evenodd" d="M146.079 70.1072C146.079 67.7938 145.136 66.868 141.599 66.868C137.166 66.868 135.09 67.9331 132.308 69.8758V83.4783C135.09 85.4216 137.166 86.4855 141.599 86.4855C145.136 86.4855 146.079 85.5602 146.079 83.2468V70.1072ZM149.286 70.2923V83.0618C149.286 87.3185 147.211 89.354 141.646 89.354C136.789 89.354 134.808 87.8272 132.308 85.7453V93.8886H137.307V96.5715H124.857V93.8886H129.101V66.868H124.857V64.1851H132.308V67.6094C134.808 65.5269 136.789 64.0001 141.646 64.0001C147.211 64.0001 149.286 66.0356 149.286 70.2923Z" fill="#171717"/>
<path fill-rule="evenodd" clip-rule="evenodd" d="M168.286 90.0002H156.071V87.4121H160.577V60.0165H156.071V57.4286H163.981V87.4121H168.286V90.0002Z" fill="#171717"/>
<path fill-rule="evenodd" clip-rule="evenodd" d="M184.571 90.0001H172.357L172.357 87.5001H176.863V66.769H172.357V64.0001H180.267V87.5001H184.571V90.0001Z" fill="#171717"/>
<path fill-rule="evenodd" clip-rule="evenodd" d="M193.026 84.0647C193.026 86.3942 193.985 87.3259 196.383 87.3259H199.5V90.2143H196.287C191.876 90.2143 189.765 88.1647 189.765 83.8784V67.8518H185.929V65.0568H189.765V59.0001H193.026V65.0568H199.5V67.8518H193.026V84.0647Z" fill="#171717"/>
</svg>
