<svg width="70" height="19" viewBox="0 0 70 19" fill="none" xmlns="http://www.w3.org/2000/svg">
<path d="M1.75804 10.423V5.01497H0V3.54201H0.790474C2.44053 3.54201 2.50532 3.49882 2.50532 1.76237V0.397394L4.48367 0.198696V3.54201H9.07101V5.01497H4.48367V10.4014C4.48367 12.1379 5.05385 12.6433 5.91343 12.6649C6.83349 12.6908 7.03651 11.8269 7.03651 9.07964H9.15308C9.18332 12.7383 8.76432 14.0817 5.71905 14.1162C3.12301 14.1465 1.75804 13.127 1.75804 10.423Z" fill="#5633D0"/>
<path d="M62.3308 10.423V5.01497H60.5727V3.54201H61.3632C63.0133 3.54201 63.0781 3.49882 63.0781 1.76237V0.397394L65.0564 0.198696V3.54201H69.6437V5.01497H65.0607V10.4014C65.0607 12.1379 65.6309 12.6433 66.4905 12.6649C67.4105 12.6908 67.6136 11.8269 67.6136 9.07964H69.7301C69.7604 12.7383 69.3414 14.0817 66.2961 14.1162C63.6957 14.1465 62.3308 13.127 62.3308 10.423Z" fill="#5633D0"/>
<path d="M11.2049 3.53769H13.343L13.3603 5.49444C14.0212 4.10787 15.2307 3.36059 16.5049 3.36059C18.5869 3.36059 19.3472 5.06249 19.2781 8.30645H17.0578C17.1183 6.30219 16.6734 4.94154 15.6842 4.94154C14.5611 4.94154 13.9089 6.10781 13.9089 8.30645V13.9607H11.2049V3.53769V3.53769Z" fill="#5633D0"/>
<path d="M20.967 9.43385V3.54201H23.6926V9.58935C23.6926 11.8096 24.1548 12.5353 25.4723 12.5353C26.8804 12.5353 27.7357 11.369 27.7357 9.21355V3.54201H30.4613V13.9607H28.2843V11.9392C27.6018 13.3257 26.2411 14.1378 24.5219 14.1378C21.9086 14.1378 20.967 12.8636 20.967 9.43385Z" fill="#5633D0"/>
<path d="M32.4181 9.43385V3.54201H35.1437V9.58935C35.1437 11.8096 35.6059 12.5353 36.9233 12.5353C38.3315 12.5353 39.1868 11.369 39.1868 9.21355V3.54201H41.9124V13.9607H39.7353V11.9392C39.0528 13.3257 37.6922 14.1378 35.973 14.1378C33.364 14.1378 32.4181 12.8636 32.4181 9.43385Z" fill="#5633D0"/>
<path d="M44.0419 3.53769H46.1973L46.2189 5.36485C46.9446 3.93509 48.2837 3.38651 49.8905 3.38651C52.8149 3.38651 54.2662 5.01497 54.2662 8.77296C54.2662 12.5093 52.7933 14.1378 50.0892 14.1378C48.6595 14.1378 47.4284 13.8095 46.7459 12.6649V18.1938L44.0419 18.25V3.53769V3.53769ZM51.4499 8.77296C51.4499 6.02574 50.6378 4.90266 49.0309 4.90266C47.4241 4.90266 46.6336 6.02574 46.6336 8.77296C46.6336 11.5202 47.4241 12.5785 49.0309 12.5785C50.6378 12.5785 51.4499 11.5202 51.4499 8.77296Z" fill="#5633D0"/>
<path d="M56.1236 3.53769H58.8276V13.9607H56.1236V3.53769Z" fill="#5633D0"/>
<path d="M57.454 2.60035C58.1721 2.60035 58.7542 2.01825 58.7542 1.30018C58.7542 0.58211 58.1721 0 57.454 0C56.736 0 56.1539 0.58211 56.1539 1.30018C56.1539 2.01825 56.736 2.60035 57.454 2.60035Z" fill="#FF8C6B"/>
</svg>
