<svg width="13" height="13" viewBox="0 0 13 13" fill="none" xmlns="http://www.w3.org/2000/svg">
<circle cx="6.5" cy="6.5" r="6.5" fill="#5633D1"/>
<path d="M4.88521 8.14178V5.42129H4V4.68068H4.39918C5.22895 4.68068 5.26222 4.65852 5.26222 3.78493V3.09973L6.25831 3V4.68068H8.56652V5.42129H6.25831V8.1307C6.25831 9.00428 6.54661 9.25915 6.9772 9.27023C7.44106 9.28132 7.54271 8.84914 7.54086 7.46766H8.60533C8.62012 9.30717 8.40944 9.98314 6.87741 9.99976C5.57084 10.0127 4.88521 9.5011 4.88521 8.14178Z" fill="white"/>
<path d="M8.05141 7.11859C8.36781 7.11859 8.62431 6.86226 8.62431 6.54605C8.62431 6.22985 8.36781 5.97351 8.05141 5.97351C7.73501 5.97351 7.47852 6.22985 7.47852 6.54605C7.47852 6.86226 7.73501 7.11859 8.05141 7.11859Z" fill="#FF8C6B"/>
</svg>
