<svg width="69" height="18" viewBox="0 0 69 18" fill="none" xmlns="http://www.w3.org/2000/svg">
  <path d="M1.73396 10.2801V4.9461H0V3.49331H0.779646C2.4071 3.49331 2.471 3.45071 2.471 1.73805V0.391777L4.42224 0.195801V3.49331H8.94675V4.9461H4.42224V10.2588C4.42224 11.9714 4.98462 12.4699 5.83243 12.4912C6.73988 12.5167 6.94012 11.6647 6.94012 8.95509H9.02769C9.05752 12.5636 8.64426 13.8886 5.64071 13.9227C3.08023 13.9525 1.73396 12.947 1.73396 10.2801Z" fill="white"/>
  <path d="M61.4769 10.2801V4.9461H59.7429V3.49331H60.5226C62.15 3.49331 62.2139 3.45071 62.2139 1.73805V0.391777L64.1652 0.195801V3.49331H68.6897V4.9461H64.1694V10.2588C64.1694 11.9714 64.7318 12.4699 65.5796 12.4912C66.4871 12.5167 66.6873 11.6647 66.6873 8.95509H68.7749C68.8047 12.5636 68.3914 13.8886 65.3879 13.9227C62.8232 13.9525 61.4769 12.947 61.4769 10.2801Z" fill="white"/>
  <path d="M11.0513 3.48913H13.1601L13.1772 5.41907C13.829 4.0515 15.0219 3.31445 16.2787 3.31445C18.3322 3.31445 19.082 4.99304 19.0139 8.19256H16.824C16.8837 6.21576 16.4449 4.87374 15.4693 4.87374C14.3616 4.87374 13.7182 6.02404 13.7182 8.19256V13.7694H11.0513V3.48913Z" fill="white"/>
  <path d="M20.6799 9.30478V3.49365H23.3682V9.45815C23.3682 11.648 23.8241 12.3637 25.1235 12.3637C26.5124 12.3637 27.3559 11.2134 27.3559 9.0875V3.49365H30.0442V13.7696H27.897V11.7758C27.2238 13.1434 25.8818 13.9443 24.1862 13.9443C21.6087 13.9443 20.6799 12.6875 20.6799 9.30478Z" fill="white"/>
  <path d="M31.9739 9.30478V3.49365H34.6622V9.45815C34.6622 11.648 35.118 12.3637 36.4174 12.3637C37.8063 12.3637 38.6499 11.2134 38.6499 9.0875V3.49365H41.3381V13.7696H39.1909V11.7758C38.5178 13.1434 37.1758 13.9443 35.4802 13.9443C32.9069 13.9443 31.9739 12.6875 31.9739 9.30478Z" fill="white"/>
  <path d="M43.4385 3.48896H45.5644L45.5857 5.29109C46.3014 3.88091 47.6221 3.33984 49.207 3.33984C52.0913 3.33984 53.5227 4.946 53.5227 8.65251C53.5227 12.3377 52.07 13.9439 49.403 13.9439C47.9928 13.9439 46.7786 13.6201 46.1055 12.4911V17.9443L43.4385 17.9997V3.48896ZM50.745 8.65251C50.745 5.94292 49.944 4.83523 48.3592 4.83523C46.7743 4.83523 45.9947 5.94292 45.9947 8.65251C45.9947 11.3621 46.7743 12.4059 48.3592 12.4059C49.944 12.4059 50.745 11.3621 50.745 8.65251Z" fill="white"/>
  <path d="M55.3547 3.48926H58.0217V13.7695H55.3547V3.48926Z" fill="white"/>
  <path d="M56.6669 2.56473C57.3751 2.56473 57.9493 1.9906 57.9493 1.28237C57.9493 0.574136 57.3751 0 56.6669 0C55.9587 0 55.3845 0.574136 55.3845 1.28237C55.3845 1.9906 55.9587 2.56473 56.6669 2.56473Z" fill="#FF8C6B"/>
</svg>
