<?xml version="1.0" encoding="UTF-8"?>
<svg version="1.1" xmlns="http://www.w3.org/2000/svg" width="600" height="200">
<path d="M0 0 C0.25007813 0.60972656 0.50015625 1.21945313 0.7578125 1.84765625 C2.19992895 4.34641776 3.36828988 5.07063354 5.875 6.4375 C9.42000167 8.56064075 11.87771466 10.34966921 14 14 C15.37749116 19.90353352 15.27416835 25.30897772 13 31 C9.87301742 34.38052171 7.46030922 35.34467522 3 36 C0.70880535 36.04658302 -1.58380369 36.03868893 -3.875 35.9921875 C-5.18984375 35.97542969 -6.5046875 35.95867188 -7.859375 35.94140625 C-9.93317305 35.91044671 -12.00656137 35.87485368 -14.08007812 35.82861328 C-16.09481 35.78612249 -18.10993728 35.76391857 -20.125 35.7421875 C-21.32382812 35.7201123 -22.52265625 35.69803711 -23.7578125 35.67529297 C-28.10630884 36.1107975 -30.59015812 37.57586421 -33.63745117 40.65405273 C-34.33318237 41.53492554 -34.33318237 41.53492554 -35.04296875 42.43359375 C-35.55923828 43.08263672 -36.07550781 43.73167969 -36.60742188 44.40039062 C-37.12884766 45.07263672 -37.65027344 45.74488281 -38.1875 46.4375 C-38.98704102 47.44006836 -38.98704102 47.44006836 -39.80273438 48.46289062 C-44.43477686 53.87678865 -44.43477686 53.87678865 -45.8359375 60.52734375 C-44.31115464 65.03756595 -40.85597404 67.40687278 -37 70 C-31.42216828 72.73057034 -27.12537232 74.53648135 -21 73 C-19.08672562 72.28736759 -17.19196463 71.52410656 -15.3125 70.7265625 C-14.16168945 70.24106934 -13.01087891 69.75557617 -11.82519531 69.25537109 C-10.55012056 68.7119367 -9.2750558 68.16847885 -8 67.625 C-6.64961136 67.05373261 -5.29901917 66.48294619 -3.94824219 65.91259766 C-0.95591197 64.64813328 2.03518362 63.3808053 5.02539062 62.11132812 C20.84072342 55.39713727 36.66867872 48.71263825 52.5057373 42.04986572 C54.80547084 41.08187971 57.10446403 40.11215682 59.40332031 39.14208984 C103.05833957 20.74677339 103.05833957 20.74677339 125 28 C133.330503 31.99454447 139.81192004 38.22474253 146.4230957 44.53271484 C148.20431982 46.19011645 150.03023387 47.78742779 151.8671875 49.3828125 C155.9769625 52.95737684 159.97006669 56.64367735 163.9375 60.375 C164.63552734 61.02984375 165.33355469 61.6846875 166.05273438 62.359375 C170.47803733 66.52533462 174.8048758 70.77174185 179.0703125 75.1015625 C180.94454381 76.94544189 182.87750375 78.66629839 184.875 80.375 C201.37335412 94.62957796 201.37335412 94.62957796 206 104 C206 104.99 206 105.98 206 107 C205.19175781 107.09796875 204.38351562 107.1959375 203.55078125 107.296875 C195.34193824 108.1951973 195.34193824 108.1951973 189 113 C187.79272313 116.5463758 187.67456873 118.22258086 189.125 121.6875 C191.89561352 125.10459 194.13534377 126.70543007 198.546875 127.40234375 C201.03115676 127.65849145 203.50671675 127.85960153 206 128 C206.48141982 134.64626809 206.30168684 139.63114276 202 145 C198.75302974 148.74954479 195.38448694 152.37488493 192 156 C190.74252973 157.41004005 189.49156407 158.82593431 188.25 160.25 C187.69699219 160.8790625 187.14398438 161.508125 186.57421875 162.15625 C185.5273475 163.38236224 184.50844223 164.63292926 183.51953125 165.90625 C179.56657639 170.90838055 175.2674665 174.48228309 168.74609375 175.2734375 C166.5625 175.3125 166.5625 175.3125 163 175 C161.02170928 173.02170928 161.74496068 169.17672973 161.68359375 166.46484375 C161.66281265 165.71159317 161.64203156 164.95834259 161.62062073 164.18226624 C161.55504575 161.7674401 161.49620379 159.35250202 161.4375 156.9375 C161.3943223 155.30402471 161.35070827 153.6705609 161.30664062 152.03710938 C161.19935638 148.02485536 161.09811179 144.01248836 161 140 C159.56211992 140.14337352 158.1247044 140.29141093 156.6875 140.44140625 C155.48673828 140.5643103 155.48673828 140.5643103 154.26171875 140.68969727 C151.58691962 141.0566737 149.38576824 141.73256062 147 143 C144.26770124 148.46459751 145.23624166 156.92719963 145 163 C144.96455078 163.82951172 144.92910156 164.65902344 144.89257812 165.51367188 C144.79914298 167.9258241 144.73803047 170.33660445 144.6875 172.75 C144.64290649 173.85601562 144.64290649 173.85601562 144.59741211 174.984375 C144.52922239 181.23198865 146.81633175 184.51513613 150.8125 189.0625 C152 191 152 191 151 196 C143.74 196 136.48 196 129 196 C126.75 187 126.75 187 126.68115234 182.86914062 C126.65134781 181.48861511 126.65134781 181.48861511 126.62094116 180.0802002 C126.60361435 178.63284485 126.60361435 178.63284485 126.5859375 177.15625 C126.55688828 175.64170227 126.55688828 175.64170227 126.5272522 174.09655762 C126.46786773 170.89778879 126.42123643 167.69898316 126.375 164.5 C126.33678233 162.32029752 126.29772844 160.14060954 126.2578125 157.9609375 C126.16220045 152.64075442 126.07703476 147.32048278 126 142 C120.39745686 140.81558687 120.39745686 140.81558687 115.28125 142.5546875 C112.75839839 145.25897706 110.5774545 148.07609277 108.5 151.125 C107.6323774 152.37039611 106.76383945 153.61515488 105.89453125 154.859375 C105.20157959 155.85614258 105.20157959 155.85614258 104.49462891 156.87304688 C102.89761432 159.14570141 101.27158997 161.39506078 99.63671875 163.640625 C99.064375 164.42679199 98.49203125 165.21295898 97.90234375 166.02294922 C96.78781953 167.55161185 95.67200513 169.07933495 94.5546875 170.60595703 C93.01644822 172.72389877 91.50348273 174.85727635 90 177 C89.48260254 177.71833008 88.96520508 178.43666016 88.43212891 179.17675781 C87.95565918 179.87381836 87.47918945 180.57087891 86.98828125 181.2890625 C86.55684814 181.9073291 86.12541504 182.5255957 85.6809082 183.16259766 C84.75652137 185.04625315 84.75652137 185.04625315 85.77929688 187.1184082 C87.52102943 189.80311477 89.65612894 192.0037515 91.85546875 194.31640625 C92.23316406 194.87199219 92.61085937 195.42757812 93 196 C92.67 196.99 92.34 197.98 92 199 C85.4 199 78.8 199 72 199 C69.03698498 187.14793994 71.83307435 178.4224517 77.25 167.8125 C77.84487465 166.60861796 78.43733441 165.40353956 79.02734375 164.19726562 C80.16474898 161.87261381 81.30587959 159.54978013 82.45117188 157.22900391 C86.45598379 149.4358065 86.45598379 149.4358065 88 141 C74.93258915 133.80126653 74.93258915 133.80126653 60.49609375 130.96484375 C53.70693932 133.78037728 50.05936762 141.86371573 46.6875 148 C46.24599609 148.76828125 45.80449219 149.5365625 45.34960938 150.328125 C42.83720932 154.85275359 41.07853951 158.70512815 41 164 C41.85384394 166.0309355 41.85384394 166.0309355 43.5625 167.5625 C44.20058594 168.22378906 44.83867188 168.88507813 45.49609375 169.56640625 C46.32238281 170.36949219 47.14867188 171.17257813 48 172 C49.75637633 173.71742762 51.5095021 175.43792923 53.25756836 177.16381836 C54.47440787 178.36029502 55.70012481 179.54783022 56.93579102 180.72485352 C60.9079889 184.591229 64.9205514 188.77782487 67 194 C66.75048828 196.17578125 66.75048828 196.17578125 66 198 C62.84150315 199.57924842 59.4634872 199.14316514 56 199.125 C55.26265625 199.12886719 54.5253125 199.13273438 53.765625 199.13671875 C48.2533196 199.1266598 48.2533196 199.1266598 46 198 C44.7242619 194.75266665 45.16758145 192.32967418 46 189 C45.236875 188.77054688 44.47375 188.54109375 43.6875 188.3046875 C38.65898518 186.52553077 33.85287255 184.33260648 29 182.125 C28.02804688 181.69058594 27.05609375 181.25617188 26.0546875 180.80859375 C16.15153271 176.31574559 16.15153271 176.31574559 12 173 C11.08401802 169.46692666 10.99121779 166.44789281 11.0625 162.8125 C10.99650728 159.84282768 10.71681876 158.40354626 9 156 C5.49655006 153.40485189 2.22504584 153.39642202 -2 154 C-8.47572443 157.26537946 -14.91089291 161.09390689 -17.86328125 168.02734375 C-18.86563136 172.28951072 -19.50852179 175.75728246 -18 180 C-17.01 180.804375 -16.02 181.60875 -15 182.4375 C-12 185 -12 185 -11.0625 188.75 C-11.041875 189.8225 -11.02125 190.895 -11 192 C-12 193 -12 193 -14.31665039 193.11352539 C-15.31688232 193.10828857 -16.31711426 193.10305176 -17.34765625 193.09765625 C-18.42724609 193.09443359 -19.50683594 193.09121094 -20.61914062 193.08789062 C-21.75544922 193.07951172 -22.89175781 193.07113281 -24.0625 193.0625 C-25.20267578 193.05798828 -26.34285156 193.05347656 -27.51757812 193.04882812 C-30.34510351 193.03699747 -33.1725264 193.0205141 -36 193 C-35.95810547 192.35675781 -35.91621094 191.71351563 -35.87304688 191.05078125 C-35.12509099 177.7769313 -35.30231573 167.91451435 -42.15234375 156.3828125 C-44.67785042 151.75894616 -45 148.20793216 -45 143 C-41.80601128 140.87067419 -41.12782642 140.78634057 -37.5 140.9375 C-34.51741494 141.05183243 -32.89449278 140.96483093 -30 140 C-29.04628707 137.13886121 -28.87126853 135.34785594 -28.8671875 132.37890625 C-28.86525391 131.45215088 -28.86332031 130.52539551 -28.86132812 129.57055664 C-28.86583984 128.57789795 -28.87035156 127.58523926 -28.875 126.5625 C-28.87693359 125.54728271 -28.87886719 124.53206543 -28.88085938 123.48608398 C-28.93594471 113.63881555 -29.39724172 103.82711259 -30 94 C-30.72832031 93.9175 -31.45664062 93.835 -32.20703125 93.75 C-35.62794373 92.83137735 -37.13157278 91.4334117 -39.6875 89 C-43.14451557 85.7439138 -46.64365826 82.58959594 -50.25 79.5 C-55.87546939 74.38029047 -61.00174076 69.12425743 -62.125 61.3125 C-61.59506619 53.35116888 -54.28219915 47.3992602 -49 42 C-48.1030542 41.06994141 -48.1030542 41.06994141 -47.18798828 40.12109375 C-35.52745369 28.06085932 -35.52745369 28.06085932 -30.43994141 27.8581543 C-28.9105114 27.84336988 -27.38104253 27.8323173 -25.8515625 27.82421875 C-24.19009149 27.80102124 -22.52863311 27.77690393 -20.8671875 27.75195312 C-18.24470559 27.71682621 -15.62268863 27.68748818 -13 27.67407227 C-10.47078024 27.65859794 -7.94292249 27.61839489 -5.4140625 27.57421875 C-4.63165192 27.57612717 -3.84924133 27.57803558 -3.04312134 27.58000183 C0.4818587 27.50080646 2.61091282 27.27923306 5.51025391 25.19848633 C7.60785895 22.1029548 7.28053415 19.64694392 7 16 C5.0085944 15.61866701 3.00720923 15.28674418 1 15 C0.67 15.33 0.34 15.66 0 16 C-4.97169551 16.40677509 -9.11151156 15.24710401 -13.75 13.625 C-14.42160156 13.40328125 -15.09320313 13.1815625 -15.78515625 12.953125 C-18.73363642 11.94863276 -20.76971441 11.23028559 -23 9 C-22.85546875 6.9765625 -22.85546875 6.9765625 -22 5 C-20.36328125 4.0234375 -20.36328125 4.0234375 -18.3125 3.375 C-17.58675781 3.13910156 -16.86101563 2.90320313 -16.11328125 2.66015625 C-15.41589844 2.44230469 -14.71851563 2.22445313 -14 2 C-13.01 1.608125 -12.02 1.21625 -11 0.8125 C-7.18540587 -0.22061924 -3.94438236 -0.13601318 0 0 Z " fill="#16347E" transform="translate(63,0)"/>
<path d="M0 0 C1.09845497 -0.00358017 1.09845497 -0.00358017 2.21910095 -0.00723267 C3.050793 -0.01668915 3.88248505 -0.02614563 4.73937988 -0.03588867 C5.64139633 -0.02981598 6.54341278 -0.02374329 7.47276306 -0.01748657 C8.40301804 -0.02035675 9.33327301 -0.02322693 10.29171753 -0.02618408 C12.26637884 -0.02822905 14.24106022 -0.0226691 16.21568298 -0.01016235 C19.21395862 0.00575897 22.21086005 -0.00993045 25.20909119 -0.02920532 C27.13031809 -0.02722049 29.05154415 -0.02337187 30.97276306 -0.01748657 C31.86060989 -0.02355927 32.74845673 -0.02963196 33.66320801 -0.03588867 C43.05923635 0.06818468 50.97036265 2.55271181 57.96885681 9.02938843 C66.74714523 18.14244209 67.82994747 28.6448496 67.65415955 40.7605896 C67.62509872 42.94405909 67.63361262 45.12510307 67.64659119 47.3086853 C67.63391921 56.70341838 67.61170474 66.71390219 60.68760681 73.88095093 C60.09979431 74.51001343 59.51198181 75.13907593 58.90635681 75.78720093 C57.18760681 77.38095093 57.18760681 77.38095093 54.18760681 79.38095093 C55.10993103 80.14278687 55.10993103 80.14278687 56.05088806 80.92001343 C62.1535807 86.11752199 65.94425742 90.27692907 67.18760681 98.38095093 C67.35391097 101.63445547 67.37544 104.88535066 67.39073181 108.14266968 C67.39643188 109.08850418 67.40213196 110.03433868 67.40800476 111.00883484 C67.41743435 113.0084319 67.42398061 115.00804435 67.42784119 117.00765991 C67.43751787 120.04057541 67.46854899 123.07280447 67.50010681 126.1055603 C67.50664067 128.0554261 67.51188964 130.00529672 67.51573181 131.95516968 C67.52807861 132.85031784 67.54042542 133.745466 67.55314636 134.66773987 C67.51817867 144.73497347 64.99230986 152.89751791 58.18760681 160.38095093 C50.07985453 168.26957477 39.94568167 169.5405724 29.14073181 169.51376343 C28.28831909 169.51472015 27.43590637 169.51567688 26.55766296 169.5166626 C24.76585313 169.51734021 22.97404078 169.51551526 21.18223572 169.51132202 C18.43266858 169.50594126 15.68326283 169.51129473 12.93370056 169.51766968 C11.19021062 169.51700934 9.44672077 169.5157291 7.70323181 169.51376343 C6.46733307 169.51679977 6.46733307 169.51679977 5.20646667 169.51989746 C-0.58243851 169.49592827 -0.58243851 169.49592827 -2.81239319 168.38095093 C-3.93802175 165.00406524 -3.94108307 162.45087893 -3.94610596 158.89022827 C-3.94837151 158.22824621 -3.95063707 157.56626415 -3.95297128 156.88422203 C-3.95931121 154.66175985 -3.95848193 152.43935866 -3.95765686 150.21688843 C-3.96064831 148.62527385 -3.9640508 147.03366001 -3.96783447 145.44204712 C-3.97667893 141.11571116 -3.97901274 136.78939497 -3.97965026 132.46305084 C-3.98059893 128.85448433 -3.98427664 125.24592245 -3.98782235 121.63735771 C-3.99596818 113.1267562 -3.99840643 104.61616527 -3.99769592 96.1055603 C-3.9970947 87.31742778 -4.00765514 78.52935655 -4.02343959 69.74123955 C-4.03649929 62.20233813 -4.0418805 54.66345679 -4.04124051 47.12454414 C-4.04098512 42.61906913 -4.04385941 38.1136486 -4.05441856 33.60818481 C-4.06407349 29.37289803 -4.06419674 25.13771814 -4.05690193 20.90242767 C-4.05585292 19.34595331 -4.05823765 17.78947239 -4.06426239 16.23300934 C-4.07194066 14.11243693 -4.06736558 11.99223753 -4.05963135 9.87167358 C-4.06017612 8.68369171 -4.06072088 7.49570984 -4.06128216 6.27172852 C-3.79154219 3.13877224 -3.43202235 0.72138436 0 0 Z M25.18760681 27.38095093 C25.18760681 40.25095093 25.18760681 53.12095093 25.18760681 66.38095093 C28.48760681 66.38095093 31.78760681 66.38095093 35.18760681 66.38095093 C38.40576601 63.16279173 38.54173613 62.40222845 38.60444641 58.0866394 C38.59533737 57.04122986 38.59533737 57.04122986 38.58604431 55.97470093 C38.58891449 55.25359131 38.59178467 54.53248169 38.59474182 53.78952026 C38.59678133 52.26644098 38.59125928 50.74333543 38.57872009 49.2203064 C38.56266325 46.88914415 38.57857091 44.55971551 38.59776306 42.22860718 C38.59578061 40.7481346 38.59193688 39.2676631 38.58604431 37.78720093 C38.592117 37.09026123 38.5981897 36.39332153 38.60444641 35.67526245 C38.54173613 31.35967341 38.40576601 30.59911013 35.18760681 27.38095093 C31.88760681 27.38095093 28.58760681 27.38095093 25.18760681 27.38095093 Z M25.18760681 93.38095093 C25.18760681 109.55095093 25.18760681 125.72095093 25.18760681 142.38095093 C28.48760681 142.38095093 31.78760681 142.38095093 35.18760681 142.38095093 C38.27624954 138.49175926 38.27624954 138.49175926 38.57579041 134.21078491 C38.58524689 133.39991928 38.59470337 132.58905365 38.60444641 131.75361633 C38.59837372 130.88684769 38.59230103 130.02007904 38.58604431 129.12704468 C38.58891449 128.22978165 38.59178467 127.33251862 38.59474182 126.4080658 C38.59678051 124.51433683 38.59126427 122.62058671 38.57872009 120.72689819 C38.56264474 117.82529786 38.5785849 114.92508647 38.59776306 112.02352905 C38.59578096 110.18303118 38.59193798 108.34253418 38.58604431 106.50204468 C38.592117 105.6332518 38.5981897 104.76445892 38.60444641 103.86933899 C38.59498993 103.06162552 38.58553345 102.25391205 38.57579041 101.42172241 C38.57340363 100.71208847 38.57101685 100.00245453 38.56855774 99.27131653 C38.06937987 96.79428184 37.1526618 95.92861065 35.18760681 94.38095093 C31.60785591 93.01201853 31.60785591 93.01201853 25.18760681 93.38095093 Z " fill="#009BFF" transform="translate(305.81239318847656,27.619049072265625)"/>
<path d="M0 0 C2.59790039 -0.35644531 2.59790039 -0.35644531 5.84765625 -0.328125 C7.59079102 -0.32039063 7.59079102 -0.32039063 9.36914062 -0.3125 C10.58794922 -0.291875 11.80675781 -0.27125 13.0625 -0.25 C14.28517578 -0.24484375 15.50785156 -0.2396875 16.76757812 -0.234375 C25.84627976 -0.15372024 25.84627976 -0.15372024 27 1 C27.10417043 2.76237953 27.13798275 4.52894533 27.14476013 6.29438782 C27.15165863 7.44272095 27.15855713 8.59105408 27.16566467 9.77418518 C27.16827805 11.0453569 27.17089142 12.31652863 27.17358398 13.6262207 C27.17988582 14.96961686 27.18665121 16.31301092 27.19384766 17.65640259 C27.2085445 20.55603411 27.22025835 23.45565742 27.22979546 26.35531044 C27.2452145 30.93940162 27.26916399 35.52342307 27.29469299 40.10746765 C27.36598276 53.14508664 27.42567043 66.18274593 27.47680664 79.22045898 C27.50510429 86.41595362 27.54048428 93.61137923 27.58346039 100.8068015 C27.61025045 105.36430568 27.62814501 109.92173172 27.63949764 114.47929919 C27.64862153 117.31587122 27.66598269 120.15234841 27.68567657 122.9888649 C27.69671863 124.9322932 27.69790172 126.87576967 27.69880676 128.81922913 C27.70852509 129.97602173 27.71824341 131.13281433 27.72825623 132.32466125 C27.73248816 133.32996037 27.7367201 134.33525949 27.74108028 135.37102222 C28.00918805 138.09329212 28.48309118 139.73394519 30 142 C33.29427581 143.09809194 34.66411172 143.11196276 38 142 C39.31165046 139.37669909 39.13968432 137.42148662 39.15821838 134.48251343 C39.1680072 133.31019669 39.17779602 132.13787994 39.18788147 130.93003845 C39.19363693 129.63747635 39.1993924 128.34491425 39.20532227 127.01318359 C39.2148986 125.64344485 39.22490853 124.27370908 39.23532104 122.90397644 C39.26240274 119.17902603 39.28339459 115.45406291 39.30332303 111.72906828 C39.32516248 107.83861177 39.35256114 103.94819458 39.37937927 100.05776978 C39.42933381 92.68779508 39.47426238 85.3177986 39.51740164 77.94778121 C39.56675044 69.55850939 39.6216773 61.16927703 39.67708123 52.78004336 C39.79094365 35.52006536 39.89777339 18.26005076 40 1 C44.23379186 -1.11689593 49.84839782 -0.18493005 54.5 -0.1875 C55.66660156 -0.19974609 56.83320313 -0.21199219 58.03515625 -0.22460938 C59.70384766 -0.22750977 59.70384766 -0.22750977 61.40625 -0.23046875 C62.43041016 -0.23457764 63.45457031 -0.23868652 64.50976562 -0.24291992 C67 0 67 0 69 2 C69.25447559 4.43862247 69.25447559 4.43862247 69.26069641 7.57081604 C69.26778122 8.7553688 69.27486603 9.93992157 69.28216553 11.16036987 C69.27968811 12.46684479 69.27721069 13.7733197 69.2746582 15.11938477 C69.27900381 16.5040769 69.28418645 17.88876663 69.29014587 19.27345276 C69.30357127 23.04244041 69.30411007 26.81132799 69.30158257 30.5803349 C69.30051412 33.72850604 69.30539361 36.87665682 69.310188 40.02482361 C69.32129784 47.45837763 69.32171392 54.89188114 69.31567383 62.32543945 C69.30964732 69.98251593 69.32190784 77.63940804 69.3432439 85.29645306 C69.36089764 91.87493545 69.36685487 98.45335939 69.36360615 105.03186458 C69.36179735 108.95854028 69.36438798 112.8850848 69.37832069 116.81173897 C69.390954 120.51112656 69.38890337 124.21022913 69.37590981 127.90961266 C69.37243886 129.90339281 69.38368466 131.89718188 69.39547729 133.89093018 C69.33217863 144.75871532 67.25899573 153.64115643 60 162 C51.78079961 168.89352291 44.1790327 170.36155793 33.6875 170.375 C32.69298828 170.39949219 31.69847656 170.42398438 30.67382812 170.44921875 C20.89564069 170.48774083 13.90699087 167.58853128 6.7890625 160.91015625 C-2.29318066 151.21317611 -2.29996429 139.95493223 -2.25878906 127.24438477 C-2.26150491 125.88818678 -2.26506916 124.53199027 -2.26940918 123.17579651 C-2.27845882 119.52337376 -2.27502153 115.87106508 -2.26865101 112.21864057 C-2.26355955 108.38704466 -2.26829049 104.55545801 -2.27142334 100.72386169 C-2.27505078 94.29936989 -2.27029286 87.87492424 -2.26074219 81.45043945 C-2.24982749 74.02259826 -2.25340989 66.59486662 -2.264395 59.16702801 C-2.27346412 52.77871244 -2.27475598 46.39042987 -2.26951766 40.00210994 C-2.26640005 36.1909133 -2.26598353 32.37976824 -2.27259064 28.56857491 C-2.27835914 24.99226031 -2.27437646 21.41608767 -2.26280212 17.83978844 C-2.2588898 15.89980643 -2.26484312 13.95981243 -2.27105713 12.01983643 C-2.26541748 10.86901077 -2.25977783 9.71818512 -2.25396729 8.53248596 C-2.25283621 7.02962713 -2.25283621 7.02962713 -2.25168228 5.49640751 C-2 3 -2 3 0 0 Z " fill="#009BFF" transform="translate(385,28)"/>
<path d="M0 0 C2.59790039 -0.35644531 2.59790039 -0.35644531 5.84765625 -0.328125 C7.59079102 -0.32039063 7.59079102 -0.32039063 9.36914062 -0.3125 C10.58794922 -0.291875 11.80675781 -0.27125 13.0625 -0.25 C14.28517578 -0.24484375 15.50785156 -0.2396875 16.76757812 -0.234375 C25.84627976 -0.15372024 25.84627976 -0.15372024 27 1 C27.09639184 2.79694038 27.12187425 4.59770893 27.12025452 6.39723206 C27.12162918 7.56817413 27.12300385 8.73911621 27.12442017 9.94554138 C27.12082489 11.24169876 27.11722961 12.53785614 27.11352539 13.87329102 C27.11324352 15.24287921 27.11340125 16.61246756 27.1139679 17.98205566 C27.11425588 21.71122948 27.10835909 25.44037141 27.10139394 29.16953778 C27.09516047 33.06264413 27.09455661 36.95575113 27.09336853 40.84886169 C27.09025519 48.22598146 27.08204178 55.60308649 27.07201904 62.98019975 C27.06085797 71.37667543 27.05534747 79.77315179 27.05032361 88.16963303 C27.03985916 105.44643202 27.02151366 122.7232107 27 140 C37.89 140 48.78 140 60 140 C60 149.24 60 158.48 60 168 C56.92583062 169.02472313 54.78784822 169.13866781 51.56640625 169.16113281 C50.45515381 169.17074036 49.34390137 169.1803479 48.19897461 169.19024658 C46.99893799 169.19449646 45.79890137 169.19874634 44.5625 169.203125 C43.33088135 169.20882507 42.0992627 169.21452515 40.83032227 169.22039795 C38.22445536 169.22984907 35.61857651 169.23638237 33.01269531 169.24023438 C30.33742758 169.24463583 27.66247935 169.25859146 24.98730469 169.28125 C21.13726955 169.31160258 17.2876412 169.32226932 13.4375 169.328125 C12.23746338 169.3404718 11.03742676 169.3528186 9.80102539 169.36553955 C8.68977295 169.36253845 7.57852051 169.35953735 6.43359375 169.35644531 C5.45447021 169.36009094 4.47534668 169.36373657 3.46655273 169.36749268 C1 169 1 169 -0.63077068 167.88507462 C-2.65573035 165.09722892 -2.37470191 162.89262099 -2.3742218 159.47131348 C-2.37819621 158.80524786 -2.38217061 158.13918225 -2.38626546 157.45293283 C-2.39590584 155.21645297 -2.38406044 152.98060295 -2.37231445 150.74414062 C-2.37474185 149.14267236 -2.37846067 147.5412056 -2.38337708 145.93974304 C-2.39279682 141.58647167 -2.3833516 137.2334247 -2.37004495 132.88017082 C-2.35874448 128.32917107 -2.36283687 123.7781826 -2.36479187 119.22717285 C-2.36567529 111.58386561 -2.35458442 103.94064699 -2.33618164 96.29736328 C-2.31501328 87.45468824 -2.31150385 78.61214305 -2.3177436 69.7694478 C-2.32343406 61.27077548 -2.31779535 52.77214899 -2.30657005 44.27348328 C-2.30191985 40.65312352 -2.30105203 37.03279175 -2.3031559 33.41242981 C-2.30503659 29.15085834 -2.2969518 24.88941943 -2.2810955 20.62787819 C-2.27684523 19.06173564 -2.27600708 17.49557967 -2.27878571 15.92943382 C-2.28199757 13.79570488 -2.27295125 11.66237448 -2.26069641 9.52868652 C-2.25761711 7.7356522 -2.25761711 7.7356522 -2.25447559 5.90639496 C-2 3 -2 3 0 0 Z " fill="#009BFF" transform="translate(538,28)"/>
<path d="M0 0 C1.07241943 0.00410889 2.14483887 0.00821777 3.24975586 0.01245117 C4.4118457 0.01438477 5.57393555 0.01631836 6.77124023 0.01831055 C7.99004883 0.03055664 9.20885742 0.04280273 10.46459961 0.05541992 C12.29861328 0.05638672 12.29861328 0.05638672 14.16967773 0.05737305 C23.26198905 0.10280936 23.26198905 0.10280936 24.40209961 1.24291992 C24.49849145 3.0398603 24.52397386 4.84062885 24.52235413 6.64015198 C24.52372879 7.81109406 24.52510345 8.98203613 24.52651978 10.1884613 C24.5229245 11.48461868 24.51932922 12.78077606 24.515625 14.11621094 C24.51534313 15.48579913 24.51550086 16.85538748 24.5160675 18.22497559 C24.51635549 21.9541494 24.51045869 25.68329133 24.50349355 29.4124577 C24.49726008 33.30556405 24.49665622 37.19867105 24.49546814 41.09178162 C24.4923548 48.46890139 24.48414139 55.84600641 24.47411865 63.22311968 C24.46295758 71.61959535 24.45744708 80.01607171 24.45242321 88.41255295 C24.44195877 105.68935048 24.42435929 122.96613365 24.40209961 140.24291992 C25.36623779 140.23768311 26.33037598 140.23244629 27.32373047 140.22705078 C30.88882525 140.20899874 34.45391597 140.19748718 38.01904297 140.18798828 C39.56429727 140.18294852 41.10954677 140.17611673 42.65478516 140.16748047 C44.8713499 140.15539916 47.08785179 140.14968819 49.30444336 140.14526367 C49.99924301 140.14010239 50.69404266 140.1349411 51.40989685 140.12962341 C53.07439291 140.12942715 54.7387546 140.18102863 56.40209961 140.24291992 C57.40209961 141.24291992 57.40209961 141.24291992 57.515625 143.83496094 C57.51038818 144.96087646 57.50515137 146.08679199 57.49975586 147.24682617 C57.4965332 148.46176758 57.49331055 149.67670898 57.48999023 150.9284668 C57.47742188 152.84755859 57.47742188 152.84755859 57.46459961 154.80541992 C57.46008789 156.08868164 57.45557617 157.37194336 57.45092773 158.6940918 C57.43909506 161.87708014 57.42261029 165.05997754 57.40209961 168.24291992 C54.32793022 169.26764305 52.18994783 169.38158773 48.96850586 169.40405273 C47.85725342 169.41366028 46.74600098 169.42326782 45.60107422 169.4331665 C44.4010376 169.43741638 43.20100098 169.44166626 41.96459961 169.44604492 C40.73298096 169.451745 39.5013623 169.45744507 38.23242188 169.46331787 C35.62655497 169.47276899 33.02067611 169.47930229 30.41479492 169.4831543 C27.73952719 169.48755575 25.06457896 169.50151138 22.3894043 169.52416992 C18.53936916 169.5545225 14.68974081 169.56518924 10.83959961 169.57104492 C9.63956299 169.58339172 8.43952637 169.59573853 7.203125 169.60845947 C6.09187256 169.60545837 4.98062012 169.60245728 3.83569336 169.59936523 C2.85656982 169.60301086 1.87744629 169.60665649 0.86865234 169.6104126 C-1.59790039 169.24291992 -1.59790039 169.24291992 -3.22867107 168.13078785 C-5.25928479 165.33101541 -4.97260057 163.10324071 -4.97212219 159.66954041 C-4.9760966 158.99868568 -4.980071 158.32783095 -4.98416585 157.63664728 C-4.99380655 155.38401547 -4.98196068 153.13200893 -4.97021484 150.87939453 C-4.97264221 149.26645167 -4.976361 147.65351031 -4.98127747 146.04057312 C-4.99069692 141.65637871 -4.98125264 137.27240712 -4.96794534 132.88823009 C-4.95664649 128.30606592 -4.96073708 123.72391298 -4.96269226 119.14173889 C-4.96357564 111.44715728 -4.95248486 103.7526637 -4.93408203 96.05810547 C-4.91290621 87.1529267 -4.90940586 78.24787686 -4.91564399 69.34267801 C-4.92133161 60.78633729 -4.91569959 52.23004212 -4.90447044 43.67370796 C-4.89981723 40.02740197 -4.89895371 36.38112376 -4.90105629 32.7348156 C-4.90293506 28.44452037 -4.89486712 24.15435703 -4.8789959 19.86409187 C-4.87474079 18.28624136 -4.87391068 16.70837749 -4.8766861 15.13052368 C-4.87989096 12.98330795 -4.8708696 10.83649054 -4.8585968 8.6893158 C-4.85654393 7.48566344 -4.85449106 6.28201109 -4.85237598 5.04188442 C-4.51346831 1.31425567 -3.76006013 0.35158912 0 0 Z " fill="#009BFF" transform="translate(469.597900390625,27.757080078125)"/>
<path d="M0 0 C6.03723776 5.09811189 9.59927953 11.87464174 11.8125 19.375 C12 22.875 12 22.875 11.8125 25.375 C7.27618779 25.375 5.49878078 22.4738797 2.359375 19.41796875 C-4.24063052 14.12379254 -9.99655318 14.06614578 -17.95898438 14.58007812 C-23.21298113 14.77396999 -26.00489435 13.87446821 -30.1875 10.375 C-31.79368744 7.16262512 -31.79989429 3.84982151 -31.1875 0.375 C-23.11188264 -8.62354506 -9.36805942 -4.77587343 0 0 Z " fill="#17357E" transform="translate(284.1875,112.625)"/>
</svg>
