<?xml version="1.0" encoding="UTF-8"?>
<svg version="1.1" xmlns="http://www.w3.org/2000/svg" width="1170" height="560">
<path d="M0 0 C1.61130295 0.03543159 1.61130295 0.03543159 3.25515747 0.07157898 C8.27847503 0.26819046 13.29406902 0.50838533 18.31152344 0.82177734 C19.38062958 0.8859938 20.44973572 0.95021027 21.55123901 1.01637268 C23.79158771 1.15169857 26.03183242 1.2887563 28.27197266 1.42749023 C31.6768377 1.63806774 35.08202367 1.84265824 38.48730469 2.04638672 C40.67873236 2.17949811 42.87013937 2.31295007 45.06152344 2.44677734 C46.0659549 2.5072374 47.07038635 2.56769745 48.10525513 2.62998962 C50.92265886 2.80575461 53.73820616 2.99683294 56.55371094 3.20068359 C57.94574738 3.30039963 57.94574738 3.30039963 59.36590576 3.40213013 C60.25143127 3.47624115 61.13695679 3.55035217 62.04931641 3.62670898 C62.8324118 3.69024063 63.6155072 3.75377228 64.42233276 3.81922913 C67.89412038 4.44057775 69.87973465 5.93808827 72.55371094 8.20068359 C77.32808131 17.74942434 73.34562745 37.5348301 72.8762207 48.00097656 C72.78609786 50.22031272 72.71583243 52.44054283 72.6652832 54.66113281 C72.30128701 70.06690308 70.62973278 79.26613148 59.55371094 90.20068359 C58.2836658 91.71534921 57.03048414 93.24451293 55.80371094 94.79443359 C54.72169019 96.09760788 53.63837565 97.39970912 52.55371094 98.70068359 C48.26584413 103.87113926 44.04675651 109.08154761 39.92871094 114.38818359 C35.79159342 119.71426743 31.46805077 124.84437648 27.046875 129.93603516 C22.9776914 134.64591 19.11861606 139.49764318 15.30053711 144.41210938 C12.16171453 148.44831849 8.93308373 152.3646388 5.55371094 156.20068359 C10.34448765 166.91819438 20.90399698 176.32624996 28.55371094 185.20068359 C34.86113812 192.51793026 41.12086491 199.85587327 47.20996094 207.35693359 C50.4539247 211.29294296 53.7835896 215.15279872 57.11889648 219.01147461 C60.11957835 222.49253192 63.0188828 226.02942308 65.86621094 229.63818359 C76.2836714 242.40615408 88.45030382 253.44822316 101.94824219 262.87255859 C102.47804688 263.31083984 103.00785156 263.74912109 103.55371094 264.20068359 C103.55371094 264.86068359 103.55371094 265.52068359 103.55371094 266.20068359 C99.88986972 267.30927344 96.32178432 267.46065657 92.50952148 267.6496582 C91.80817078 267.68560593 91.10682007 267.72155365 90.38421631 267.7585907 C88.86471054 267.8360931 87.34511513 267.91185346 85.82544518 267.98606682 C83.41600964 268.1042249 81.00692314 268.22800275 78.59785461 268.35340881 C71.74932299 268.70910894 64.9003831 269.05633447 58.05102539 269.39575195 C53.85743596 269.60395931 49.6643173 269.82012979 45.47138405 270.0411396 C43.87803355 270.12351576 42.28452242 270.20284596 40.69086266 270.27900505 C38.45548437 270.38598676 36.22083775 270.50308236 33.98608398 270.62231445 C32.71685593 270.6859166 31.44762787 270.74951874 30.13993835 270.81504822 C23.20864544 271.54164973 23.20864544 271.54164973 17.55371094 275.20068359 C16.58103739 286.1030764 17.91878446 297.4783144 18.55371094 308.38818359 C19.74076763 328.91669598 19.74076763 328.91669598 19.55371094 338.20068359 C15.27487283 335.87540004 11.87357507 332.9074961 8.36621094 329.57568359 C7.21051518 328.49175901 6.05425997 327.40843064 4.89746094 326.32568359 C4.33027344 325.79330078 3.76308594 325.26091797 3.17871094 324.71240234 C0.94029046 322.6300256 -1.34564831 320.60315008 -3.63378906 318.57568359 C-23.55679076 300.69026161 -23.55679076 300.69026161 -27.44628906 292.20068359 C-28.10628906 292.20068359 -28.76628906 292.20068359 -29.44628906 292.20068359 C-31.22363281 290.28662109 -31.22363281 290.28662109 -33.38378906 287.57568359 C-34.19332031 286.56505859 -35.00285156 285.55443359 -35.83691406 284.51318359 C-38.90182387 280.63250079 -41.94556076 276.73515835 -44.99121094 272.83935547 C-48.89268768 267.8664607 -52.87294431 262.96068011 -56.88378906 258.07568359 C-57.47506592 257.35300293 -58.06634277 256.63032227 -58.67553711 255.88574219 C-61.46646022 252.49953408 -64.25655532 249.22583648 -67.44628906 246.20068359 C-74.11527468 254.2374783 -80.77801581 262.27384103 -87.19628906 270.51318359 C-100.80034646 287.9655103 -100.80034646 287.9655103 -105.44628906 292.20068359 C-105.77628906 292.20068359 -106.10628906 292.20068359 -106.44628906 292.20068359 C-105.70693649 278.43661571 -104.00370383 264.76521319 -102.44628906 251.07568359 C-102.03405687 247.44155685 -101.6226969 243.80733825 -101.21337891 240.17288208 C-100.96027928 237.92648498 -100.70551711 235.68027428 -100.44873047 233.43429565 C-100.10148056 230.35769143 -99.7722587 227.27960714 -99.44628906 224.20068359 C-99.32157227 223.12175842 -99.19685547 222.04283325 -99.06835938 220.93121338 C-98.9584668 219.87561218 -98.84857422 218.82001099 -98.73535156 217.73242188 C-98.57993896 216.3178923 -98.57993896 216.3178923 -98.42138672 214.87478638 C-98.45019877 211.78084509 -98.90252134 209.88456104 -100.44628906 207.20068359 C-102.34394689 206.21938138 -102.34394689 206.21938138 -104.67626953 205.99609375 C-105.57665955 205.8579425 -106.47704956 205.71979126 -107.40472412 205.57745361 C-108.40844055 205.45311951 -109.41215698 205.3287854 -110.44628906 205.20068359 C-111.52009827 205.05846375 -112.59390747 204.9162439 -113.70025635 204.76971436 C-117.38590078 204.30525246 -121.07462438 203.88512665 -124.76660156 203.47412109 C-126.1199864 203.3204085 -127.47332843 203.16631854 -128.82662964 203.01187134 C-132.35407617 202.61030603 -135.88207293 202.2138012 -139.41021729 201.81842041 C-143.0241565 201.412494 -146.63754029 201.0016836 -150.25097656 200.59130859 C-157.31555067 199.78970717 -164.38071886 198.9934613 -171.44628906 198.20068359 C-170.63165292 194.31537833 -169.19695804 192.53689205 -166.44628906 189.63818359 C-162.39727559 185.2698473 -158.59494294 180.77397352 -154.85253906 176.14208984 C-153.10254287 174.00288996 -151.33735426 171.88916409 -149.54003906 169.79052734 C-148.80019775 168.92584839 -148.80019775 168.92584839 -148.04541016 168.04370117 C-147.08781089 166.92766507 -146.1273538 165.81407246 -145.16357422 164.70336914 C-142.57973068 161.68793959 -140.37958042 158.67036544 -138.44628906 155.20068359 C-145.79641467 142.81622538 -156.27496446 132.40787836 -165.98925781 121.86865234 C-168.21749631 119.44911833 -170.43899135 117.02558806 -172.63378906 114.57568359 C-173.18421875 113.96466797 -173.73464844 113.35365234 -174.30175781 112.72412109 C-175.44628906 111.20068359 -175.44628906 111.20068359 -175.44628906 109.20068359 C-176.10628906 109.20068359 -176.76628906 109.20068359 -177.44628906 109.20068359 C-179.24596438 107.46083128 -180.77635868 105.56077773 -182.36035156 103.62255859 C-184.40387095 101.13869114 -184.40387095 101.13869114 -186.90722656 99.02880859 C-191.81903476 94.28744169 -193.94183739 90.22773733 -194.11523438 83.49926758 C-194.04878927 79.45682099 -193.84594955 75.42687788 -193.62548828 71.39013672 C-193.37457797 66.22007628 -193.34673324 61.04770916 -193.29394531 55.87255859 C-193.25547687 52.80342332 -193.21502933 49.73432109 -193.17376709 46.66522217 C-193.14717239 44.60995948 -193.12343761 42.55465774 -193.1026001 40.49932861 C-193.0689884 37.57381161 -193.01587012 34.64924653 -192.95800781 31.72412109 C-192.95156754 30.83851501 -192.94512726 29.95290894 -192.93849182 29.04046631 C-192.79793439 23.15246836 -191.96813973 19.61403221 -187.57373047 15.40869141 C-184.98039318 13.93613771 -183.38040627 13.84115367 -180.40722656 13.87255859 C-179.37210937 13.87594238 -178.33699219 13.87932617 -177.27050781 13.8828125 C-176.13226563 13.90520996 -174.99402344 13.92760742 -173.82128906 13.95068359 C-171.30826867 13.9949793 -168.7952478 14.03924834 -166.28222656 14.08349609 C-165.60125916 14.09790741 -164.92029175 14.11231873 -164.21868896 14.12716675 C-159.29434674 14.21716869 -154.38807878 14.146044 -149.46499634 14.01135254 C-145.72217813 13.91955443 -141.97994268 13.88743684 -138.23614502 13.86291504 C-136.39252072 13.83831133 -134.54904357 13.78982176 -132.70672607 13.71618652 C-117.21470267 13.12606109 -117.21470267 13.12606109 -111.78491211 18.10522461 C-109.09198018 21.02308386 -106.80729707 24.17034133 -104.61224365 27.47387695 C-103.07237581 29.75445806 -101.323619 31.81706976 -99.52832031 33.89990234 C-98.43701321 35.22812844 -97.34713274 36.55752819 -96.25878906 37.88818359 C-95.66912354 38.60603027 -95.07945801 39.32387695 -94.47192383 40.06347656 C-91.97819033 43.10101806 -89.49202504 46.14428569 -87.01660156 49.19677734 C-80.66998031 57.01962735 -74.07101148 64.61348219 -67.44628906 72.20068359 C-58.51211068 63.36291721 -50.30705148 53.99836049 -42.44628906 44.20068359 C-33.34681908 32.99000565 -24.00870872 21.99094208 -14.59350586 11.04516602 C-13.89028198 10.22689331 -13.89028198 10.22689331 -13.17285156 9.39208984 C-12.7065332 8.86631348 -12.24021484 8.34053711 -11.75976562 7.79882812 C-10.4082146 6.23543246 -10.4082146 6.23543246 -9.40625 4.45800781 C-6.75139142 0.28765729 -4.62180354 -0.11597756 0 0 Z " fill="#FBB028" transform="translate(652.4462890625,125.79931640625)"/>
<path d="M0 0 C13.93514011 0.97111741 27.83127678 2.224705 41.71716309 3.73791504 C43.31435284 3.91176378 44.91176539 4.08357847 46.50939941 4.2532959 C48.78047591 4.49565625 51.05045041 4.74654499 53.3203125 5 C53.99238739 5.07083801 54.66446228 5.14167603 55.35690308 5.21466064 C66.38976442 6.48165685 66.38976442 6.48165685 70.4128418 10.27514648 C75.70325009 19.35778716 71.01457826 35.33005008 69.6875 45.4375 C69.22002817 49.07616853 68.75895834 52.71561888 68.30078125 56.35546875 C68.18690063 57.25717804 68.07302002 58.15888733 67.95568848 59.08792114 C67.24726607 64.77685157 66.62886299 70.46693892 66.10546875 76.17578125 C66.00853981 77.22245216 66.00853981 77.22245216 65.90965271 78.29026794 C65.61413059 81.51708706 65.33543206 84.74435622 65.0769043 87.97436523 C64.97676025 89.10173096 64.87661621 90.22909668 64.7734375 91.390625 C64.69528809 92.36032227 64.61713867 93.33001953 64.53662109 94.32910156 C62.67839253 103.57797351 52.95852197 110.29855894 46.140625 116.13671875 C43.66813514 118.28886777 41.27728643 120.51980719 38.875 122.75 C32.52031797 128.52936102 25.85229173 133.82453246 19 139 C18.32050293 139.5146582 17.64100586 140.02931641 16.94091797 140.55957031 C1.24374943 152.37108756 -15.28483615 162.63304001 -33.0390625 171.06005859 C-35.04872656 172.02335623 -37.04005843 173.01867029 -39.03125 174.01953125 C-84.7867775 196.70786473 -138.60406824 200.75337283 -188 189 C-188.70721191 188.83274414 -189.41442383 188.66548828 -190.14306641 188.49316406 C-234.70093509 177.79927558 -277.29154099 155.78000983 -309.37109375 122.62890625 C-311.08042348 120.85313819 -311.08042348 120.85313819 -313.5625 119 C-317.16171013 116.04680194 -320.00609579 112.55307698 -323 109 C-324.14855469 107.66582031 -324.14855469 107.66582031 -325.3203125 106.3046875 C-364 60.83483542 -364 60.83483542 -364 42 C-356.98329573 43.69471247 -350.26330616 45.95020792 -343.53027344 48.52807617 C-337.30503015 50.90623466 -331.03331507 53.13209845 -324.73388672 55.30566406 C-320.31170047 56.83266442 -315.90944407 58.39625229 -311.52734375 60.03515625 C-310.63305664 60.36394775 -309.73876953 60.69273926 -308.81738281 61.03149414 C-307.11027671 61.6601694 -305.40744732 62.30062929 -303.70996094 62.95483398 C-298.80002204 64.7433673 -295.18772797 65.56217655 -290 64 C-287.29613406 61.05770686 -286.12749076 58.00816215 -284.87109375 54.25 C-284.48034668 53.09653076 -284.08959961 51.94306152 -283.68701172 50.75463867 C-283.27467285 49.51560791 -282.86233398 48.27657715 -282.4375 47 C-281.55678603 44.39077148 -280.67078389 41.78334538 -279.78515625 39.17578125 C-279.44581055 38.17325066 -279.44581055 38.17325066 -279.09960938 37.15046692 C-276.60631522 29.80033372 -273.99692661 22.4925361 -271.375 15.1875 C-270.71842407 13.35541992 -270.71842407 13.35541992 -270.04858398 11.48632812 C-269.03377855 8.65704976 -268.01768358 5.8282441 -267 3 C-263.5588555 4.14704817 -263.45320336 4.48010582 -261.90625 7.54296875 C-261.32967651 8.64838013 -261.32967651 8.64838013 -260.74145508 9.77612305 C-260.3317749 10.57187744 -259.92209473 11.36763184 -259.5 12.1875 C-246.69528463 35.99792115 -226.36708046 56.09979792 -202 68 C-200.86175781 68.57363281 -199.72351563 69.14726562 -198.55078125 69.73828125 C-170.67373585 83.49961934 -137.37558825 88.63560094 -107 81 C-106.35192383 80.83902832 -105.70384766 80.67805664 -105.03613281 80.51220703 C-70.64057206 71.61857098 -37.70683096 47.39010867 -15.6875 19.8125 C-11.51477566 14.62711795 -7.25735643 9.52300477 -2.96875 4.43359375 C-0.99891908 2.17688964 -0.99891908 2.17688964 0 0 Z " fill="#2063AF" transform="translate(470,334)"/>
<path d="M0 0 C4.33326318 0.74794429 6.98217129 2.05375947 10.625 4.5625 C11.68074219 5.28953125 12.73648438 6.0165625 13.82421875 6.765625 C14.87222656 7.50296875 15.92023438 8.2403125 17 9 C17.91394531 9.63421875 18.82789063 10.2684375 19.76953125 10.921875 C26.67254855 15.81361786 33.11961327 21.16780121 39.50585938 26.70556641 C40.85763645 27.87666478 42.21742476 29.03850021 43.578125 30.19921875 C47.82538029 33.8758394 51.66056029 37.68110788 55.28125 41.9765625 C56.39655258 43.28957781 57.54137257 44.57828434 58.71875 45.8359375 C96.19649078 86.01334605 117.93913921 144.67599751 118.203125 199.36328125 C118.20882507 200.31655807 118.21452515 201.2698349 118.22039795 202.2519989 C118.22977569 204.25954099 118.23635284 206.26709797 118.24023438 208.2746582 C118.24985496 211.26738201 118.28091364 214.25939216 118.3125 217.25195312 C118.6274761 274.85906527 96.26239897 331.39364422 59 375 C58.36320312 375.74894531 57.72640625 376.49789063 57.0703125 377.26953125 C45.25900128 390.75832441 32.51959502 403.45188769 18 414 C17.45005371 414.47356934 16.90010742 414.94713867 16.33349609 415.43505859 C13.15148629 418.0506185 11.65214274 418.99217713 7.41796875 419.04296875 C5.93560126 418.73937704 4.46346295 418.38452242 3 418 C1.50847412 417.62609131 1.50847412 417.62609131 -0.01318359 417.24462891 C-3.58486392 416.31151514 -7.13589661 415.3192592 -10.6875 414.3125 C-11.98312239 413.94905879 -13.27885944 413.5860261 -14.57470703 413.22338867 C-17.16881544 412.49620628 -19.7618548 411.76538537 -22.35400391 411.03125 C-25.58183148 410.11827667 -28.81182716 409.2136544 -32.04296875 408.3125 C-37.03998141 406.91265774 -42.02466562 405.4749979 -47 404 C-48.13405273 403.66572998 -48.13405273 403.66572998 -49.29101562 403.32470703 C-51.40822067 402.69224082 -53.517365 402.03857208 -55.625 401.375 C-56.79289063 401.01148438 -57.96078125 400.64796875 -59.1640625 400.2734375 C-62.38511173 398.82707104 -63.53492249 398.21070178 -65 395 C-66.14310811 386.10811806 -62.91824952 377.73185954 -60.375 369.3125 C-59.43590633 366.17311459 -58.50178971 363.0322781 -57.5703125 359.890625 C-57.22619324 358.73603539 -57.22619324 358.73603539 -56.87512207 357.55812073 C-55.57533117 353.1439568 -54.44228732 348.74008856 -53.4921875 344.234375 C-51.02172202 332.72242655 -48.0137348 326.01947635 -38.2421875 319.046875 C-35 317 -35 317 -32.6953125 315.953125 C-30.45771829 314.69512273 -30.04986601 313.30095635 -29 311 C-27.625 309.5703125 -27.625 309.5703125 -26 308.125 C-20.47843688 302.76481868 -16.28839913 296.35297574 -12 290 C-11.44183594 289.17628906 -10.88367188 288.35257812 -10.30859375 287.50390625 C10.65690407 254.54180205 14.92030624 214.8573005 6.9375 177.25 C-0.33097094 144.98714885 -19.80878184 115.30236959 -47.66796875 97.2734375 C-48.39628906 96.83257812 -49.12460937 96.39171875 -49.875 95.9375 C-51.421875 94.9784375 -51.421875 94.9784375 -53 94 C-53 93.34 -53 92.68 -53 92 C-49.1471607 91.26371327 -45.2926862 90.5363961 -41.4375 89.8125 C-39.64856323 89.47629639 -39.64856323 89.47629639 -37.82348633 89.13330078 C-31.06686453 87.88147597 -24.30686457 86.70878528 -17.515625 85.66015625 C-16.46961876 85.49750023 -16.46961876 85.49750023 -15.40248108 85.33155823 C-11.99795024 84.80361388 -8.59221173 84.28753011 -5.18334961 83.78833008 C-3.94077393 83.59779053 -2.69819824 83.40725098 -1.41796875 83.2109375 C0.22522339 82.96802979 0.22522339 82.96802979 1.90161133 82.72021484 C5.31204776 81.92746506 7.99409026 80.78991522 11 79 C12.99991651 73.75523903 11.4214005 68.17570467 10.4375 62.8125 C10.25912598 61.79236816 10.08075195 60.77223633 9.89697266 59.72119141 C9.49648645 57.43178456 9.09194106 55.14308535 8.68408203 52.85498047 C7.52041516 46.29741446 6.39609816 39.73310777 5.26980591 33.16903687 C4.88486149 30.93230061 4.49639009 28.69620213 4.10717773 26.46020508 C2.58189467 17.65844618 1.20609148 8.8522563 0 0 Z " fill="#FBB028" transform="translate(968,64)"/>
<path d="M0 0 C0.80969238 0.30776367 1.61938477 0.61552734 2.45361328 0.93261719 C33.01050725 12.67797559 60.89241263 29.22774071 84.6796875 51.85546875 C87.00315235 54.11577116 87.00315235 54.11577116 90 56 C90 56.66 90 57.32 90 58 C90.58789307 58.25740967 91.17578613 58.51481934 91.78149414 58.7800293 C94.19038437 60.1046936 95.64314217 61.49801165 97.49609375 63.51953125 C98.13740234 64.21240234 98.77871094 64.90527344 99.43945312 65.61914062 C100.42848633 66.70485352 100.42848633 66.70485352 101.4375 67.8125 C102.74796188 69.23635485 104.05914455 70.65954671 105.37109375 72.08203125 C105.98968262 72.7570166 106.60827148 73.43200195 107.24560547 74.12744141 C108.78024382 75.76544255 110.35386305 77.33292817 111.97265625 78.88671875 C114 81 114 81 114 83 C113.10464035 82.99555878 112.2092807 82.99111755 111.28678894 82.98654175 C102.85538429 82.94649392 94.42401152 82.91603031 85.99253368 82.89637566 C81.65766027 82.88593138 77.32286535 82.87176047 72.98803711 82.84912109 C68.80592895 82.82741562 64.62389636 82.81543622 60.44173622 82.81024551 C58.84491091 82.80654562 57.24808982 82.7993208 55.65129662 82.78853989 C53.41742335 82.77405535 51.18386372 82.77202076 48.94995117 82.77294922 C47.67754074 82.768508 46.40513031 82.76406677 45.09416199 82.75949097 C41.83125934 82.75965117 41.83125934 82.75965117 39 85 C38.10943012 87.67170965 37.85908542 89.28498796 37.81054688 92.03051758 C37.78541771 93.2460305 37.78541771 93.2460305 37.75978088 94.48609924 C37.74624069 95.36338181 37.7327005 96.24066437 37.71875 97.14453125 C37.70065781 98.05875351 37.68256561 98.97297577 37.66392517 99.91490173 C37.6254408 101.87002987 37.58891862 103.82519743 37.5541687 105.78039551 C37.46443908 110.80303013 37.35984632 115.82534081 37.25390625 120.84765625 C37.23344742 121.82519867 37.21298859 122.80274109 37.19190979 123.80990601 C36.97311768 133.88267394 36.56554092 143.94059133 36 154 C31.96212521 150.64628102 28.18712796 147.29767395 24.75 143.3125 C7.49008161 123.90235609 -11.94353118 110.7179097 -36 101 C-36.63462158 100.73928711 -37.26924316 100.47857422 -37.9230957 100.20996094 C-43.00092097 98.20231648 -48.09200334 96.95359093 -53.4375 95.875 C-54.23220703 95.70613281 -55.02691406 95.53726563 -55.84570312 95.36328125 C-74.14270413 91.58180179 -94.70849623 91.03045048 -113 95 C-114.89298828 95.4021875 -114.89298828 95.4021875 -116.82421875 95.8125 C-142.81692538 101.66614463 -165.05658267 114.19874715 -184 133 C-184.33 133.66 -184.66 134.32 -185 135 C-185.66 135 -186.32 135 -187 135 C-187.226875 135.515625 -187.45375 136.03125 -187.6875 136.5625 C-188.120625 137.366875 -188.55375 138.17125 -189 139 C-189.93416748 140.74047607 -189.93416748 140.74047607 -190.88720703 142.51611328 C-193.2436323 145.75843019 -195.10407373 146.63733389 -199.01123047 147.42138672 C-201.04229837 147.70630383 -203.07835047 147.95707092 -205.1171875 148.1796875 C-206.20653595 148.32278351 -207.2958844 148.46587952 -208.41824341 148.61331177 C-211.90085132 149.06307075 -215.38704711 149.46902041 -218.875 149.875 C-221.18264394 150.16912419 -223.48994242 150.46597239 -225.796875 150.765625 C-232.19063724 151.58254522 -238.59086742 152.31494354 -245 153 C-245.8314856 153.09156372 -246.66297119 153.18312744 -247.51965332 153.27746582 C-249.61859084 153.5010007 -251.71756205 153.69915696 -253.8203125 153.8828125 C-255.46797607 154.03194092 -255.46797607 154.03194092 -257.14892578 154.18408203 C-260.78440802 153.94935403 -262.27352676 153.45226397 -265 151 C-268.70358529 144.01702861 -269.08903636 135.50619263 -270.04296875 127.8046875 C-270.21737829 126.44417935 -270.39246515 125.08375788 -270.56819153 123.72341919 C-270.93249972 120.88839496 -271.29078309 118.05269988 -271.64428711 115.21630859 C-272.09563978 111.59631136 -272.55887508 107.97796166 -273.02622509 104.3599987 C-273.38755822 101.55678164 -273.74423044 98.75298763 -274.09935951 95.94897842 C-274.35025424 93.97080126 -274.60371175 91.99294968 -274.85722351 90.0151062 C-275.00770645 88.80339752 -275.15818939 87.59168884 -275.31323242 86.34326172 C-275.44630295 85.2845285 -275.57937347 84.22579529 -275.71647644 83.13497925 C-276.55083401 73.90931328 -276.55083401 73.90931328 -274.27734375 70.15625 C-273.50519531 69.2796875 -272.73304688 68.403125 -271.9375 67.5 C-271.11636719 66.55898437 -270.29523438 65.61796875 -269.44921875 64.6484375 C-266.38431179 61.33423189 -263.2653456 58.11616737 -260 55 C-259.21625 54.21625 -258.4325 53.4325 -257.625 52.625 C-256.75875 51.75875 -255.8925 50.8925 -255 50 C-254.40058594 49.36578125 -253.80117187 48.7315625 -253.18359375 48.078125 C-234.67016621 28.84870854 -210.37249239 14.46689958 -186 4 C-184.9378125 3.52175781 -183.875625 3.04351562 -182.78125 2.55078125 C-170.60799564 -2.67220289 -157.81757848 -5.77039119 -145 -9 C-143.73414063 -9.33128906 -142.46828125 -9.66257812 -141.1640625 -10.00390625 C-95.85619922 -20.90290107 -43.29926856 -16.57737467 0 0 Z " fill="#80AEDD" transform="translate(412,47)"/>
<path d="M0 0 C2.41860883 2.41860883 2.4709685 3.58715178 3.02148438 6.91772461 C3.1950647 7.94316879 3.36864502 8.96861298 3.54748535 10.02513123 C3.72775269 11.13961136 3.90802002 12.25409149 4.09375 13.40234375 C4.28594116 14.54981583 4.47813232 15.6972879 4.67614746 16.87953186 C5.29167489 20.56430713 5.89608077 24.25080614 6.5 27.9375 C7.10640573 31.59161315 7.715047 35.24534913 8.32385254 38.89906311 C8.70201866 41.17383617 9.07834642 43.4489159 9.45251465 45.72434998 C10.44221437 51.73285968 11.4809354 57.72803393 12.59986877 63.71391296 C13.60657306 69.46556011 14.23551208 74.80353409 11.3125 80 C1.82108521 85.73066553 -11.67569197 86.24164098 -22.5625 88.0625 C-24.08794997 88.32061309 -25.61334091 88.57907525 -27.13867188 88.83789062 C-30.76522739 89.45233952 -34.39268021 90.06126375 -38.02053833 90.66796875 C-39.88837211 90.98127574 -41.75560783 91.29814217 -43.62280273 91.61523438 C-44.68571533 91.79505859 -45.74862793 91.97488281 -46.84375 92.16015625 C-47.75447266 92.31492432 -48.66519531 92.46969238 -49.60351562 92.62915039 C-57.13473083 93.794586 -62.25642833 92.43553746 -69.421875 90.0859375 C-90.57105254 83.66730065 -115.36938691 82.30581023 -137 87 C-138.89298828 87.4021875 -138.89298828 87.4021875 -140.82421875 87.8125 C-168.10919263 93.95791362 -197.03135765 107.90261042 -214.65234375 130.328125 C-215.42707031 131.20984375 -216.20179688 132.0915625 -217 133 C-217.99 133 -218.98 133 -220 133 C-219.94465088 131.90872803 -219.88930176 130.81745605 -219.83227539 129.69311523 C-219.75405214 128.14827559 -219.67584733 126.60343502 -219.59765625 125.05859375 C-219.55577179 124.2320076 -219.51388733 123.40542145 -219.47073364 122.55378723 C-219.24092015 118.00771106 -219.01401196 113.46151487 -218.79223633 108.91503906 C-218.70269179 107.0826796 -218.61309244 105.25032281 -218.5234375 103.41796875 C-218.47920151 102.51329865 -218.43496552 101.60862854 -218.38938904 100.67654419 C-218.13671365 95.56980787 -217.85498512 90.46648459 -217.5390625 85.36328125 C-217.478396 84.3050415 -217.41772949 83.24680176 -217.35522461 82.15649414 C-217.24640633 80.27078584 -217.12554083 78.38571944 -216.99047852 76.50170898 C-216.71556045 71.81643434 -216.71556045 71.81643434 -218.30078125 67.484375 C-221.48797005 64.7001641 -224.92418043 64.78117891 -228.98095703 64.53515625 C-230.21298859 64.45837646 -231.44502014 64.38159668 -232.71438599 64.30249023 C-234.0621938 64.22247628 -235.41000267 64.14247998 -236.7578125 64.0625 C-238.14446535 63.97705916 -239.53109227 63.89119664 -240.91769409 63.80493164 C-244.5735277 63.57833731 -248.2296171 63.35620136 -251.88580322 63.13537598 C-257.71596001 62.78289996 -263.54580212 62.42539061 -269.37545395 62.06466675 C-271.40082926 61.94023294 -273.42636476 61.81872625 -275.45193481 61.69750977 C-281.9961681 61.29584141 -288.49202058 60.80011062 -295 60 C-291.11622501 51.77787426 -282.84904723 45.79441518 -276 40 C-275.11699219 39.23945312 -274.23398437 38.47890625 -273.32421875 37.6953125 C-260.43162168 26.73233592 -246.62203256 17.50504252 -232 9 C-231.32130859 8.60425781 -230.64261719 8.20851563 -229.94335938 7.80078125 C-209.29384063 -4.07421187 -187.05694099 -11.40373613 -164 -17 C-162.73542969 -17.32613281 -161.47085938 -17.65226562 -160.16796875 -17.98828125 C-109.12829235 -30.26045991 -46.76526974 -24.2613214 0 0 Z " fill="#FBB028" transform="translate(954,55)"/>
<path d="M0 0 C0.74556152 0.3808374 1.49112305 0.7616748 2.25927734 1.15405273 C3.04512207 1.56341064 3.8309668 1.97276855 4.640625 2.39453125 C13.82555703 6.95483839 22.90043505 9.97433766 32.890625 12.20703125 C33.93734375 12.45195312 34.9840625 12.696875 36.0625 12.94921875 C63.99105672 18.34282891 93.15711571 12.42174485 118.59765625 0.66015625 C121.087117 -0.43839582 123.23889323 -1.28533244 125.890625 -1.79296875 C125.26916514 4.95631603 123.6335162 11.15104347 121.73046875 17.64453125 C121.09545974 19.86060736 120.46070173 22.0767554 119.82617188 24.29296875 C118.82702621 27.75667371 117.82453946 31.21935075 116.81713867 34.68066406 C115.84159378 38.04105972 114.87908596 41.4049854 113.91796875 44.76953125 C113.61487289 45.7968335 113.31177704 46.82413574 112.99949646 47.88256836 C111.40585197 53.48846186 110.25785 58.37385455 110.890625 64.20703125 C112.86668022 66.71548517 114.63408115 67.68545549 117.67407227 68.53808594 C118.8104287 68.86456871 118.8104287 68.86456871 119.96974182 69.19764709 C120.79054733 69.42246262 121.61135284 69.64727814 122.45703125 69.87890625 C123.31574326 70.12237289 124.17445526 70.36583954 125.05918884 70.61668396 C127.85455132 71.40646214 130.65366796 72.18190476 133.453125 72.95703125 C135.366095 73.4944531 137.27885516 74.03262244 139.19140625 74.5715332 C150.97011928 77.88095162 162.7679512 81.1248887 174.59985352 84.23925781 C175.55174561 84.49030273 176.5036377 84.74134766 177.484375 85 C178.29583984 85.21164795 179.10730469 85.4232959 179.94335938 85.64135742 C181.890625 86.20703125 181.890625 86.20703125 183.890625 87.20703125 C182.55684748 90.3769883 181.44821115 91.81616533 178.41796875 93.43359375 C177.33515625 94.01415527 177.33515625 94.01415527 176.23046875 94.60644531 C175.04130859 95.21311035 175.04130859 95.21311035 173.828125 95.83203125 C172.99539063 96.26225586 172.16265625 96.69248047 171.3046875 97.13574219 C124.29630311 120.82920679 69.04982653 131.8707313 16.890625 122.20703125 C16.21273926 122.08424805 15.53485352 121.96146484 14.83642578 121.83496094 C-21.95587524 115.00868684 -68.04489671 97.27150954 -95.109375 70.20703125 C-96.02207961 64.26286872 -96.3785977 58.33913661 -96.64453125 52.3359375 C-96.68750839 51.41417221 -96.73048553 50.49240692 -96.77476501 49.54270935 C-96.86445114 47.60398142 -96.95260751 45.66518217 -97.03930664 43.72631836 C-97.17133649 40.78154205 -97.30892418 37.83706396 -97.44726562 34.89257812 C-97.53418482 32.99871306 -97.62078394 31.10483328 -97.70703125 29.2109375 C-97.74764175 28.34191299 -97.78825226 27.47288849 -97.83009338 26.57752991 C-98.01111773 22.47458365 -98.15481864 18.37196626 -98.21655273 14.26538086 C-98.22814926 13.55441757 -98.23974579 12.84345428 -98.25169373 12.11094666 C-98.03444187 9.20458869 -96.92775062 7.42949034 -95.109375 5.20703125 C-89.76877316 1.64663002 -82.78782162 2.06462937 -76.50341797 1.72631836 C-75.79012329 1.68715805 -75.07682861 1.64799774 -74.34191895 1.60765076 C-72.01194044 1.4804601 -69.68176873 1.35731712 -67.3515625 1.234375 C-65.71826105 1.14632417 -64.0849706 1.05806902 -62.45169067 0.96961975 C-59.04096518 0.78551613 -55.6301449 0.60332355 -52.21923828 0.42260742 C-47.85694764 0.19140969 -43.49488019 -0.04372166 -39.13287163 -0.28017521 C-35.76484894 -0.46245773 -32.39673927 -0.64308772 -29.02859879 -0.82317924 C-27.42028752 -0.90928971 -25.81199806 -0.99580839 -24.20373154 -1.08275032 C-21.95475095 -1.20399378 -19.70566771 -1.32311501 -17.45654297 -1.44165039 C-16.17939423 -1.50969376 -14.90224548 -1.57773712 -13.58639526 -1.64784241 C-3.86649882 -2.05353835 -3.86649882 -2.05353835 0 0 Z " fill="#FBB028" transform="translate(779.109375,403.79296875)"/>
<path d="M0 0 C0.66 0 1.32 0 2 0 C2.3897168 3.01493378 2.77918424 6.0298992 3.16821289 9.04492188 C3.51856915 11.75868626 3.87087944 14.47218846 4.22436523 17.18554688 C5.16175904 24.39804481 6.08034919 31.61203818 6.95152283 38.83287048 C7.37761818 42.35798801 7.81156154 45.88212194 8.2460022 49.40621948 C8.45596213 51.12689488 8.66219763 52.84802908 8.86459351 54.5696106 C9.15144985 57.00601339 9.45138433 59.44049963 9.75390625 61.875 C9.83510712 62.59364731 9.91630798 63.31229462 9.99996948 64.05271912 C10.61807339 68.88724363 11.81683467 72.68948009 14 77 C23.27120284 81.63560142 43.96100722 75.26932845 54 73.9375 C58.20776831 73.37970244 62.41616694 72.82704237 66.625 72.27734375 C67.57818115 72.14923813 68.5313623 72.02113251 69.51342773 71.8891449 C74.04443398 71.29756685 78.41785515 70.84443923 83 71 C82.40296203 74.64712322 81.37870856 77.56604147 79.75 80.875 C65.58677968 111.56878005 64.36935487 145.23780255 71.53515625 177.8503418 C71.68855469 178.559729 71.84195313 179.26911621 72 180 C72.20279572 180.7710054 72.40559143 181.5420108 72.61453247 182.33638 C73.05139567 185.3551493 72.65926807 186.91770253 71.63232422 189.76757812 C71.30803436 190.68623657 70.98374451 191.60489502 70.64962769 192.5513916 C70.28829742 193.53474487 69.92696716 194.51809814 69.5546875 195.53125 C69.18779816 196.55875366 68.82090881 197.58625732 68.44290161 198.64489746 C67.26507214 201.93418463 66.07014263 205.21696919 64.875 208.5 C64.09265577 210.67929499 63.311394 212.8589789 62.53125 215.0390625 C60.6948486 220.15914004 58.83435369 225.26991986 56.95935059 230.37597656 C56.11825772 232.67654054 55.29129444 234.98147867 54.46972656 237.2890625 C54.04916992 238.44148437 53.62861328 239.59390625 53.1953125 240.78125 C52.68895264 242.18987305 52.68895264 242.18987305 52.17236328 243.62695312 C50.79762444 246.40963984 49.43098717 248.06958335 47 250 C39.61256333 251.79629704 32.55052721 248.76149572 25.8125 246 C23.69501449 245.1680129 21.57649606 244.33865063 19.45703125 243.51171875 C18.38662598 243.09067871 17.3162207 242.66963867 16.21337891 242.23583984 C11.18498435 240.30195949 6.09527109 238.56040063 1 236.8125 C-0.4243335 236.30565674 -0.4243335 236.30565674 -1.87744141 235.78857422 C-6.15311263 234.27159255 -10.37292182 232.86427136 -14.78515625 231.80078125 C-24.36112572 229.3140685 -24.36112572 229.3140685 -27.16503906 225.35498047 C-29.76700715 220.18911546 -30.82862773 214.62279313 -32 209 C-32.44273317 207.15890204 -32.89077441 205.31907351 -33.34375 203.48046875 C-38.06169939 183.60453007 -40.52230769 163.89758656 -40.39111328 143.46826172 C-40.37500277 140.50050953 -40.391098 137.53411836 -40.41015625 134.56640625 C-40.42403591 121.16134888 -39.15577419 108.22230069 -37 95 C-36.88001144 94.24751984 -36.76002289 93.49503967 -36.63639832 92.71975708 C-31.8362109 62.78068382 -20.66683708 33.59066064 -5 7.6875 C-4.29665527 6.52142212 -4.29665527 6.52142212 -3.57910156 5.33178711 C-2.44690802 3.51516136 -1.23140074 1.75089792 0 0 Z " fill="#80AEDD" transform="translate(125,135)"/>
<path d="M0 0 C7.66481443 7.58327385 14.75003244 15.59738532 21.51953125 23.984375 C24.44968489 27.54670352 27.46765967 31.02467961 30.5 34.5 C34.99525353 39.65559878 39.38623836 44.87511636 43.69140625 50.19140625 C46.91986641 54.11909298 50.24074467 57.96472925 53.56542969 61.81103516 C56.56599767 65.2920365 59.46524384 68.82883071 62.3125 72.4375 C72.72996046 85.20547049 84.89659288 96.24753957 98.39453125 105.671875 C98.92433594 106.11015625 99.45414063 106.5484375 100 107 C100 107.66 100 108.32 100 109 C96.33615878 110.10858984 92.76807338 110.25997297 88.95581055 110.44897461 C87.90378448 110.50289619 87.90378448 110.50289619 86.83050537 110.5579071 C85.3109996 110.63540951 83.7914042 110.71116987 82.27173424 110.78538322 C79.86229871 110.9035413 77.4532122 111.02731916 75.04414368 111.15272522 C68.19561205 111.50842534 61.34667216 111.85565087 54.49731445 112.19506836 C50.30372503 112.40327572 46.11060636 112.6194462 41.91767311 112.84045601 C40.32432261 112.92283216 38.73081148 113.00216237 37.13715172 113.07832146 C34.90177343 113.18530317 32.66712681 113.30239876 30.43237305 113.42163086 C29.16314499 113.485233 27.89391693 113.54883514 26.58622742 113.61436462 C19.65493451 114.34096614 19.65493451 114.34096614 14 118 C13.02732645 128.9023928 14.36507352 140.27763081 15 151.1875 C16.1870567 171.71601238 16.1870567 171.71601238 16 181 C11.7211619 178.67471645 8.31986413 175.70681251 4.8125 172.375 C3.65680424 171.29107542 2.50054904 170.20774705 1.34375 169.125 C0.49296875 168.32642578 0.49296875 168.32642578 -0.375 167.51171875 C-2.61342048 165.42934201 -4.89935925 163.40246649 -7.1875 161.375 C-27.1105017 143.48957802 -27.1105017 143.48957802 -31 135 C-31.66 135 -32.32 135 -33 135 C-34.77734375 133.0859375 -34.77734375 133.0859375 -36.9375 130.375 C-38.15179687 128.8590625 -38.15179687 128.8590625 -39.390625 127.3125 C-42.45524693 123.4321817 -45.50042137 119.53650302 -48.54272461 115.63867188 C-53.03508804 109.90566442 -57.66640462 104.28993357 -62.31713867 98.68505859 C-62.88279541 98.00266113 -63.44845215 97.32026367 -64.03125 96.6171875 C-64.53205078 96.01503418 -65.03285156 95.41288086 -65.54882812 94.79248047 C-66.02771484 94.20096191 -66.50660156 93.60944336 -67 93 C-67.5563916 92.31446045 -68.1127832 91.6289209 -68.68603516 90.92260742 C-70 89 -70 89 -69.9921875 86.62109375 C-68.68523939 83.16848674 -66.56413942 80.76048687 -64.125 78.0625 C-63.1149636 76.90949645 -62.10721923 75.75448176 -61.1015625 74.59765625 C-60.5849707 74.00484863 -60.06837891 73.41204102 -59.53613281 72.80126953 C-57.09643661 69.94048145 -54.79951031 66.97376225 -52.5 64 C-48.93391908 59.40824266 -45.28166813 54.91586093 -41.5 50.5 C-37.78762154 46.162441 -34.19281036 41.75655376 -30.6875 37.25 C-24.8106681 29.69574689 -18.71763481 22.32664393 -12.61425781 14.95507812 C-9.61360595 11.3208948 -6.64313972 7.66213631 -3.671875 4.00390625 C-2 2 -2 2 0 0 Z " fill="#80ADDC" transform="translate(656,283)"/>
<path d="M0 0 C1.03511719 0.00338379 2.07023437 0.00676758 3.13671875 0.01025391 C4.27496094 0.03265137 5.41320312 0.05504883 6.5859375 0.078125 C9.0989579 0.1224207 11.61197876 0.16668975 14.125 0.2109375 C14.80596741 0.22534882 15.48693481 0.23976013 16.1885376 0.25460815 C21.11287982 0.3446101 26.01914778 0.27348541 30.94223022 0.13879395 C34.68504843 0.04699584 38.42728389 0.01487825 42.17108154 -0.00964355 C44.01470584 -0.03424726 45.85818299 -0.08273683 47.70050049 -0.15637207 C63.1925239 -0.7464975 63.1925239 -0.7464975 68.62231445 4.23266602 C71.31524638 7.15052527 73.59992949 10.29778274 75.79498291 13.60131836 C77.33485075 15.88189947 79.08360756 17.94451116 80.87890625 20.02734375 C81.97021336 21.35556985 83.06009382 22.6849696 84.1484375 24.015625 C84.73810303 24.73347168 85.32776855 25.45131836 85.93530273 26.19091797 C88.42903623 29.22845947 90.91520152 32.2717271 93.390625 35.32421875 C94.09445312 36.19175781 94.79828125 37.05929688 95.5234375 37.953125 C96.20277344 38.79230469 96.88210938 39.63148438 97.58203125 40.49609375 C99.49397881 42.77222179 101.44118483 44.98684516 103.43359375 47.19140625 C104.03679443 47.8654248 104.63999512 48.53944336 105.26147461 49.23388672 C106.45850972 50.56691579 107.66608573 51.89056958 108.88500977 53.20361328 C109.42826904 53.81060059 109.97152832 54.41758789 110.53125 55.04296875 C111.02383301 55.58042725 111.51641602 56.11788574 112.02392578 56.67163086 C112.9609375 58.328125 112.9609375 58.328125 112.75878906 60.34619141 C111.42241894 63.66585256 108.94133564 66.127812 106.5859375 68.765625 C105.48391001 70.02433262 104.38235753 71.28345627 103.28125 72.54296875 C102.4444873 73.49405518 102.4444873 73.49405518 101.59082031 74.46435547 C99.17871731 77.22259309 96.8191939 80.02386369 94.4609375 82.828125 C90.64823617 87.34599033 86.81221869 91.84311218 82.9609375 96.328125 C77.72113559 102.43125067 72.51758527 108.56408852 67.32861328 114.71044922 C65.93634333 116.35721479 64.54088277 118.00122567 63.14453125 119.64453125 C62.67934082 120.19262451 62.21415039 120.74071777 61.73486328 121.30541992 C60.81097884 122.39360424 59.88619103 123.4810223 58.96044922 124.56762695 C56.73007942 127.19544463 54.5382745 129.84317273 52.41015625 132.5546875 C51.62253906 133.55242187 50.83492187 134.55015625 50.0234375 135.578125 C49.33378906 136.47015625 48.64414062 137.3621875 47.93359375 138.28125 C45.88224033 140.40978305 44.85081833 140.991942 41.9609375 141.328125 C41.67863281 140.85246094 41.39632812 140.37679687 41.10546875 139.88671875 C33.74153474 128.16057163 23.77058179 118.14292576 14.41796875 107.99609375 C12.18973025 105.57655974 9.96823522 103.15302947 7.7734375 100.703125 C7.22300781 100.09210938 6.67257812 99.48109375 6.10546875 98.8515625 C4.9609375 97.328125 4.9609375 97.328125 4.9609375 95.328125 C4.3009375 95.328125 3.6409375 95.328125 2.9609375 95.328125 C1.16126218 93.58827269 -0.36913212 91.68821914 -1.953125 89.75 C-3.99664438 87.26613254 -3.99664438 87.26613254 -6.5 85.15625 C-11.4118082 80.41488309 -13.53461083 76.35517873 -13.70800781 69.62670898 C-13.6415627 65.5842624 -13.43872299 61.55431928 -13.21826172 57.51757812 C-12.96735141 52.34751769 -12.93950668 47.17515057 -12.88671875 42 C-12.84825031 38.93086473 -12.80780277 35.8617625 -12.76654053 32.79266357 C-12.73994583 30.73740088 -12.71621105 28.68209914 -12.69537354 26.62677002 C-12.66176184 23.70125301 -12.60864355 20.77668794 -12.55078125 17.8515625 C-12.54434097 16.96595642 -12.5379007 16.08035034 -12.53126526 15.16790771 C-12.39070782 9.27990977 -11.56091317 5.74147362 -7.16650391 1.53613281 C-4.57316662 0.06357912 -2.97317971 -0.03140492 0 0 Z " fill="#80AEDD" transform="translate(472.0390625,139.671875)"/>
<path d="M0 0 C7.12647031 1.70022388 14.0834212 3.57919742 21 6 C20.57405412 7.44096586 20.13373367 8.87768712 19.6875 10.3125 C19.32205078 11.51326172 19.32205078 11.51326172 18.94921875 12.73828125 C17.93574511 15.15310117 17.07368667 16.41423961 15 18 C11.8125 18.1875 11.8125 18.1875 9 18 C8.34 16.35 7.68 14.7 7 13 C3.7 13.66 0.4 14.32 -3 15 C-0.06334264 19.03790387 3.31475357 22.14226695 7.09765625 25.3515625 C8.03931641 26.16753906 8.03931641 26.16753906 9 27 C9.89525391 27.72316406 9.89525391 27.72316406 10.80859375 28.4609375 C11.20175781 28.96882813 11.59492187 29.47671875 12 30 C11.67 31.32 11.34 32.64 11 34 C3.41 34 -4.18 34 -12 34 C-11.67 32.68 -11.34 31.36 -11 30 C-7.535 29.505 -7.535 29.505 -4 29 C-3.01 25.535 -3.01 25.535 -2 22 C-2.99 21.34 -3.98 20.68 -5 20 C-4.67 17.36 -4.34 14.72 -4 12 C-2.54293274 11.49632243 -1.08429904 10.99717444 0.375 10.5 C1.18710938 10.2215625 1.99921875 9.943125 2.8359375 9.65625 C5 9 5 9 7 9 C6.67 8.01 6.34 7.02 6 6 C2.48809191 4.77030122 2.48809191 4.77030122 -1 4 C-0.67 2.68 -0.34 1.36 0 0 Z " fill="#FDF2DF" transform="translate(1033,321)"/>
<path d="M0 0 C3.125 1.4375 3.125 1.4375 5 4 C5.95476741 7.06440318 6.30280593 9.80054111 6 13 C3.98549754 16.38148627 2.27152454 17.81898364 -1 20 C-5.59271203 20.73965025 -9.02462089 20.60961194 -13 18.125 C-16.2967588 14.62219377 -16.42217637 11.93744987 -16.32421875 7.265625 C-16 5 -16 5 -14.1875 1.9375 C-9.49477553 -0.91494036 -5.35217394 -0.83577491 0 0 Z " fill="#FDF5E6" transform="translate(1055,263)"/>
<path d="M0 0 C2.8974124 0.54064036 4.8754575 1.54919984 7.15625 3.40234375 C8.99968062 7.08920498 8.5119182 11.36932042 8.15625 15.40234375 C6.91045505 18.39225163 5.96604108 19.79500044 3.40625 21.71484375 C0.1351882 22.71433486 -2.44117588 22.76050945 -5.84375 22.40234375 C-8.59704021 20.6067197 -10.37002461 19.34979453 -11.84375 16.40234375 C-12.44917647 11.59352782 -12.77196687 6.89373431 -9.90625 2.77734375 C-6.29467067 -0.02347288 -4.44625174 -0.3038272 0 0 Z " fill="#FEF6E7" transform="translate(867.84375,76.59765625)"/>
<path d="M0 0 C3.0625 1.25 3.0625 1.25 5 4 C5.71764261 9.46629906 6.15500388 15.24093691 3 20 C-1.0016041 22.66773607 -4.29431148 22.71478813 -9 22 C-11.50160818 20.12379387 -12.61945652 18.76108697 -14 16 C-14.59534067 10.71847776 -14.8693614 6.43023973 -12.0625 1.8125 C-7.89681597 -0.65290483 -4.72054355 -0.86216076 0 0 Z " fill="#FEF8EE" transform="translate(831,464)"/>
<path d="M0 0 C3.8731573 1.06819219 5.37738528 2.36854697 7.96875 5.54296875 C8.97692974 10.07561157 8.29615743 13.68547311 6.65625 17.98046875 C4.96875 20.54296875 4.96875 20.54296875 1.96875 22.54296875 C-4.97802871 23.21523766 -4.97802871 23.21523766 -8.96875 20.66796875 C-12.29821249 17.23761346 -12.50123032 14.58578431 -12.43359375 9.94140625 C-11.83832021 6.39288246 -10.37694438 4.33613594 -7.875 1.8046875 C-5.20249679 -0.02416533 -3.19329822 -0.32547078 0 0 Z " fill="#FEF8EF" transform="translate(756.03125,449.45703125)"/>
<path d="M0 0 C2.75329021 1.79562405 4.52627461 3.05254922 6 6 C7.14642125 15.01174174 7.14642125 15.01174174 4.94140625 18.8359375 C2.22494017 21.38308456 -0.51182627 22.33244774 -4.125 22.5625 C-8 22 -8 22 -10.375 20.25 C-13.39312813 16.07105337 -14.45399428 13.31949513 -14.32421875 7.96875 C-13.80595067 4.82167637 -12.27224598 3.14240335 -10 1 C-6.39427296 -0.20190901 -3.7897565 -0.32670315 0 0 Z " fill="#F3F7FB" transform="translate(299,72)"/>
<path d="M0 0 C3.23124764 1.3914148 6.37285374 2.74570748 8 6 C8.31658385 10.73944653 8.19110347 15.38447404 7 20 C-0.15595346 19.29843593 -7.01855181 17.69214979 -14 16 C-13.83594462 9.28864336 -12.85033511 5.73203426 -8 1 C-5.12063188 -0.43968406 -3.20992381 -0.302823 0 0 Z " fill="#F0F5FA" transform="translate(134,233)"/>
<path d="M0 0 C0.66 0.33 1.32 0.66 2 1 C1.67 2.65 1.34 4.3 1 6 C-2.3 6 -5.6 6 -9 6 C-8.48735946 9.95755329 -8.48735946 9.95755329 -6.2578125 11.16015625 C-5.55398438 11.45792969 -4.85015625 11.75570313 -4.125 12.0625 C-1.17063815 13.33254854 0.99525612 14.43392783 3 17 C3.77669903 23.99029126 3.77669903 23.99029126 1.125 27.4375 C-2.30042034 29.95619143 -4.27809801 30.13611027 -8.5 30.125 C-9.4796875 30.12757813 -10.459375 30.13015625 -11.46875 30.1328125 C-14 30 -14 30 -16 29 C-16 27.02 -16 25.04 -16 23 C-12.37 23.33 -8.74 23.66 -5 24 C-4.67 22.68 -4.34 21.36 -4 20 C-4.61488281 19.68546875 -5.22976563 19.3709375 -5.86328125 19.046875 C-6.67152344 18.61890625 -7.47976563 18.1909375 -8.3125 17.75 C-9.11300781 17.33234375 -9.91351563 16.9146875 -10.73828125 16.484375 C-13.17308009 14.88640685 -14.47944493 13.4703024 -16 11 C-16.6667858 7.08263344 -16.31640832 5.50188906 -14.1875 2.125 C-9.59810088 -0.93459941 -5.37497523 -0.60587482 0 0 Z " fill="#F0F3F9" transform="translate(344,451)"/>
<path d="M0 0 C3.57784416 2.71916156 4.6720742 4.12107379 5.43359375 8.484375 C5.62821489 12.47115949 5.57736656 15.11174375 3.375 18.5 C-1.59558391 21.63931615 -5.05149445 22 -11 22 C-11.99 15.07 -12.98 8.14 -14 1 C-9.2072966 -0.19817585 -4.90650014 -0.80057595 0 0 Z " fill="#FDF3E0" transform="translate(794,79)"/>
<path d="M0 0 C11 0 11 0 14.625 2.375 C17.42075535 5.46504539 17.93781488 6.17604718 18.25 10.3125 C17.98118885 14.27746452 17.46797825 15.93630287 15 19 C10.22361647 23.07397418 8.10386757 22 1 22 C0.67 14.74 0.34 7.48 0 0 Z " fill="#EEF4FA" transform="translate(310,69)"/>
<path d="M0 0 C5.28 0 10.56 0 16 0 C16 1.65 16 3.3 16 5 C12.37 5 8.74 5 5 5 C5 7.31 5 9.62 5 12 C7.97 12 10.94 12 14 12 C14 13.32 14 14.64 14 16 C10.7 16 7.4 16 4 16 C4 18.64 4 21.28 4 24 C5.093125 23.979375 6.18625 23.95875 7.3125 23.9375 C11 24 11 24 14 25 C14 26.32 14 27.64 14 29 C8.72 29 3.44 29 -2 29 C-2.24468085 6.73404255 -2.24468085 6.73404255 0 0 Z " fill="#F8F9FC" transform="translate(308,451)"/>
<path d="M0 0 C2.5625 0.5 2.5625 0.5 4.875 2.375 C7.24479254 6.7635047 6.90398282 10.61489852 6.5625 15.5 C-0.49203001 16.70443195 -7.27187211 17.78100502 -14.4375 17.5 C-15.78096122 13.46961634 -15.70426927 9.70161608 -15.4375 5.5 C-14.375 3.4375 -14.375 3.4375 -12.4375 2.5 C-10.10416667 2.83333333 -7.77083333 3.16666667 -5.4375 3.5 C-1.92806604 0.39550073 -1.92806604 0.39550073 0 0 Z " fill="#E7EFF8" transform="translate(132.4375,303.5)"/>
<path d="M0 0 C0 1.65 0 3.3 0 5 C-2.31 5.33 -4.62 5.66 -7 6 C-6.7834375 7.14597656 -6.566875 8.29195313 -6.34375 9.47265625 C-6.06217548 11.00254447 -5.7809437 12.53249581 -5.5 14.0625 C-5.35691406 14.81466797 -5.21382813 15.56683594 -5.06640625 16.34179688 C-4.223569 20.97740175 -3.84984738 25.2889615 -4 30 C-6.31 30.33 -8.62 30.66 -11 31 C-11.33851178 28.31306278 -11.670936 25.62559711 -12 22.9375 C-12.09539062 22.18533203 -12.19078125 21.43316406 -12.2890625 20.65820312 C-12.84571902 16.06578683 -13.09829028 11.6257865 -13 7 C-17.455 7.495 -17.455 7.495 -22 8 C-22 6.02 -22 4.04 -22 2 C-19.08362234 1.66395648 -16.16694348 1.33106414 -13.25 1 C-12.0125 0.85691406 -12.0125 0.85691406 -10.75 0.7109375 C-9.55117188 0.57558594 -9.55117188 0.57558594 -8.328125 0.4375 C-7.22839355 0.31181641 -7.22839355 0.31181641 -6.10644531 0.18359375 C-4.07773478 0.00677521 -2.03640154 0 0 0 Z " fill="#EDF2F8" transform="translate(370,448)"/>
<path d="M0 0 C5.23419357 -0.16335585 9.86306192 0.39447963 14.9375 1.5 C15.62134766 1.64308594 16.30519531 1.78617187 17.00976562 1.93359375 C18.67449514 2.28283771 20.33744875 2.64052946 22 3 C22 4.65 22 6.3 22 8 C19.03 7.67 16.06 7.34 13 7 C12.95101563 7.75023437 12.90203125 8.50046875 12.8515625 9.2734375 C11.52173913 27.47826087 11.52173913 27.47826087 9 30 C7.00041636 30.04080783 4.99954746 30.04254356 3 30 C3.50548338 21.45907394 5.06734291 13.32622708 7 5 C4.69 5 2.38 5 0 5 C0 3.35 0 1.7 0 0 Z " fill="#EFF3F8" transform="translate(282,447)"/>
<path d="M0 0 C1.65 0.33 3.3 0.66 5 1 C4.67 6.61 4.34 12.22 4 18 C7.4110555 14.68025946 7.4110555 14.68025946 10.78979492 11.32788086 C12.10546875 10.08984375 12.10546875 10.08984375 15 8 C17.86328125 8.19140625 17.86328125 8.19140625 20 9 C19.24197601 13.01247365 17.464839 16.54712221 15.6875 20.1875 C15.39166016 20.82880859 15.09582031 21.47011719 14.79101562 22.13085938 C12.51492578 26.78627424 12.51492578 26.78627424 9.76953125 27.92578125 C9.18558594 27.95027344 8.60164062 27.97476562 8 28 C8.58107632 24.2397015 9.65199496 21.46964968 11.5625 18.1875 C12.01753906 17.39730469 12.47257813 16.60710937 12.94140625 15.79296875 C13.29074219 15.20128906 13.64007812 14.60960937 14 14 C13.25234375 14.73347656 12.5046875 15.46695312 11.734375 16.22265625 C10.74020886 17.16992776 9.7453825 18.11650671 8.75 19.0625 C8.25886719 19.54783203 7.76773438 20.03316406 7.26171875 20.53320312 C5.796875 21.91015625 5.796875 21.91015625 3 24 C1.68 23.67 0.36 23.34 -1 23 C-0.67 18.38 -0.34 13.76 0 9 C-0.928125 10.65 -1.85625 12.3 -2.8125 14 C-4.39453125 16.8125 -4.39453125 16.8125 -6 19 C-6.99 19 -7.98 19 -9 19 C-7.39369175 14.75707468 -5.4231838 10.72974893 -3.375 6.6875 C-3.05015625 6.04232422 -2.7253125 5.39714844 -2.390625 4.73242188 C-1.59558044 3.15402459 -0.79804366 1.57688306 0 0 Z " fill="#FDF4E3" transform="translate(725,436)"/>
<path d="M0 0 C1.95803507 -0.05389087 3.91648909 -0.09274217 5.875 -0.125 C7.51082031 -0.15980469 7.51082031 -0.15980469 9.1796875 -0.1953125 C12 0 12 0 14 2 C14.31537716 6.33643601 14.44897847 8.32653229 12 12 C12.3609375 12.48210937 12.721875 12.96421875 13.09375 13.4609375 C13.5578125 14.09257812 14.021875 14.72421875 14.5 15.375 C14.9640625 16.00148438 15.428125 16.62796875 15.90625 17.2734375 C17 19 17 19 17 21 C15.68 21 14.36 21 13 21 C11.62109375 19.50390625 11.62109375 19.50390625 10.4375 17.5625 C8.52207895 14.39618112 8.52207895 14.39618112 5 13 C5 15.97 5 18.94 5 22 C3.68 22 2.36 22 1 22 C0.00137301 14.63512596 -0.10331031 7.42686315 0 0 Z " fill="#FDF2DD" transform="translate(841,464)"/>
<path d="M0 0 C3.26304994 0.75301153 4.47291251 1.87028751 6.4375 4.5625 C6.4375 6.2125 6.4375 7.8625 6.4375 9.5625 C9.7375 9.8925 13.0375 10.2225 16.4375 10.5625 C16.1075 11.5525 15.7775 12.5425 15.4375 13.5625 C11.4775 13.5625 7.5175 13.5625 3.4375 13.5625 C5.08606825 17.68653473 5.08606825 17.68653473 8.4375 19.5625 C8.1075 20.5525 7.7775 21.5425 7.4375 22.5625 C4.24900227 21.97753796 2.5445041 21.0641539 0.203125 18.83984375 C-0.37050781 18.30166016 -0.94414063 17.76347656 -1.53515625 17.20898438 C-2.12167969 16.64501953 -2.70820312 16.08105469 -3.3125 15.5 C-3.91449219 14.93216797 -4.51648438 14.36433594 -5.13671875 13.77929688 C-6.61813212 12.38018425 -8.0911488 10.97219053 -9.5625 9.5625 C-7.48474505 5.12236612 -5.05602779 1.10985976 0 0 Z " fill="#FDF6E8" transform="translate(566.5625,293.4375)"/>
<path d="M0 0 C1.32 0.66 2.64 1.32 4 2 C2.75971762 8.17222879 1.10396411 14.06682122 -1 20 C-0.22914063 19.3503125 0.54171875 18.700625 1.3359375 18.03125 C2.33882812 17.1959375 3.34171875 16.360625 4.375 15.5 C5.37273438 14.6646875 6.37046875 13.829375 7.3984375 12.96875 C10 11 10 11 12 11 C11.51823466 15.22026435 9.23870322 16.92645721 6.125 19.625 C4.79855469 20.78902344 4.79855469 20.78902344 3.4453125 21.9765625 C1 24 1 24 -2 26 C-4.1875 25.625 -4.1875 25.625 -6 25 C-5.41632611 18.69632197 -3.95928381 13.01339937 -2 7 C-2.68707031 7.58910156 -3.37414062 8.17820313 -4.08203125 8.78515625 C-4.98308594 9.53667969 -5.88414062 10.28820312 -6.8125 11.0625 C-7.70582031 11.81660156 -8.59914063 12.57070312 -9.51953125 13.34765625 C-10.33808594 13.89292969 -11.15664063 14.43820313 -12 15 C-12.99 14.67 -13.98 14.34 -15 14 C-15 13.34 -15 12.68 -15 12 C-13.49096123 10.64626036 -11.91587302 9.36556599 -10.3125 8.125 C-9.00732422 7.10792969 -9.00732422 7.10792969 -7.67578125 6.0703125 C-6.35126953 5.04550781 -6.35126953 5.04550781 -5 4 C-3.3310899 2.66947581 -1.66373805 1.33698589 0 0 Z " fill="#EFF5FA" transform="translate(527,204)"/>
<path d="M0 0 C1.65 0 3.3 0 5 0 C5.19335938 0.59167969 5.38671875 1.18335938 5.5859375 1.79296875 C7.23815916 6.82673319 7.23815916 6.82673319 9.1875 11.75 C10.1052535 14.29147123 10.15324355 16.31823783 10 19 C10.66 19 11.32 19 12 19 C12.04898438 18.26394531 12.09796875 17.52789062 12.1484375 16.76953125 C12.22320313 15.79371094 12.29796875 14.81789063 12.375 13.8125 C12.44460938 12.84957031 12.51421875 11.88664062 12.5859375 10.89453125 C13.00215853 7.98491062 13.79874096 5.67109226 15 3 C15.99 3 16.98 3 18 3 C16.94915607 10.30645606 15.54322809 17.06392339 13 24 C11.35 23.67 9.7 23.34 8 23 C6.35 17.72 4.7 12.44 3 7 C1.68 11.62 0.36 16.24 -1 21 C-1.99 21 -2.98 21 -4 21 C-3.29843593 13.84404654 -1.69214979 6.98144819 0 0 Z " fill="#FEF7EA" transform="translate(770,456)"/>
<path d="M0 0 C7.59498961 -0.26442904 14.57359158 0.39118425 22 2 C22.32950287 6.11878582 22.16200854 8.64358121 20.4375 12.4375 C18 15 18 15 14.4375 15.5625 C11 15 11 15 9.0625 14 C7.32721307 10.73357754 7.82017285 7.65648548 8 4 C5.36 4 2.72 4 0 4 C0 2.68 0 1.36 0 0 Z " fill="#FDF0D9" transform="translate(1038,287)"/>
<path d="M0 0 C10 0 10 0 14 3 C14.5 6.5 14.5 6.5 14 10 C12.375 11.9375 12.375 11.9375 10 13 C6.75 13.1875 6.75 13.1875 4 13 C4 15.97 4 18.94 4 22 C2.68 21.67 1.36 21.34 0 21 C0 14.07 0 7.14 0 0 Z " fill="#FEF6E8" transform="translate(821,75)"/>
<path d="M0 0 C4.21708244 1.50610087 5.94467452 4.11771853 8 8 C7.93185568 10.93020585 7.40454304 12.38253957 5.8125 14.8125 C3.09937351 16.59006563 1.17290804 16.38851935 -2 16 C-4.375 14.625 -4.375 14.625 -6 13 C-6 12.34 -6 11.68 -6 11 C-6.94875 11.825 -7.8975 12.65 -8.875 13.5 C-11.75 16 -11.75 16 -14 16 C-14.33 15.01 -14.66 14.02 -15 13 C-13.2519799 11.3936298 -11.50168356 9.78986703 -9.75 8.1875 C-9.25886719 7.73568359 -8.76773437 7.28386719 -8.26171875 6.81835938 C-5.60492352 4.39181973 -2.92534924 2.09650029 0 0 Z " fill="#F2F6FB" transform="translate(492,162)"/>
<path d="M0 0 C0.80859375 1.94921875 0.80859375 1.94921875 1 5 C-0.33309459 8.12831848 -2.12539548 10.94152962 -3.9375 13.8125 C-4.41896484 14.60076172 -4.90042969 15.38902344 -5.39648438 16.20117188 C-6.58483704 18.14254008 -7.78608255 20.07455237 -9 22 C-9.99 21.67 -10.98 21.34 -12 21 C-11.773125 19.741875 -11.54625 18.48375 -11.3125 17.1875 C-10.89952897 13.97683678 -10.89952897 13.97683678 -12 11 C-14.99825202 9.50087399 -17.70892969 9.813713 -21 10 C-21.33 9.01 -21.66 8.02 -22 7 C-18.89878289 5.82538445 -15.79357759 4.66169544 -12.6875 3.5 C-11.80642578 3.16613281 -10.92535156 2.83226562 -10.01757812 2.48828125 C-9.17001953 2.17246094 -8.32246094 1.85664063 -7.44921875 1.53125 C-6.66893311 1.23798828 -5.88864746 0.94472656 -5.0847168 0.64257812 C-3 0 -3 0 0 0 Z " fill="#F2F7FB" transform="translate(520,192)"/>
<path d="M0 0 C4.26085937 -0.29763356 7.11569159 0.66075164 11 2.375 C12.5159375 3.03628906 12.5159375 3.03628906 14.0625 3.7109375 C15.5165625 4.34902344 15.5165625 4.34902344 17 5 C18.66384556 5.6736766 20.3295487 6.34287394 22 7 C21.67 7.99 21.34 8.98 21 10 C19.9275 9.731875 18.855 9.46375 17.75 9.1875 C13.95222198 8.58792079 13.95222198 8.58792079 11.4375 11 C9.61314269 14.04000127 9.61314269 14.04000127 10.75 17.8125 C11.1625 18.864375 11.575 19.91625 12 21 C11.01 21.33 10.02 21.66 9 22 C7.29241747 19.09465435 5.61261646 16.17416582 3.9375 13.25 C3.20950195 12.0125 3.20950195 12.0125 2.46679688 10.75 C2.01240234 9.95078125 1.55800781 9.1515625 1.08984375 8.328125 C0.66566162 7.5949707 0.24147949 6.86181641 -0.19555664 6.10644531 C-1.14514362 3.61993956 -0.89753304 2.46152694 0 0 Z " fill="#FDF6E9" transform="translate(607,244)"/>
<path d="M0 0 C1.9375 1 1.9375 1 3 3 C3.41338445 7.27163929 3.36354698 9.97351441 1.9375 14 C0 16 0 16 -3.5 16.5625 C-7 16 -7 16 -8.9375 14.5 C-10.45346205 10.93303046 -10.55539679 7.81737513 -10 4 C-7.93207281 -0.86571104 -4.90619881 -0.61327485 0 0 Z " fill="#FBB435" transform="translate(830,467)"/>
<path d="M0 0 C3.375 0.9375 3.375 0.9375 5.375 2.9375 C5.94016926 7.13590018 5.7615531 9.98949103 3.3125 13.4375 C0.375 15.9375 0.375 15.9375 -3.3125 16 C-6.625 14.9375 -6.625 14.9375 -8.625 11.9375 C-8.47928908 8.00330528 -7.87850745 5.40551376 -6 1.9375 C-3.625 -0.0625 -3.625 -0.0625 0 0 Z " fill="#FBB332" transform="translate(755.625,453.0625)"/>
<path d="M0 0 C2.03667615 1.54506466 2.86073078 2.72146156 4 5 C4.57168784 11.17422868 4.57168784 11.17422868 2.3125 14.4375 C0 16 0 16 -2.5 16.5625 C-5 16 -5 16 -7.3125 14 C-9.62213066 9.89398994 -9.52770782 7.67398355 -9 3 C-6.89283346 -0.74607384 -4.00604938 -0.50075617 0 0 Z " fill="#86B2DE" transform="translate(298,75)"/>
<path d="M0 0 C2.49040942 2.49040942 2.32391014 3.43154357 2.375 6.875 C2.30043393 10.31498131 2.2060177 11.67952802 0.3125 14.625 C-2.45187769 16.26868403 -3.83888371 16.56737985 -7 16 C-9.25671285 14.31693598 -9.92761453 13.43147415 -10.3984375 10.625 C-10.39070312 9.75875 -10.38296875 8.8925 -10.375 8 C-10.38273438 7.13375 -10.39046875 6.2675 -10.3984375 5.375 C-10 3 -10 3 -8.69921875 1.20703125 C-5.90034166 -0.78113661 -3.30765102 -0.30069555 0 0 Z " fill="#FBB22F" transform="translate(870,80)"/>
<path d="M0 0 C2.4375 1.0625 2.4375 1.0625 4 3 C4.5 6.5 4.5 6.5 4 10 C2.21866179 12.30089518 0.9169103 12.86901281 -1.94140625 13.27734375 C-4.90923674 13.4139842 -7.3471891 13.34680579 -10 11.9375 C-11.60318593 8.83132725 -11.42751128 6.42009021 -11 3 C-7.99525366 -0.72588547 -4.52708603 -0.48504493 0 0 Z " fill="#FBB330" transform="translate(1053,266)"/>
<path d="M0 0 C2.56314499 -0.08132187 5.12368418 -0.14064175 7.6875 -0.1875 C8.40873047 -0.21263672 9.12996094 -0.23777344 9.87304688 -0.26367188 C14.46146874 -0.32652697 17.36934474 0.13296248 21 3 C22.56935594 6.13871188 22.35201103 8.53855822 22 12 C19.99738677 14.7521061 18.44858057 16.71229482 14.99511719 17.39819336 C12.70616531 17.4918323 10.47476642 17.43712055 8.1875 17.3125 C7.39923828 17.28994141 6.61097656 17.26738281 5.79882812 17.24414062 C3.86506071 17.18554161 1.93227833 17.09586827 0 17 C0 16.01 0 15.02 0 14 C1.13179688 13.95101563 2.26359375 13.90203125 3.4296875 13.8515625 C4.91148339 13.77653486 6.393253 13.70098703 7.875 13.625 C8.62136719 13.5940625 9.36773437 13.563125 10.13671875 13.53125 C14.53473188 13.44356169 14.53473188 13.44356169 18 11 C18.2500773 8.45809998 18.2500773 8.45809998 18 6 C15.88074396 3.88074396 11.3803907 4.58168983 8.4375 4.4375 C7.63119141 4.39431641 6.82488281 4.35113281 5.99414062 4.30664062 C3.99631195 4.20024738 1.9981793 4.09959112 0 4 C0 2.68 0 1.36 0 0 Z " fill="#F1F6FB" transform="translate(116,283)"/>
<path d="M0 0 C4.29 0 8.58 0 13 0 C13 0.99 13 1.98 13 3 C10.03 3 7.06 3 4 3 C4 4.65 4 6.3 4 8 C6.64 8 9.28 8 12 8 C12 9.32 12 10.64 12 12 C9.36 12 6.72 12 4 12 C4 13.98 4 15.96 4 18 C6.64 18 9.28 18 12 18 C12 18.99 12 19.98 12 21 C8.04 21 4.08 21 0 21 C0 14.07 0 7.14 0 0 Z " fill="#E8F0F8" transform="translate(333,69)"/>
<path d="M0 0 C3.96 0 7.92 0 12 0 C12 0.99 12 1.98 12 3 C9.36 3 6.72 3 4 3 C4 4.98 4 6.96 4 9 C8.455 8.505 8.455 8.505 13 8 C12.67 9.32 12.34 10.64 12 12 C9.69 12 7.38 12 5 12 C5 13.98 5 15.96 5 18 C7.97 18 10.94 18 14 18 C14 18.99 14 19.98 14 21 C10.04 21.33 6.08 21.66 2 22 C1.66198848 19.45887768 1.32946621 16.91723254 1 14.375 C0.90460937 13.66214844 0.80921875 12.94929688 0.7109375 12.21484375 C0.62070312 11.51230469 0.53046875 10.80976562 0.4375 10.0859375 C0.35371094 9.4470459 0.26992188 8.8081543 0.18359375 8.14990234 C-0.04761415 5.44243323 0 2.71732333 0 0 Z " fill="#FEF8EE" transform="translate(803,76)"/>
<path d="M0 0 C0.66 0.33 1.32 0.66 2 1 C0.66666667 3.66666667 -0.66666667 6.33333333 -2 9 C-0.68 9.99 0.64 10.98 2 12 C2.37125 11.071875 2.37125 11.071875 2.75 10.125 C4.20628639 7.64931313 5.37812506 7.04874998 8 6 C7.30058404 9.14737182 6.23921302 12.02588876 5 15 C6.32 15.66 7.64 16.32 9 17 C10.32 15.35 11.64 13.7 13 12 C13.99 12.33 14.98 12.66 16 13 C14.33248852 16.94139078 11.77289351 19.7892812 9 23 C4.87582937 21.3383196 1.93445961 18.37661982 -1.25 15.375 C-1.80429687 14.859375 -2.35859375 14.34375 -2.9296875 13.8125 C-4.2902712 12.54574965 -5.64565837 11.27342185 -7 10 C-6.42424336 6.64749299 -5.40693737 5.06181371 -2.9375 2.75 C-2.38964844 2.22921875 -1.84179688 1.7084375 -1.27734375 1.171875 C-0.64505859 0.59179688 -0.64505859 0.59179688 0 0 Z " fill="#FDF5E7" transform="translate(577,279)"/>
<path d="M0 0 C-1.33333333 2.66666667 -2.66666667 5.33333333 -4 8 C-2.68 8.66 -1.36 9.32 0 10 C0.433125 9.34 0.86625 8.68 1.3125 8 C1.869375 7.34 2.42625 6.68 3 6 C3.99 6 4.98 6 6 6 C5.37240135 8.92879371 4.41377341 11.36095629 3 14 C4.32 14.66 5.64 15.32 7 16 C8.32 14.68 9.64 13.36 11 12 C11.99 12.33 12.98 12.66 14 13 C9.85714286 19.42857143 9.85714286 19.42857143 7 22 C2.87582937 20.3383196 -0.06554039 17.37661982 -3.25 14.375 C-3.80429687 13.859375 -4.35859375 13.34375 -4.9296875 12.8125 C-6.2902712 11.54574965 -7.64565837 10.27342185 -9 9 C-7.21987627 4.22926841 -5.63624199 0 0 0 Z " fill="#FDF6E7" transform="translate(601,255)"/>
<path d="M0 0 C-1.12451727 2.9719385 -2.22293791 5.33440687 -4 8 C-2.68 8.66 -1.36 9.32 0 10 C0.928125 9.01 0.928125 9.01 1.875 8 C4 6 4 6 6 6 C5.37240135 8.92879371 4.41377341 11.36095629 3 14 C4.65 14.99 6.3 15.98 8 17 C8.66 15.68 9.32 14.36 10 13 C11.32 13 12.64 13 14 13 C12.03681826 16.53372712 9.95929119 19.24479785 7 22 C2.87582937 20.3383196 -0.06554039 17.37661982 -3.25 14.375 C-3.80429687 13.859375 -4.35859375 13.34375 -4.9296875 12.8125 C-6.2902712 11.54574965 -7.64565837 10.27342185 -9 9 C-7.21987627 4.22926841 -5.63624199 0 0 0 Z " fill="#FDF6E7" transform="translate(636,215)"/>
<path d="M0 0 C4.95725232 0.52131717 8.28207993 2.85203212 12.3125 5.5625 C13.28026367 6.19961914 13.28026367 6.19961914 14.26757812 6.84960938 C15.84973954 7.89266393 17.42552501 8.94537872 19 10 C17.45657029 14.08105062 15.50065501 17.41572782 13 21 C12.34 20.67 11.68 20.34 11 20 C11.33 19.071875 11.66 18.14375 12 17.1875 C13.14967004 14.07970709 13.14967004 14.07970709 13 11 C12.01 10.67 11.02 10.34 10 10 C9.566875 10.825 9.13375 11.65 8.6875 12.5 C7.8521875 13.7375 7.8521875 13.7375 7 15 C6.01 15 5.02 15 4 15 C4.66666667 12.33333333 5.33333333 9.66666667 6 7 C4.35 6.01 2.7 5.02 1 4 C0.690625 4.78375 0.38125 5.5675 0.0625 6.375 C-1 9 -1 9 -2 11 C-2.99 10.67 -3.98 10.34 -5 10 C-3.66511872 6.40608886 -2.03977277 3.24509304 0 0 Z " fill="#FDF7EC" transform="translate(1011,372)"/>
<path d="M0 0 C-0.28875 0.53625 -0.5775 1.0725 -0.875 1.625 C-2.16711808 4.35280484 -3.08558592 7.12612718 -4 10 C-2.783125 9.505 -1.56625 9.01 -0.3125 8.5 C2.9172745 7.30167377 5.52490578 6.40426956 9 7 C10.8125 8.125 10.8125 8.125 12 10 C12.54793052 13.08210918 12.62022351 15.05028275 10.875 17.72265625 C9.64440381 19.20146928 8.32680316 20.60685668 7 22 C5.68 21.67 4.36 21.34 3 21 C3 20.34 3 19.68 3 19 C3.804375 18.38125 4.60875 17.7625 5.4375 17.125 C8.15271395 14.87335916 8.40367221 14.27637566 9 11 C7.80375 11.33 6.6075 11.66 5.375 12 C1.82353524 12.87372319 -1.3262582 13.42717928 -5 13 C-6.875 11.8125 -6.875 11.8125 -8 10 C-8.5 7.625 -8.5 7.625 -8 5 C-3.88888889 0 -3.88888889 0 0 0 Z " fill="#FDF5E7" transform="translate(625,228)"/>
<path d="M0 0 C7.05889737 0.70588974 14.01204964 1.78213386 21 3 C20.85904936 4.6254308 20.71207913 6.25034051 20.5625 7.875 C20.48128906 8.77992188 20.40007812 9.68484375 20.31640625 10.6171875 C20 13 20 13 19 15 C18.34 15 17.68 15 17 15 C17.33 12.03 17.66 9.06 18 6 C16.02 6 14.04 6 12 6 C11.67 8.31 11.34 10.62 11 13 C10.01 13 9.02 13 8 13 C8.33 10.36 8.66 7.72 9 5 C6.69 4.67 4.38 4.34 2 4 C1.67 6.64 1.34 9.28 1 12 C0.01 12 -0.98 12 -2 12 C-1.34 8.04 -0.68 4.08 0 0 Z " fill="#FEF6E9" transform="translate(1036,305)"/>
<path d="M0 0 C2.54844994 0.09267091 4.21126499 0.34484937 6.625 1.25 C9.07009198 4.61200148 8.42821243 8.29493527 8.125 12.3125 C6.37470238 12.00167128 4.62477306 11.68876821 2.875 11.375 C1.90046875 11.20097656 0.9259375 11.02695313 -0.078125 10.84765625 C-2.37221795 10.40870271 -4.61791971 9.90901408 -6.875 9.3125 C-5.89308318 0.47524864 -5.89308318 0.47524864 0 0 Z " fill="#85B2DE" transform="translate(130.875,236.6875)"/>
<path d="M0 0 C0 0.99 0 1.98 0 3 C-1.11375 3.12375 -2.2275 3.2475 -3.375 3.375 C-7.03103677 3.6465813 -7.03103677 3.6465813 -9 6 C-9.47325628 11.0165166 -8.97071449 13.91526758 -6 18 C-2.7 17.67 0.6 17.34 4 17 C4 17.99 4 18.98 4 20 C0.85317152 22.09788566 -2.27321351 22.53105012 -6.03125 22.4609375 C-9.70958564 21.59973987 -10.98180704 19.05786812 -13 16 C-14.60086627 12.79826746 -14.49917089 9.47422941 -14 6 C-9.95795359 -0.33253938 -6.99132612 -0.11276332 0 0 Z " fill="#EEF4FA" transform="translate(280,76)"/>
<path d="M0 0 C7 0 7 0 8.9375 1.0625 C10.57850647 4.05492356 10.23895351 6.6546508 10 10 C9 13 9 13 6 15 C4.02 15 2.04 15 0 15 C0 10.05 0 5.1 0 0 Z " fill="#83B0DD" transform="translate(314,73)"/>
<path d="M0 0 C7.4660267 -0.36718164 7.4660267 -0.36718164 9.73828125 1.1953125 C11.40785619 3.58337325 11.40057044 5.16877847 11.375 8.0625 C11.38273438 8.94035156 11.39046875 9.81820312 11.3984375 10.72265625 C11.26695312 11.47417969 11.13546875 12.22570312 11 13 C7.77208445 15.1519437 6.71599191 15.20086443 3 15 C2.49564306 13.0636296 1.99666126 11.12585854 1.5 9.1875 C1.2215625 8.10855469 0.943125 7.02960938 0.65625 5.91796875 C0 3 0 3 0 0 Z " fill="#FBB22E" transform="translate(784,82)"/>
<path d="M0 0 C7.12647031 1.70022388 14.0834212 3.57919742 21 6 C19.41045275 9.33314754 17.92362316 11.66110147 15 14 C12.25 14.25 12.25 14.25 10 14 C9.7525 13.2575 9.505 12.515 9.25 11.75 C7.8657531 8.70465682 6.60644923 7.08515938 4 5 C1.35815459 4.20318682 1.35815459 4.20318682 -1 4 C-0.67 2.68 -0.34 1.36 0 0 Z " fill="#FEF6E9" transform="translate(1033,321)"/>
<path d="M0 0 C2.25 -0.3125 2.25 -0.3125 5 0 C7.3125 1.875 7.3125 1.875 9 5 C9.32334339 8.36174475 9.23525873 11.63449311 9 15 C-4.6332574 17.29612756 -4.6332574 17.29612756 -11 17 C-11 16.01 -11 15.02 -11 14 C-8.36 13.67 -5.72 13.34 -3 13 C-3 11.68 -3 10.36 -3 9 C-2.34 9 -1.68 9 -1 9 C-1 9.99 -1 10.98 -1 12 C1.31 12 3.62 12 6 12 C5.34 9.69 4.68 7.38 4 5 C2.35 5 0.7 5 -1 5 C-0.67 3.35 -0.34 1.7 0 0 Z " fill="#F7F9FC" transform="translate(130,304)"/>
<path d="M0 0 C1.32 0.33 2.64 0.66 4 1 C4.66 3.97 5.32 6.94 6 10 C6.9075 8.845 7.815 7.69 8.75 6.5 C10.296875 4.53125 10.296875 4.53125 12 3 C13.32 3 14.64 3 16 3 C14.93333056 6.79260245 13.13688548 9.05720553 10.5 11.875 C7.18310454 15.50220793 5.90029949 18.19840271 5 23 C4.01 23 3.02 23 2 23 C2.02320313 22.34515625 2.04640625 21.6903125 2.0703125 21.015625 C2.21292763 13.80337411 1.38227343 7.07180962 0 0 Z " fill="#FEF6E9" transform="translate(881,79)"/>
<path d="M0 0 C0.99 0 1.98 0 3 0 C2.67 4.29 2.34 8.58 2 13 C-5.47093223 13.29883729 -12.63044989 12.15925507 -20 11 C-20 9.68 -20 8.36 -20 7 C-17.77057252 7.14179038 -15.54146372 7.28859698 -13.3125 7.4375 C-12.07113281 7.51871094 -10.82976562 7.59992188 -9.55078125 7.68359375 C-6.61819663 7.94491317 -3.86558383 8.34798379 -1 9 C-0.67 6.03 -0.34 3.06 0 0 Z " fill="#E8F0F8" transform="translate(137,256)"/>
<path d="M0 0 C1.32 0 2.64 0 4 0 C4 6.27 4 12.54 4 19 C6.97 19 9.94 19 13 19 C13 19.99 13 20.98 13 22 C8.71 22 4.42 22 0 22 C0 14.74 0 7.48 0 0 Z " fill="#FDF1DC" transform="translate(840,75)"/>
<path d="M0 0 C4.27196555 1.51585874 8.02615668 3.68097306 11.9140625 5.9765625 C14.06163549 7.22023806 14.06163549 7.22023806 17 7 C17.66 5.68 18.32 4.36 19 3 C19.99 3.33 20.98 3.66 22 4 C20.23570801 8.97209562 17.6060834 13.43438061 15 18 C14.34 18 13.68 18 13 18 C13.875 13.25 13.875 13.25 15 11 C14.21625 10.773125 13.4325 10.54625 12.625 10.3125 C7.87698375 8.59339067 3.47897448 6.31915279 -1 4 C-0.67 2.68 -0.34 1.36 0 0 Z " fill="#FDF6E9" transform="translate(1018,360)"/>
<path d="M0 0 C5.28 0.33 10.56 0.66 16 1 C16 1.99 16 2.98 16 4 C14.02 4 12.04 4 10 4 C9.34 9.94 8.68 15.88 8 22 C7.01 22 6.02 22 5 22 C4.89650183 15.58311325 5.25492456 9.37305598 6 3 C4.02 3 2.04 3 0 3 C0 2.01 0 1.02 0 0 Z " fill="#FEF7EA" transform="translate(799,462)"/>
<path d="M0 0 C3.71045247 1.57780923 6.29906384 3.90703248 9.25 6.625 C10.14203125 7.44226563 11.0340625 8.25953125 11.953125 9.1015625 C12.96632813 10.04128906 12.96632813 10.04128906 14 11 C14.763125 10.175 15.52625 9.35 16.3125 8.5 C19 6 19 6 22 6 C20.6062718 10.43458973 18.39417765 12.87378374 15 16 C11.32206751 14.43474036 8.78787492 12.14603892 5.875 9.4375 C2.68492491 6.36280814 2.68492491 6.36280814 -1 4 C-0.67 2.68 -0.34 1.36 0 0 Z " fill="#FDF6E8" transform="translate(582,273)"/>
<path d="M0 0 C0.99 0.33 1.98 0.66 3 1 C1.47940093 4.88014936 -0.86078531 6.73906562 -4.125 9.25 C-5.03507812 9.95640625 -5.94515625 10.6628125 -6.8828125 11.390625 C-7.58148438 11.92171875 -8.28015625 12.4528125 -9 13 C-8.29677677 16.31812126 -7.4442247 17.66204593 -5 20 C-5 20.66 -5 21.32 -5 22 C-6.32 22 -7.64 22 -9 22 C-10.703125 20.03125 -10.703125 20.03125 -12.25 17.5 C-13.03117187 16.24703125 -13.03117187 16.24703125 -13.828125 14.96875 C-14.40820312 13.99421875 -14.40820312 13.99421875 -15 13 C-13.2519799 11.3936298 -11.50168356 9.78986703 -9.75 8.1875 C-9.25886719 7.73568359 -8.76773437 7.28386719 -8.26171875 6.81835938 C-2.38975621 1.45530026 -2.38975621 1.45530026 0 0 Z " fill="#F1F6FB" transform="translate(504,176)"/>
<path d="M0 0 C0.75 2.1875 0.75 2.1875 1 5 C-0.75 7.8125 -0.75 7.8125 -3 10 C-3.99 10 -4.98 10 -6 10 C-6.66 10.66 -7.32 11.32 -8 12 C-11.93846154 8.67692308 -11.93846154 8.67692308 -12.25 5.25 C-12.12625 4.13625 -12.12625 4.13625 -12 3 C-10.56445975 2.49440092 -9.1264798 1.9957251 -7.6875 1.5 C-6.88699219 1.2215625 -6.08648438 0.943125 -5.26171875 0.65625 C-3 0 -3 0 0 0 Z " fill="#F0F5FA" transform="translate(520,192)"/>
<path d="M0 0 C0.33 1.65 0.66 3.3 1 5 C3.33165034 5.33498301 3.33165034 5.33498301 6 5 C8.31377147 3.10415891 8.31377147 3.10415891 10 1 C9.40425532 6.36170213 9.40425532 6.36170213 7.8125 8.875 C5.19985125 10.49664405 3.00479298 10.20031953 0 10 C-0.66 8.35 -1.32 6.7 -2 5 C-5.3 5.33 -8.6 5.66 -12 6 C-12 5.01 -12 4.02 -12 3 C-10.18792288 2.49846959 -8.37532624 1.99881588 -6.5625 1.5 C-5.55316406 1.2215625 -4.54382812 0.943125 -3.50390625 0.65625 C-1 0 -1 0 0 0 Z " fill="#FEF7EC" transform="translate(1042,329)"/>
<path d="M0 0 C7.26 0.33 14.52 0.66 22 1 C22 2.32 22 3.64 22 5 C14.6094524 5.14715692 7.35575165 4.70776992 0 4 C0 2.68 0 1.36 0 0 Z " fill="#E9F1F9" transform="translate(116,273)"/>
<path d="M0 0 C0.99 0 1.98 0 3 0 C3.44032071 7.51806849 2.28612778 13.84224277 0 21 C-0.99 21 -1.98 21 -3 21 C-2.58169634 13.77875787 -2.04538889 6.95432222 0 0 Z " fill="#FEF7EA" transform="translate(793,461)"/>
<path d="M0 0 C1.32 0.33 2.64 0.66 4 1 C4.25 7.625 4.25 7.625 2 11 C2.3609375 11.48210937 2.721875 11.96421875 3.09375 12.4609375 C3.5578125 13.09257812 4.021875 13.72421875 4.5 14.375 C4.9640625 15.00148438 5.428125 15.62796875 5.90625 16.2734375 C7 18 7 18 7 20 C3 20 3 20 1.515625 18.5390625 C1.09796875 17.90742188 0.6803125 17.27578125 0.25 16.625 C-0.17796875 15.99851562 -0.6059375 15.37203125 -1.046875 14.7265625 C-2 13 -2 13 -2 11 C-2.66 10.67 -3.32 10.34 -4 10 C-3.34 9.649375 -2.68 9.29875 -2 8.9375 C0.41103961 7.03442858 0.41103961 7.03442858 0.25 3.3125 C0.12625 1.6728125 0.12625 1.6728125 0 0 Z " fill="#FEF7EB" transform="translate(851,465)"/>
<path d="M0 0 C2.625 0.1875 2.625 0.1875 5.625 2.1875 C5.625 3.1775 5.625 4.1675 5.625 5.1875 C6.615 5.5175 7.605 5.8475 8.625 6.1875 C7.965 7.5075 7.305 8.8275 6.625 10.1875 C5.635 10.1875 4.645 10.1875 3.625 10.1875 C2.965 8.5375 2.305 6.8875 1.625 5.1875 C0.305 5.5175 -1.015 5.8475 -2.375 6.1875 C-2.75718767 4.53135343 -3.08895102 2.86292976 -3.375 1.1875 C-2.375 0.1875 -2.375 0.1875 0 0 Z " fill="#FDF5E5" transform="translate(609.375,243.8125)"/>
<path d="M0 0 C4.70588235 0.70588235 4.70588235 0.70588235 6 2 C6.04080783 3.99958364 6.04254356 6.00045254 6 8 C3.69 8 1.38 8 -1 8 C-1.04241723 5.66705225 -1.04092937 3.33297433 -1 1 C-0.67 0.67 -0.34 0.34 0 0 Z " fill="#83B0DE" transform="translate(130,308)"/>
<path d="M0 0 C0.66 0 1.32 0 2 0 C4 3 4 3 3.625 5.6875 C3.41875 6.450625 3.2125 7.21375 3 8 C1.1875 8.6875 1.1875 8.6875 -1 9 C-2.75 7.5625 -2.75 7.5625 -4 6 C-2.84826645 3.53199953 -1.95216435 1.95216435 0 0 Z " fill="#87B3DF" transform="translate(492,166)"/>
<path d="M0 0 C2.375 -0.125 2.375 -0.125 5 0 C7 2 7 2 7 6 C4 8 4 8 0 8 C0 5.36 0 2.72 0 0 Z " fill="#FBB538" transform="translate(825,78)"/>
<path d="M0 0 C0.33 0.99 0.66 1.98 1 3 C3.97 3.33 6.94 3.66 10 4 C10 4.33 10 4.66 10 5 C3.73 5 -2.54 5 -9 5 C-9 4.01 -9 3.02 -9 2 C-6.03 1.34 -3.06 0.68 0 0 Z " fill="#FEFAF2" transform="translate(1031,349)"/>
<path d="M0 0 C2.25 -0.3125 2.25 -0.3125 5 0 C7.3125 2.25 7.3125 2.25 9 5 C9 6.32 9 7.64 9 9 C8.34 9 7.68 9 7 9 C6.67 9.99 6.34 10.98 6 12 C5.34 9.69 4.68 7.38 4 5 C2.35 5 0.7 5 -1 5 C-0.67 3.35 -0.34 1.7 0 0 Z " fill="#ECF3F9" transform="translate(130,304)"/>
<path d="M0 0 C2.31 0.33 4.62 0.66 7 1 C6.125 5.875 6.125 5.875 5 7 C3.33382885 7.04063832 1.66611905 7.042721 0 7 C-1.125 2.25 -1.125 2.25 0 0 Z " fill="#FBB63A" transform="translate(1043,328)"/>
<path d="M0 0 C2.625 0.375 2.625 0.375 5 1 C5.6875 2.8125 5.6875 2.8125 6 5 C4.5625 6.75 4.5625 6.75 3 8 C1.0625 7.25 1.0625 7.25 -1 6 C-1.875 4 -1.875 4 -2 2 C-1.34 1.34 -0.68 0.68 0 0 Z " fill="#FBB63A" transform="translate(564,298)"/>
<path d="M0 0 C1.20628008 2.33214148 2.1654738 4.49642139 3 7 C4.11375 6.649375 5.2275 6.29875 6.375 5.9375 C10 5 10 5 12 6 C10.9375 8 10.9375 8 9 10 C5.4375 10.375 5.4375 10.375 2 10 C0 8 0 8 -0.1953125 6.0546875 C-0.13020833 4.03645833 -0.06510417 2.01822917 0 0 Z " fill="#FEFAF2" transform="translate(1047,292)"/>
<path d="M0 0 C1.98 0 3.96 0 6 0 C6.625 2.375 6.625 2.375 7 5 C5 7 5 7 2.375 7.125 C1.59125 7.08375 0.8075 7.0425 0 7 C0 4.69 0 2.38 0 0 Z " fill="#FBB63A" transform="translate(845,467)"/>
<path d="M0 0 C2.31 0 4.62 0 7 0 C7.125 2.375 7.125 2.375 7 5 C6.34 5.66 5.68 6.32 5 7 C3.68 7 2.36 7 1 7 C0.67 4.69 0.34 2.38 0 0 Z " fill="#FBB230" transform="translate(1049,292)"/>
<path d="M0 0 C1.65 0.33 3.3 0.66 5 1 C4.88590407 2.45922693 4.75834456 3.91740598 4.625 5.375 C4.55539062 6.18710937 4.48578125 6.99921875 4.4140625 7.8359375 C4 10 4 10 2 12 C1.87625 11.030625 1.7525 10.06125 1.625 9.0625 C1.41875 8.051875 1.2125 7.04125 1 6 C0.34 5.67 -0.32 5.34 -1 5 C-0.67 3.35 -0.34 1.7 0 0 Z " fill="#FEF8EE" transform="translate(725,436)"/>
<path d="M0 0 C2.475 0.495 2.475 0.495 5 1 C5 2.98 5 4.96 5 7 C3.35 7 1.7 7 0 7 C0 4.69 0 2.38 0 0 Z " fill="#80AEDD" transform="translate(121,310)"/>
<path d="M0 0 C3.63 0 7.26 0 11 0 C11 0.33 11 0.66 11 1 C8.36 1 5.72 1 3 1 C2.67 6.28 2.34 11.56 2 17 C1.67 17 1.34 17 1 17 C0.67 11.39 0.34 5.78 0 0 Z " fill="#608DC4" transform="translate(305,450)"/>
<path d="M0 0 C0.33 0 0.66 0 1 0 C0.67 3.96 0.34 7.92 0 12 C-1.32 11.34 -2.64 10.68 -4 10 C-4 5.75354935 -2.18249194 3.61475228 0 0 Z " fill="#FBB63A" transform="translate(725,444)"/>
<path d="M0 0 C3.65316671 1.24976756 4.78065836 1.67098753 7 5 C4.03 5 1.06 5 -2 5 C-1.34 3.35 -0.68 1.7 0 0 Z " fill="#FBBB48" transform="translate(1034,347)"/>
<path d="M0 0 C-1.1858237 3.37503669 -2.27573689 5.64722731 -5 8 C-6.5 6.625 -6.5 6.625 -8 5 C-8 4.34 -8 3.68 -8 3 C-2.25 0 -2.25 0 0 0 Z " fill="#90B8E1" transform="translate(517,196)"/>
<path d="M0 0 C2.64 0.99 5.28 1.98 8 3 C7.34 4.32 6.68 5.64 6 7 C5.01 7 4.02 7 3 7 C0 2.77777778 0 2.77777778 0 0 Z " fill="#FBB841" transform="translate(610,247)"/>
<path d="M0 0 C-0.28875 0.556875 -0.5775 1.11375 -0.875 1.6875 C-2.0413253 4.08494645 -3.0339881 6.51596939 -4 9 C-4.66 8.01 -5.32 7.02 -6 6 C-6.66 7.32 -7.32 8.64 -8 10 C-8.3125 7.8125 -8.3125 7.8125 -8 5 C-3.88888889 0 -3.88888889 0 0 0 Z " fill="#FDF1DC" transform="translate(625,228)"/>
<path d="M0 0 C0.721875 0.103125 1.44375 0.20625 2.1875 0.3125 C1.2903125 0.5909375 1.2903125 0.5909375 0.375 0.875 C-2.91231799 3.03523753 -3.46104687 5.66357655 -4.8125 9.3125 C-5.4725 8.6525 -6.1325 7.9925 -6.8125 7.3125 C-7.8025 7.9725 -8.7925 8.6325 -9.8125 9.3125 C-7.9542153 4.75125573 -5.1211191 0.56901323 0 0 Z " fill="#FDEFD5" transform="translate(566.8125,293.6875)"/>
<path d="M0 0 C-0.33 0.99 -0.66 1.98 -1 3 C-4.5625 4.6875 -4.5625 4.6875 -8 6 C-8 4.35 -8 2.7 -8 1 C-2.25 -1.125 -2.25 -1.125 0 0 Z " fill="#E6EFF8" transform="translate(516,194)"/>
<path d="M0 0 C0.99 0 1.98 0 3 0 C3.05437607 1.58294782 3.09296271 3.16644256 3.125 4.75 C3.14820313 5.63171875 3.17140625 6.5134375 3.1953125 7.421875 C3 10 3 10 1 14 C1 10.7 1 7.4 1 4 C0.34 4.99 -0.32 5.98 -1 7 C-0.67 4.69 -0.34 2.38 0 0 Z " fill="#FDEBCC" transform="translate(793,461)"/>
<path d="M0 0 C0.33 0.99 0.66 1.98 1 3 C-0.4375 5.6875 -0.4375 5.6875 -2 8 C-2.99 7.67 -3.98 7.34 -5 7 C-3.75023244 3.34683329 -3.32901247 2.21934164 0 0 Z " fill="#FDF2DF" transform="translate(1011,375)"/>
<path d="M0 0 C0.99 0.33 1.98 0.66 3 1 C2.25 5.75 2.25 5.75 0 8 C-0.66 8 -1.32 8 -2 8 C-1.7525 7.1028125 -1.7525 7.1028125 -1.5 6.1875 C-0.8885876 3.88655664 -0.8885876 3.88655664 -1 1 C-0.67 0.67 -0.34 0.34 0 0 Z " fill="#F8FAFC" transform="translate(528,205)"/>
<path d="M0 0 C0.763125 0.0825 1.52625 0.165 2.3125 0.25 C1.9825 1.57 1.6525 2.89 1.3125 4.25 C-0.9975 4.25 -3.3075 4.25 -5.6875 4.25 C-3.34903846 0.31153846 -3.34903846 0.31153846 0 0 Z " fill="#FDE9C5" transform="translate(813.6875,83.75)"/>
<path d="M0 0 C3.96 0 7.92 0 12 0 C12 0.99 12 1.98 12 3 C10.68 3 9.36 3 8 3 C8 2.34 8 1.68 8 1 C5.69 1 3.38 1 1 1 C1 2.65 1 4.3 1 6 C0.67 6 0.34 6 0 6 C0 4.02 0 2.04 0 0 Z " fill="#FDECCE" transform="translate(803,76)"/>
<path d="M0 0 C0.99 0 1.98 0 3 0 C2.67 2.64 2.34 5.28 2 8 C1.34 7.34 0.68 6.68 0 6 C-0.66 6.99 -1.32 7.98 -2 9 C-1.125 2.25 -1.125 2.25 0 0 Z " fill="#FDECCE" transform="translate(785,459)"/>
<path d="M0 0 C0.6875 1.75 0.6875 1.75 1 4 C-0.25 6.25 -0.25 6.25 -2 8 C-2.99 8 -3.98 8 -5 8 C-3.8141763 4.62496331 -2.72426311 2.35277269 0 0 Z " fill="#FEF7EB" transform="translate(721,447)"/>
<path d="M0 0 C0.66 0 1.32 0 2 0 C2 0.66 2 1.32 2 2 C3.65 2 5.3 2 7 2 C7 2.66 7 3.32 7 4 C4.69 4.33 2.38 4.66 0 5 C0 3.35 0 1.7 0 0 Z " fill="#FEFBF6" transform="translate(784,96)"/>
<path d="M0 0 C0.33 0.66 0.66 1.32 1 2 C1.66 2 2.32 2 3 2 C2.67 3.98 2.34 5.96 2 8 C1.01 8 0.02 8 -1 8 C-0.67 5.36 -0.34 2.72 0 0 Z " fill="#FDF1DC" transform="translate(767,469)"/>
<path d="M0 0 C1.65 0.99 3.3 1.98 5 3 C4.34 3.66 3.68 4.32 3 5 C1.68 5 0.36 5 -1 5 C-1.99 5.495 -1.99 5.495 -3 6 C-1.125 1.125 -1.125 1.125 0 0 Z " fill="#FBB83F" transform="translate(1021,381)"/>
<path d="M0 0 C6.0546875 -0.1953125 6.0546875 -0.1953125 8 0 C8.66 0.66 9.32 1.32 10 2 C9.67 2.66 9.34 3.32 9 4 C3.46153846 3.38461538 3.46153846 3.38461538 1.125 1.4375 C0.75375 0.963125 0.3825 0.48875 0 0 Z " fill="#FDF1DC" transform="translate(750,450)"/>
<path d="M0 0 C1.32 0 2.64 0 4 0 C3 3 3 3 1.1875 4.0625 C0.1046875 4.5265625 0.1046875 4.5265625 -1 5 C-2.11375 5.556875 -2.11375 5.556875 -3.25 6.125 C-3.8275 6.41375 -4.405 6.7025 -5 7 C-4.26708288 5.8225266 -3.51296199 4.65823146 -2.75 3.5 C-2.33234375 2.8503125 -1.9146875 2.200625 -1.484375 1.53125 C-0.74960937 0.77328125 -0.74960937 0.77328125 0 0 Z " fill="#FDF0D9" transform="translate(893,82)"/>
<path d="M0 0 C1.32 0 2.64 0 4 0 C4 0.66 4 1.32 4 2 C3.01 2.66 2.02 3.32 1 4 C-0.19232613 6.05003955 -0.19232613 6.05003955 -1 8 C-1.04241723 5.66705225 -1.04092937 3.33297433 -1 1 C-0.67 0.67 -0.34 0.34 0 0 Z " fill="#90B9E1" transform="translate(130,308)"/>
<path d="M0 0 C1.32 0.33 2.64 0.66 4 1 C4 2.32 4 3.64 4 5 C3.01 5.33 2.02 5.66 1 6 C0.67 4.02 0.34 2.04 0 0 Z " fill="#FDF2DD" transform="translate(881,79)"/>
<path d="M0 0 C0 3.51716303 -0.82445585 4.37121748 -3 7 C-4.32 6.67 -5.64 6.34 -7 6 C-4.69 4.02 -2.38 2.04 0 0 Z " fill="#FBBD4C" transform="translate(739,449)"/>
<path d="M0 0 C0.33 0 0.66 0 1 0 C1.125 5.75 1.125 5.75 0 8 C-0.66 8 -1.32 8 -2 8 C-1.125 1.125 -1.125 1.125 0 0 Z " fill="#FEFCF9" transform="translate(1055,312)"/>
<path d="M0 0 C-1.24976756 3.65316671 -1.67098753 4.78065836 -5 7 C-4.814375 6.38125 -4.62875 5.7625 -4.4375 5.125 C-3.76313824 2.95839822 -3.76313824 2.95839822 -5 1 C-3 0 -3 0 0 0 Z " fill="#FBBB49" transform="translate(618,265)"/>
<path d="M0 0 C1.98 0.495 1.98 0.495 4 1 C3.67 2.98 3.34 4.96 3 7 C2.34 6.01 1.68 5.02 1 4 C0.01 4.495 0.01 4.495 -1 5 C-0.67 3.35 -0.34 1.7 0 0 Z " fill="#DEE9F5" transform="translate(525,212)"/>
</svg>
