<?xml version="1.0" encoding="UTF-8"?>
<svg version="1.1" xmlns="http://www.w3.org/2000/svg" width="1024" height="1024">
<path d="M0 0 C0.59522461 0.40283203 1.19044922 0.80566406 1.80371094 1.22070312 C15.18933409 10.31744864 27.22138441 20.93471268 39 32 C39.65613281 32.61359375 40.31226563 33.2271875 40.98828125 33.859375 C46.14132975 38.83473217 50.53764748 44.40956477 55 50 C55.86499989 51.05151034 56.73090715 52.1022748 57.59765625 53.15234375 C97.97280153 102.59339113 116.9059668 170.98526155 111.28173828 234.28564453 C105.35526981 291.38311112 83.73706601 341.77415021 46 385 C45.55978516 385.5048291 45.11957031 386.0096582 44.66601562 386.52978516 C40.07491245 391.76426042 35.43019066 396.74164228 30.08984375 401.21484375 C28.58698699 402.49859242 27.12491931 403.83066035 25.69140625 405.19140625 C12.35527338 417.83738917 -3.12522812 427.8455958 -19 437 C-19.67289063 437.3913916 -20.34578125 437.7827832 -21.0390625 438.18603516 C-47.3986199 453.34924134 -77.01020252 462.58075415 -107 467 C-107.79100098 467.11714355 -108.58200195 467.23428711 -109.39697266 467.35498047 C-120.99609056 469.00499238 -132.18875797 469 -144 469 C-144 436.66 -144 404.32 -144 371 C-176.34 371 -208.68 371 -242 371 C-242 395.75 -242 420.5 -242 446 C-267.08 446 -292.16 446 -318 446 C-318 421.25 -318 396.5 -318 371 C-339.12 371 -360.24 371 -382 371 C-382 349.88 -382 328.76 -382 307 C-360.55 307 -339.1 307 -317 307 C-317 327.79 -317 348.58 -317 370 C-292.58 370 -268.16 370 -243 370 C-243 337.33 -243 304.66 -243 271 C-210 271 -177 271 -143 271 C-143 303.34 -143 335.68 -143 369 C-115.19142023 366.47194729 -93.14697512 362.03884475 -69 349 C-67.94039062 348.43410156 -66.88078125 347.86820313 -65.7890625 347.28515625 C-30.97052085 327.86536596 -5.52279298 293.74490628 5.30517578 255.62158203 C16.71059733 212.5887582 10.27080002 168.61377187 -11.80078125 130.02246094 C-14.54057125 125.40185419 -17.61727457 121.16576372 -21 117 C-21.81984375 115.96746094 -22.6396875 114.93492187 -23.484375 113.87109375 C-48.93147932 82.39655145 -86.75099951 63.84253953 -126.75 59.28125 C-167.34853276 56.14591777 -207.85557247 65.7834014 -240 91.625 C-241.67820037 93.07004581 -243.34536146 94.52803356 -245 96 C-245.83660156 96.71671875 -246.67320312 97.4334375 -247.53515625 98.171875 C-283.09902775 129.17345696 -295.08357521 168.11336865 -300 214 C-333 214 -366 214 -400 214 C-398.83620154 184.90503862 -398.83620154 184.90503862 -397.25 175.1875 C-397.0744458 174.06843262 -396.8988916 172.94936523 -396.71801758 171.79638672 C-390.86444775 135.93718737 -377.40847613 99.56590979 -356 70 C-355.33895264 69.08637695 -355.33895264 69.08637695 -354.66455078 68.15429688 C-339.27822298 47.00005004 -321.95640275 26.68357808 -300.67871094 11.22998047 C-298.92194482 9.94280948 -297.1987935 8.61811586 -295.4765625 7.28515625 C-218.89532756 -51.34960278 -111.1459051 -56.55705119 0 0 Z " fill="#007FFF" transform="translate(656,172)"/>
<path d="M0 0 C11.35362391 8.63832534 20.0106424 19.58165192 25 33 C25.3196875 33.85335937 25.639375 34.70671875 25.96875 35.5859375 C31.27618507 52.73681564 28.65027447 71.18338464 21.3125 87.1875 C12.75168544 103.30071237 -0.9606789 114.16068856 -18.09375 120.06640625 C-36.88188054 125.40863567 -55.31187797 123.56554517 -72.3671875 114.171875 C-77.3570438 111.26652017 -81.79247585 107.95689545 -86 104 C-86.69351563 103.35933594 -87.38703125 102.71867188 -88.1015625 102.05859375 C-98.3655365 91.61628816 -105.10767448 75.54760999 -106 61 C-106.05285156 60.20335937 -106.10570312 59.40671875 -106.16015625 58.5859375 C-106.78053469 40.29826003 -100.41357371 23.91362285 -88.59765625 10.21484375 C-65.80227704 -14.12031144 -27.83094733 -18.70433991 0 0 Z M-66 23 C-66.61359375 23.47824219 -67.2271875 23.95648437 -67.859375 24.44921875 C-74.04597044 29.88302049 -79.69138519 39.74934322 -81 48 C-81.86647135 62.16347393 -79.73963275 72.54685225 -71 84 C-64.14428641 91.71267779 -53.888769 97.52678501 -43.53125 98.23828125 C-30.99219908 98.58450878 -20.61419659 96.61315226 -11 88 C-10.39542969 87.49855469 -9.79085937 86.99710938 -9.16796875 86.48046875 C-1.27200838 79.41022973 3.19698105 68.95490645 4.25 58.5234375 C4.80067024 46.58077673 0.7585754 35.99613958 -7 27 C-15.56948221 17.89603865 -26.34454293 13.24527285 -38.75 12.625 C-48.88521076 12.87719809 -58.1841354 16.67653474 -66 23 Z " fill="#007FFF" transform="translate(623,736)"/>
<path d="M0 0 C75.19178082 0 75.19178082 0 95.5390625 18.28125 C108.63413813 31.77049179 111.51123605 48.88901503 111.421875 66.97485352 C111.02236308 83.78458047 106.33639664 99.37452089 94.4765625 111.75 C68.78631872 135.09003221 31.78019224 130 0 130 C0 87.1 0 44.2 0 0 Z M25 23 C25 50.72 25 78.44 25 107 C51.80499096 107.64642311 51.80499096 107.64642311 75.16015625 96.1484375 C83.92954925 86.80186576 86.537273 74.49322228 86.25 61.9609375 C85.28094461 50.48368775 82.7617495 41.39496632 74.4375 33.3125 C60.35123307 21.67139639 42.39313573 23 25 23 Z " fill="#0080FF" transform="translate(2,727)"/>
<path d="M0 0 C0.495 0.495 0.495 0.495 1 1 C1.33 -0.65 1.66 -2.3 2 -4 C9.92 -4 17.84 -4 26 -4 C26.06810483 7.0843235 26.12300455 18.16850526 26.15543652 29.25299168 C26.1710117 34.40140699 26.19209893 39.54967022 26.22631836 44.69799805 C26.25920515 49.67768256 26.27691407 54.65722192 26.28463173 59.63700676 C26.29012312 61.52536233 26.30084437 63.41371105 26.31719017 65.30200386 C26.56532733 95.18886442 26.56532733 95.18886442 18 107 C17.46890625 107.75796875 16.9378125 108.5159375 16.390625 109.296875 C10.19163538 117.19131478 0.91522576 122.34963431 -9 124 C-28.31008245 125.42607821 -41.3165346 122.76898006 -56.27734375 110.06640625 C-59.88946045 106.74039781 -59.88946045 106.74039781 -61 105 C-60.32982313 100.0981889 -57.04880737 97.53420886 -53.6875 94.1875 C-53.10548828 93.57712891 -52.52347656 92.96675781 -51.92382812 92.33789062 C-51.35470703 91.76619141 -50.78558594 91.19449219 -50.19921875 90.60546875 C-49.68190186 90.08106201 -49.16458496 89.55665527 -48.6315918 89.01635742 C-47 88 -47 88 -44.88671875 88.24633789 C-42.55156881 89.17912876 -41.77803603 90.22553582 -40.3125 92.25 C-35.53692346 98.05232549 -29.95009391 101.02054709 -22.5 102 C-15.78389815 102.31936708 -10.08860165 100.77260439 -4.625 96.8125 C-0.58419117 92.48306197 0.87253824 88.37928622 1.1875 82.5 C1.125625 81.675 1.06375 80.85 1 80 C0.46890625 80.27714844 -0.0621875 80.55429687 -0.609375 80.83984375 C-1.66898438 81.38318359 -1.66898438 81.38318359 -2.75 81.9375 C-3.44609375 82.29714844 -4.1421875 82.65679688 -4.859375 83.02734375 C-13.64146623 87.01774652 -27.18067254 86.44126304 -36.125 83.375 C-49.27484792 77.56460208 -56.53680884 69.19988424 -62 56 C-66.12460789 43.23335652 -64.69959145 29.06294099 -59.375 16.875 C-54.03591998 7.13067145 -45.24929591 -0.56596547 -35.0625 -4.875 C-22.843808 -8.41198979 -10.52621065 -7.10273279 0 0 Z M-32.6875 21.1875 C-38.6759714 28.47077602 -39.78891671 34.87388102 -39.37890625 44.2109375 C-38.69855461 51.01445394 -36.54325942 54.80749136 -31.5625 59.375 C-26.65219355 63.1952807 -22.54853993 64.48403269 -16.3359375 64.30859375 C-9.97199328 63.46787202 -5.14843977 60.0352232 -1.2578125 55.0390625 C3.19220408 47.82506047 3.87298443 40.16667745 2 32 C-0.20252667 25.36406128 -2.95646764 21.21640582 -9.1328125 17.83984375 C-17.44270523 14.10213049 -25.63658669 15.44838451 -32.6875 21.1875 Z " fill="#007FFF" transform="translate(232,769)"/>
<path d="M0 0 C10.43905625 8.85671509 14.71380211 19.93411478 16.625 33.3125 C16.625 38.5925 16.625 43.8725 16.625 49.3125 C-3.175 49.6425 -22.975 49.9725 -43.375 50.3125 C-40.233301 58.690364 -38.29108042 61.9613311 -30.5 65.6875 C-23.17873002 67.151754 -16.05311889 66.90670352 -9.375 63.3125 C-5.83225356 60.51402802 -2.5726131 57.49676189 0.625 54.3125 C6.02382424 58.90724404 11.33833087 63.58926273 16.625 68.3125 C12.07141518 78.10270737 2.2436017 83.74610342 -7.4375 87.5 C-20.23267063 91.03908975 -35.06072948 90.22494197 -46.75 83.625 C-57.82546136 76.17489424 -65.11213138 65.80582026 -67.8125 52.625 C-69.91362875 36.60972972 -67.18619543 20.9538387 -57.48828125 7.7421875 C-43.6195661 -8.76948516 -18.11619622 -12.48313713 0 0 Z M-37.375 19.3125 C-41.02711246 23.85987039 -41.02711246 23.85987039 -42.375 29.3125 C-31.155 29.3125 -19.935 29.3125 -8.375 29.3125 C-9.83061442 23.07042635 -9.83061442 23.07042635 -13.3125 18.9375 C-13.81652344 18.45539062 -14.32054687 17.97328125 -14.83984375 17.4765625 C-21.02275785 12.78824595 -31.89914596 14.1637749 -37.375 19.3125 Z " fill="#007FFF" transform="translate(819.375,769.6875)"/>
<path d="M0 0 C0.7412915 0.00563965 1.48258301 0.0112793 2.24633789 0.01708984 C13.41786589 0.26240441 22.93929855 3.52210779 31.50390625 10.87109375 C41.08333091 20.8826729 40.83833183 34.97829218 40.78515625 47.90234375 C40.7837413 49.20200577 40.78232635 50.50166779 40.78086853 51.8407135 C40.77707334 55.27493253 40.76726908 58.70910842 40.75616455 62.14331055 C40.74588555 65.65608131 40.74135708 69.16885912 40.73632812 72.68164062 C40.72564376 79.55861312 40.70807167 86.43555004 40.6875 93.3125 C32.7675 93.3125 24.8475 93.3125 16.6875 93.3125 C16.3575 91.6625 16.0275 90.0125 15.6875 88.3125 C14.93984375 88.73402344 14.1921875 89.15554688 13.421875 89.58984375 C12.43703125 90.13769531 11.4521875 90.68554688 10.4375 91.25 C9.46296875 91.79527344 8.4884375 92.34054687 7.484375 92.90234375 C-0.28195966 96.81805159 -10.9978794 96.48681642 -19.40625 94.62890625 C-27.86124442 91.48437901 -33.42640697 86.38361629 -37.3125 78.3125 C-39.65323339 71.22746134 -39.5566813 61.20567832 -36.6875 54.3125 C-31.5510326 44.82430327 -24.87752546 40.28958532 -14.58984375 37.19140625 C-9.96873893 36.09530538 -5.48067177 36.01719428 -0.75 36.0625 C0.06146484 36.05476562 0.87292969 36.04703125 1.70898438 36.0390625 C6.74569159 36.05532306 10.91413178 36.69788417 15.6875 38.3125 C14.90773548 31.52291895 14.90773548 31.52291895 11.5 25.8125 C5.20216066 22.45365235 -0.42513998 21.48693469 -7.3125 23.3125 C-12.94786251 25.84183685 -16.66202621 29.40717584 -20.3125 34.3125 C-23.61368794 33.7319679 -25.22384076 32.76381901 -27.546875 30.37109375 C-28.12050781 29.78779297 -28.69414063 29.20449219 -29.28515625 28.60351562 C-29.87167969 27.99185547 -30.45820312 27.38019531 -31.0625 26.75 C-31.66449219 26.13447266 -32.26648438 25.51894531 -32.88671875 24.88476562 C-34.36884381 23.36735187 -35.8415967 21.84079404 -37.3125 20.3125 C-32.67747575 11.57485293 -25.66068267 5.79127697 -16.3125 2.3125 C-10.75901065 0.69418759 -5.77340142 -0.04646868 0 0 Z M-14.4375 61.0625 C-15.78590218 64.52981989 -15.32397815 66.77232646 -14.3125 70.3125 C-11.59736793 73.08708752 -9.93571872 74.21013557 -6.078125 74.84375 C2.11255302 74.77094397 9.62584998 74.37415002 15.6875 68.3125 C15.93003813 66.10177023 15.93003813 66.10177023 15.8125 63.6875 C15.79445313 62.87023437 15.77640625 62.05296875 15.7578125 61.2109375 C15.73460937 60.58445312 15.71140625 59.95796875 15.6875 59.3125 C5.88200306 55.96971695 -5.85481602 53.99440731 -14.4375 61.0625 Z " fill="#007FFF" transform="translate(885.3125,762.6875)"/>
<path d="M0 0 C7.65750257 5.69266008 10.9627419 13.1610266 12.76316833 22.43716431 C13.21870086 25.62466663 13.34297047 28.62340547 13.33618164 31.84130859 C13.33606834 33.64249649 13.33606834 33.64249649 13.33595276 35.48007202 C13.33079147 36.76153107 13.32563019 38.04299011 13.3203125 39.36328125 C13.3184452 40.69992011 13.31702277 42.03655967 13.31602478 43.37319946 C13.3122242 46.87483644 13.30241516 50.37643131 13.2913208 53.87805176 C13.28105357 57.45775788 13.27651582 61.03747087 13.27148438 64.6171875 C13.26079047 71.62892519 13.24321383 78.64062811 13.22265625 85.65234375 C5.30265625 85.65234375 -2.61734375 85.65234375 -10.77734375 85.65234375 C-11.10734375 84.00234375 -11.43734375 82.35234375 -11.77734375 80.65234375 C-12.525 81.07386719 -13.27265625 81.49539063 -14.04296875 81.9296875 C-15.0278125 82.47753906 -16.01265625 83.02539062 -17.02734375 83.58984375 C-18.001875 84.13511719 -18.97640625 84.68039062 -19.98046875 85.2421875 C-27.74680341 89.15789534 -38.46272315 88.82666017 -46.87109375 86.96875 C-55.32608817 83.82422276 -60.89125072 78.72346004 -64.77734375 70.65234375 C-67.11807714 63.56730509 -67.02152505 53.54552207 -64.15234375 46.65234375 C-59.01587635 37.16414702 -52.34236921 32.62942907 -42.0546875 29.53125 C-37.43358268 28.43514913 -32.94551552 28.35703803 -28.21484375 28.40234375 C-27.40337891 28.39460937 -26.59191406 28.386875 -25.75585938 28.37890625 C-20.71915216 28.39516681 -16.55071197 29.03772792 -11.77734375 30.65234375 C-12.55710827 23.8627627 -12.55710827 23.8627627 -15.96484375 18.15234375 C-22.26268309 14.7934961 -27.88998373 13.82677844 -34.77734375 15.65234375 C-40.41270626 18.1816806 -44.12686996 21.74701959 -47.77734375 26.65234375 C-51.07853169 26.07181165 -52.68868451 25.10366276 -55.01171875 22.7109375 C-55.58535156 22.12763672 -56.15898437 21.54433594 -56.75 20.94335938 C-57.33652344 20.33169922 -57.92304688 19.72003906 -58.52734375 19.08984375 C-59.12933594 18.47431641 -59.73132813 17.85878906 -60.3515625 17.22460938 C-61.83368756 15.70719562 -63.30644045 14.18063779 -64.77734375 12.65234375 C-58.22629917 1.68527469 -50.05104015 -3.01627624 -38.0546875 -6.90625 C-24.89889028 -9.45617296 -11.21985099 -7.27245492 0 0 Z M-41.90234375 53.40234375 C-43.25074593 56.86966364 -42.7888219 59.11217021 -41.77734375 62.65234375 C-39.06221168 65.42693127 -37.40056247 66.54997932 -33.54296875 67.18359375 C-25.35229073 67.11078772 -17.83899377 66.71399377 -11.77734375 60.65234375 C-11.53480562 58.44161398 -11.53480562 58.44161398 -11.65234375 56.02734375 C-11.67039062 55.21007812 -11.6884375 54.3928125 -11.70703125 53.55078125 C-11.73023438 52.92429687 -11.7534375 52.2978125 -11.77734375 51.65234375 C-21.58284069 48.3095607 -33.31965977 46.33425106 -41.90234375 53.40234375 Z " fill="#0080FF" transform="translate(448.77734375,770.34765625)"/>
<path d="M0 0 C7.60396124 6.21717323 10.84155879 14.98884115 12.6875 24.375 C13.06882503 29.32943768 13.03985377 34.26542974 12.98046875 39.23046875 C12.97485858 40.62721801 12.97059522 42.02397326 12.96760559 43.42073059 C12.95626832 47.05889809 12.92690038 50.69669397 12.89349365 54.3347168 C12.86254972 58.06228613 12.84904883 61.78991678 12.83398438 65.51757812 C12.80201704 72.80357273 12.74934363 80.0891865 12.6875 87.375 C4.7675 87.375 -3.1525 87.375 -11.3125 87.375 C-11.3218457 85.59931641 -11.33119141 83.82363281 -11.34082031 81.99414062 C-11.37645687 76.10270103 -11.43032402 70.21157669 -11.49640274 64.32041168 C-11.53577716 60.75135052 -11.56801416 57.18253236 -11.58349609 53.61328125 C-11.5987298 50.16351111 -11.63329137 46.71440947 -11.68080902 43.26493835 C-11.70269091 41.31983638 -11.70496796 39.37454543 -11.70684814 37.42932129 C-11.83741181 29.47947468 -12.3891645 23.17944655 -18.375 17.375 C-24.10949349 15.422832 -30.67675027 15.1883781 -36.25 17.8125 C-40.9798634 21.7701408 -42.92436097 26.2994388 -43.69689941 32.42092896 C-43.86875827 35.93263676 -43.91834067 39.42551137 -43.921875 42.94140625 C-43.93841125 44.21604233 -43.95494751 45.49067841 -43.97198486 46.80393982 C-44.01211701 50.1626885 -44.0355851 53.52068456 -44.05072021 56.87957764 C-44.07040764 60.31896107 -44.11236368 63.75806881 -44.15234375 67.19726562 C-44.22606733 73.92314616 -44.27573626 80.64882001 -44.3125 87.375 C-52.2325 87.375 -60.1525 87.375 -68.3125 87.375 C-68.3125 57.015 -68.3125 26.655 -68.3125 -4.625 C-60.7225 -4.625 -53.1325 -4.625 -45.3125 -4.625 C-45.3125 -3.305 -45.3125 -1.985 -45.3125 -0.625 C-44.63703125 -0.97433594 -43.9615625 -1.32367187 -43.265625 -1.68359375 C-42.37359375 -2.13863281 -41.4815625 -2.59367188 -40.5625 -3.0625 C-39.23992188 -3.74119141 -39.23992188 -3.74119141 -37.890625 -4.43359375 C-25.88081644 -9.98358104 -10.65917182 -7.06596701 0 0 Z " fill="#007FFF" transform="translate(1009.3125,769.625)"/>
<path d="M0 0 C7.43796712 6.31390135 7.43796712 6.31390135 9 11 C6.77048251 13.37432028 4.513408 15.72050145 2.25 18.0625 C1.29867187 19.07666992 1.29867187 19.07666992 0.328125 20.11132812 C-0.290625 20.74619141 -0.909375 21.38105469 -1.546875 22.03515625 C-2.11245117 22.6269165 -2.67802734 23.21867676 -3.26074219 23.82836914 C-5 25 -5 25 -7.09960938 24.78051758 C-9.50019851 23.79456133 -10.89894543 22.43780964 -12.75 20.625 C-18.1187999 15.78313786 -23.67351278 13.31184178 -30.9921875 13.65625 C-37.22998341 14.72419949 -41.90216873 18.10069974 -45.74609375 23.0234375 C-49.80615277 29.42340592 -51.01239106 36.5350066 -50 44 C-47.98997239 51.65872058 -45.47612011 58.1552702 -38.4375 62.3125 C-32.79739049 64.88573432 -26.82661363 65.06021772 -20.87109375 63.41015625 C-14.64133485 60.67913063 -9.84729916 55.64863936 -5 51 C0.66129431 55.69766975 5.85228904 60.74723372 11 66 C4.66224396 77.02218441 -5.09304972 82.2325674 -16.75 86.3125 C-29.57902934 89.01472908 -42.97761443 87.1663695 -54 80 C-55.34323148 79.01333543 -56.67813109 78.01510608 -58 77 C-58.86625 76.4225 -59.7325 75.845 -60.625 75.25 C-69.42696809 66.91129339 -74.51599455 55.49801871 -75.203125 43.43359375 C-75.38452996 27.96882109 -72.67840706 15.81557567 -61.75 4.25 C-44.41229384 -12.13254038 -19.64424158 -13.45660585 0 0 Z " fill="#007FFF" transform="translate(737,772)"/>
<path d="M0 0 C7.92 0 15.84 0 24 0 C24 8.25 24 16.5 24 25 C30.93 25 37.86 25 45 25 C45 31.93 45 38.86 45 46 C38.07 46 31.14 46 24 46 C24.07398342 52.05133331 24.1567984 58.10118382 24.26245117 64.15185547 C24.29570011 66.21004553 24.32373214 68.26832676 24.34643555 70.32666016 C24.3799819 73.28587691 24.43229802 76.24425817 24.48828125 79.203125 C24.49467117 80.12305237 24.5010611 81.04297974 24.50764465 81.99078369 C24.59586609 86.99305634 24.59586609 86.99305634 26.42163086 91.56762695 C29.83059735 94.66127064 34.33854408 94.25369809 38.75 94.5625 C40.8125 94.706875 42.875 94.85125 45 95 C45 101.93 45 108.86 45 116 C34.44489572 118.63877607 20.30634714 118.22948808 10.625 112.875 C4.3867659 108.50312282 1.98368856 102.81965853 0.42312622 95.59494019 C-0.31185423 91.08746647 -0.2443176 86.61484932 -0.1953125 82.05859375 C-0.1924826 81.05031021 -0.18965271 80.04202667 -0.18673706 79.00318909 C-0.17563177 75.81450017 -0.15054545 72.62610259 -0.125 69.4375 C-0.11495772 67.26237388 -0.10583406 65.08724331 -0.09765625 62.91210938 C-0.07572411 57.60796238 -0.04126168 52.30403041 0 47 C-4.29 47 -8.58 47 -13 47 C-13 39.74 -13 32.48 -13 25 C-8.71 25 -4.42 25 0 25 C0 16.75 0 8.5 0 0 Z " fill="#0080FF" transform="translate(327,740)"/>
<path d="M0 0 C7.92 0 15.84 0 24 0 C24 42.9 24 85.8 24 130 C16.08 130 8.16 130 0 130 C0 87.1 0 44.2 0 0 Z " fill="#0080FF" transform="translate(478,727)"/>
<path d="M0 0 C7.92 0 15.84 0 24 0 C24 30.36 24 60.72 24 92 C16.08 92 8.16 92 0 92 C0 61.64 0 31.28 0 0 Z " fill="#0080FF" transform="translate(129,765)"/>
<path d="M0 0 C7.59 0 15.18 0 23 0 C23 30.36 23 60.72 23 92 C15.41 92 7.82 92 0 92 C0 61.64 0 31.28 0 0 Z " fill="#0080FF" transform="translate(277,765)"/>
<path d="M0 0 C3.33546099 2.74685023 4.74668747 5.44045661 5.9375 9.5625 C6.21278983 14.24242719 5.94565984 18.69098079 2.72265625 22.3359375 C-2.13276061 26.44345396 -5.23603871 27.04469518 -11.40234375 26.96484375 C-16.0064705 26.56480114 -18.12365285 24.58483016 -21.125 21.25 C-24.04450328 17.07928103 -24.2141284 13.75214383 -23.875 8.75 C-22.04657234 3.56945496 -19.6217292 1.42003518 -14.875 -1.25 C-9.838947 -2.92868433 -4.82744113 -2.09888745 0 0 Z " fill="#0080FF" transform="translate(149.875,727.25)"/>
<path d="M0 0 C5.71155762 4.82832706 5.71155762 4.82832706 6.1328125 9.0546875 C6.28996425 15.1091656 6.20587314 19.00315235 1.89453125 23.6640625 C-1.96514051 27.06965523 -5.72555548 27.12514769 -10.671875 26.94140625 C-14.14333965 26.54578187 -16.2865945 25.74466016 -19.10546875 23.6640625 C-22.95928388 18.49183693 -23.81602758 15.05909194 -23.10546875 8.6640625 C-21.39258664 3.97617463 -19.26750318 1.40491444 -15.10546875 -1.3359375 C-10.03886906 -2.96897376 -4.56808878 -2.89849047 0 0 Z " fill="#0080FF" transform="translate(297.10546875,727.3359375)"/>
</svg>
