<?xml version="1.0" encoding="UTF-8"?>
<svg version="1.1" xmlns="http://www.w3.org/2000/svg" width="150" height="150">
<path d="M0 0 C0.72445312 -0.01224609 1.44890625 -0.02449219 2.1953125 -0.03710938 C6.00700298 -0.04765833 7.7536304 0.0232536 11 2.1875 C10.01 4.1675 9.02 6.1475 8 8.1875 C7.34 8.1875 6.68 8.1875 6 8.1875 C6.01571045 8.82252441 6.0314209 9.45754883 6.04760742 10.11181641 C6.1102859 13.0119523 6.14909417 15.91194524 6.1875 18.8125 C6.21263672 19.81152344 6.23777344 20.81054688 6.26367188 21.83984375 C6.33180164 28.69824026 5.61998537 33.15814191 1 38.5 C-4.52600361 41.60837703 -10.61274606 41.79442897 -16.6875 40.25 C-17.8321875 39.7240625 -17.8321875 39.7240625 -19 39.1875 C-19 36.5475 -19 33.9075 -19 31.1875 C-18.24074219 31.27128906 -17.48148437 31.35507813 -16.69921875 31.44140625 C-15.70535156 31.54324219 -14.71148437 31.64507812 -13.6875 31.75 C-12.70136719 31.85441406 -11.71523437 31.95882812 -10.69921875 32.06640625 C-7.90069653 32.35352527 -7.90069653 32.35352527 -5 31.1875 C-3.79117904 29.18733534 -3.79117904 29.18733534 -3 27.1875 C-3.66386719 27.23390625 -4.32773438 27.2803125 -5.01171875 27.328125 C-12.22576743 27.62300582 -12.22576743 27.62300582 -16 25.5 C-19.07026801 21.95000262 -19.88844753 19.41457713 -20.3125 14.75 C-19.96039734 10.7360297 -19.23239973 8.5360996 -17 5.1875 C-11.32222621 0.8108827 -6.99711418 0.00622519 0 0 Z M-10 10.1875 C-10.66117294 13.12671426 -10.39085459 15.1095201 -10 18.1875 C-7.04622502 20.55730013 -7.04622502 20.55730013 -3 20.1875 C-3 15.8975 -3 11.6075 -3 7.1875 C-6.16955691 7.1875 -7.59140121 8.15920628 -10 10.1875 Z " fill="#000000" transform="translate(114,59.8125)"/>
<path d="M0 0 C2.64 0 5.28 0 8 0 C8.02464849 5.39346988 8.04283531 10.78690725 8.05493164 16.18041992 C8.05997231 18.01668875 8.06680477 19.85295354 8.07543945 21.68920898 C8.08751672 24.32276401 8.09323081 26.95626616 8.09765625 29.58984375 C8.10281754 30.41588608 8.10797882 31.24192841 8.11329651 32.09300232 C8.11349205 34.06236368 8.06204152 36.03161614 8 38 C5.91321478 40.08678522 1.61669969 39.23104661 -1.25 39.25 C-2.01441406 39.270625 -2.77882813 39.29125 -3.56640625 39.3125 C-8.21465012 39.34461222 -11.25076512 39.03770125 -15 36 C-18.11957247 32.83274848 -18.408143 30.44290015 -18.375 26.0625 C-18.38273437 25.04285156 -18.39046875 24.02320312 -18.3984375 22.97265625 C-17.94591078 19.59645198 -17.00532718 17.73106464 -15 15 C-9.99261901 11.54252265 -5.86845206 11.73325218 0 12 C0 8.04 0 4.08 0 0 Z M-5 19 C-7.45714369 20.45668762 -7.45714369 20.45668762 -9 23 C-9.45742277 26.20195936 -9.55468045 28.07553259 -7.875 30.875 C-5.50694157 32.51449576 -5.50694157 32.51449576 0 32 C0 28.04 0 24.08 0 20 C-1.65 19.67 -3.3 19.34 -5 19 Z " fill="#000000" transform="translate(18,48)"/>
<path d="M0 0 C1.18722656 -0.02835938 2.37445313 -0.05671875 3.59765625 -0.0859375 C7.5987065 0.46625423 9.20102481 1.43266154 11.9375 4.375 C13.59586958 8.82135321 13.04822595 13.98732448 13 18.6875 C12.99548828 19.52345703 12.99097656 20.35941406 12.98632812 21.22070312 C12.97460548 23.27216649 12.95667203 25.32359273 12.9375 27.375 C9.9675 27.375 6.9975 27.375 3.9375 27.375 C3.4425 17.97 3.4425 17.97 2.9375 8.375 C1.2875 8.375 -0.3625 8.375 -2.0625 8.375 C-2.3925 14.645 -2.7225 20.915 -3.0625 27.375 C-6.3625 27.375 -9.6625 27.375 -13.0625 27.375 C-13.0625 19.125 -13.0625 10.875 -13.0625 2.375 C-8.04753728 0.70334576 -5.10314629 0.05552934 0 0 Z " fill="#000000" transform="translate(80.0625,59.625)"/>
<path d="M0 0 C3.2262505 1.63738277 5.35978168 3.71956336 7 7 C7.14851844 8.93359586 7.22130833 10.87342097 7.25 12.8125 C7.27578125 13.85019531 7.3015625 14.88789062 7.328125 15.95703125 C6.86089362 20.29004605 5.26404311 22.74147673 2.2109375 25.78125 C-2.40540051 28.32594516 -7.91616061 27.69382423 -13 27 C-16.28390845 25.38789949 -18.34264388 23.31471225 -20 20 C-20.14851844 18.06640414 -20.22130833 16.12657903 -20.25 14.1875 C-20.27578125 13.14980469 -20.3015625 12.11210938 -20.328125 11.04296875 C-19.94786116 7.51647435 -19.1766634 5.78707553 -17 3 C-11.78915253 -1.00699232 -6.32001202 -0.93946125 0 0 Z M-9.6875 8.0625 C-11.72262773 11.06673617 -11.37794588 13.47250511 -11 17 C-9.91325006 19.08984231 -9.91325006 19.08984231 -8 20 C-5.02602384 19.72963853 -4.14553974 19.14553974 -2 17 C-1.49225203 12.27278254 -1.49225203 12.27278254 -3.3125 8.0625 C-5.71079144 6.55246465 -7.28920856 6.55246465 -9.6875 8.0625 Z " fill="#000000" transform="translate(143,60)"/>
<path d="M0 0 C0.92941406 -0.01675781 1.85882813 -0.03351562 2.81640625 -0.05078125 C5.97115078 0.38646352 7.17100966 1.09091716 9.4375 3.3125 C9.89160156 5.85620117 9.89160156 5.85620117 9.828125 8.85546875 C9.80878906 10.46518555 9.80878906 10.46518555 9.7890625 12.10742188 C9.75554688 13.22697266 9.72203125 14.34652344 9.6875 15.5 C9.66945313 16.63115234 9.65140625 17.76230469 9.6328125 18.92773438 C9.58562652 21.72350376 9.51980595 24.51757972 9.4375 27.3125 C6.68690619 27.39357646 3.93870979 27.45302813 1.1875 27.5 C0.41019531 27.52513672 -0.36710937 27.55027344 -1.16796875 27.57617188 C-4.60013166 27.62017396 -6.95860364 27.60928266 -10.07421875 26.078125 C-12.43713371 23.27487681 -12.18216858 21.0091509 -12.00390625 17.47265625 C-11.5625 15.3125 -11.5625 15.3125 -9.5625 12.8125 C-5.75526295 10.90888148 -2.79870731 10.5997005 1.4375 10.3125 C1.4375 9.3225 1.4375 8.3325 1.4375 7.3125 C-2.5225 7.9725 -6.4825 8.6325 -10.5625 9.3125 C-10.5625 7.0025 -10.5625 4.6925 -10.5625 2.3125 C-6.91688779 0.65179462 -4.00212474 0.01669871 0 0 Z M-3.5625 18.3125 C-3.2325 19.3025 -2.9025 20.2925 -2.5625 21.3125 C-0.9125 21.3125 0.7375 21.3125 2.4375 21.3125 C2.4375 19.6625 2.4375 18.0125 2.4375 16.3125 C-0.74740007 16.0351499 -0.74740007 16.0351499 -3.5625 18.3125 Z " fill="#000000" transform="translate(53.5625,59.6875)"/>
<path d="M0 0 C2.97 0 5.94 0 9 0 C9.09938095 4.16253275 9.17170617 8.32442479 9.21972656 12.48779297 C9.23975843 13.90197795 9.26699248 15.31608097 9.30175781 16.72998047 C9.35065489 18.77071419 9.37305123 20.8103469 9.390625 22.8515625 C9.41157227 24.07697754 9.43251953 25.30239258 9.45410156 26.56494141 C8.90929632 30.68612946 7.5936566 32.78866671 5 36 C2 38 2 38 -0.9375 37.8125 C-3.9973298 37.00070842 -5.65407229 36.07524374 -8 34 C-6.47005208 32.79557292 -4.94010417 31.59114583 -3.41015625 30.38671875 C-0.48923665 27.51434629 -0.81517066 23.87285514 -0.68359375 20.01953125 C-0.64169922 18.85615234 -0.59980469 17.69277344 -0.55664062 16.49414062 C-0.51732422 15.27919922 -0.47800781 14.06425781 -0.4375 12.8125 C-0.39431641 11.58595703 -0.35113281 10.35941406 -0.30664062 9.09570312 C-0.2004691 6.06391619 -0.09842048 3.03204685 0 0 Z " fill="#000000" transform="translate(30,60)"/>
<path d="M0 0 C2.97 0 5.94 0 9 0 C9 2.97 9 5.94 9 9 C6.03 9 3.06 9 0 9 C0 6.03 0 3.06 0 0 Z " fill="#000000" transform="translate(30,48)"/>
</svg>
