<svg xmlns="http://www.w3.org/2000/svg" xmlnsXlink="http://www.w3.org/1999/xlink" version="1.1" id="Capa_1" x="0px" y="0px" viewBox="0 0 512 512" style="enable-background:new 0 0 512 512;" xml:space="preserve" width="512" height="512">
<g>
	<path id="path66_17_" style="fill:#FFA100;" d="M29.653,201.648L29.653,201.648L0.957,289.816   c-2.599,8.006,0.208,16.843,7.07,21.834l247.972,180.183l-79.366-155.859L29.653,201.648L29.653,201.648z"/>
	<path id="path66_6_" style="fill:#FFA100;" d="M482.347,201.648L482.347,201.648l28.696,88.168   c2.599,8.006-0.208,16.843-7.07,21.834L256.001,491.832l87.212-184.854L482.347,201.648L482.347,201.648z"/>
	<path id="path58_18_" style="fill:#FF6D18;" d="M256,491.832l-0.001-178.6l-94.302-111.585l-65.97-32.822l-66.074,32.822   L256,491.832L256,491.832z"/>
	<path id="path58_17_" style="fill:#FF6D18;" d="M256,491.832l0.001-189.402l94.302-100.783l71.367-32.822l60.677,32.822   L256,491.832L256,491.832z"/>
	<path id="path50_10_" style="fill:#FC3819;" d="M256,491.832L256,491.832l94.302-290.185H161.698L256,491.832L256,491.832z"/>
	<path id="path74_3_" style="fill:#FC3819;" d="M29.654,201.65h132.148L104.929,26.874c-2.911-8.942-15.596-8.942-18.611,0   L29.654,201.65L29.654,201.65z"/>
	<path id="path86_3_" style="fill:#FC3819;" d="M482.346,201.65H350.198l56.769-174.776c2.911-8.942,15.596-8.942,18.611,0   L482.346,201.65L482.346,201.65z"/>
</g>















</svg>
