<svg width="48" height="48" viewBox="0 0 48 48" fill="none" xmlns="http://www.w3.org/2000/svg">
<path d="M42 24C42 33.936 33.945 42 24 42C14.055 42 6 33.936 6 24C6 14.055 14.055 6 24 6C33.945 6 42 14.055 42 24Z" fill="#283544"/>
<path d="M12.5383 30.2219H14.5042V21.0997H12.5383V30.2219ZM13.5173 19.9035C14.1253 19.9035 14.6148 19.3871 14.6148 18.7417C14.6148 18.079 14.1253 17.5713 13.5173 17.5713C12.9173 17.5713 12.4277 18.079 12.4277 18.7417C12.4277 19.3871 12.9173 19.9035 13.5173 19.9035Z" fill="white"/>
<path d="M21.3733 17.5971C18.0493 17.5971 15.9649 20.067 15.9649 24.0171C15.9649 27.9672 18.0493 30.4284 21.3733 30.4284C24.6894 30.4284 26.7738 27.9672 26.7738 24.0171C26.7738 20.067 24.6894 17.5971 21.3733 17.5971ZM21.3733 19.4904C23.4024 19.4904 24.6973 21.246 24.6973 24.0171C24.6973 26.7796 23.4024 28.5351 21.3733 28.5351C19.3363 28.5351 18.0493 26.7796 18.0493 24.0171C18.0493 21.246 19.3363 19.4904 21.3733 19.4904Z" fill="white"/>
<path d="M27.9344 26.7279C28.0213 29.0171 29.7425 30.4284 32.3638 30.4284C35.1193 30.4284 36.8563 28.9482 36.8563 26.5902C36.8563 24.74 35.8773 23.6987 33.5639 23.1221L32.2533 22.795C30.8558 22.4336 30.2794 21.9517 30.2794 21.1255C30.2794 20.0928 31.1479 19.4043 32.4349 19.4043C33.7376 19.4043 34.6298 20.1014 34.7245 21.2632H36.6668C36.6194 19.0773 34.9614 17.5971 32.4506 17.5971C29.9715 17.5971 28.2108 19.0859 28.2108 21.289C28.2108 23.0618 29.2056 24.1634 31.3058 24.6883L32.7823 25.067C34.2192 25.437 34.8035 25.9534 34.8035 26.8484C34.8035 27.8811 33.8481 28.6212 32.4743 28.6212C31.0847 28.6212 30.0346 27.8725 29.9083 26.7279H27.9344Z" fill="white"/>
</svg>
