<svg width="218" height="54" viewBox="0 0 218 54" fill="none" xmlns="http://www.w3.org/2000/svg">
<path fill-rule="evenodd" clip-rule="evenodd" d="M100.168 29.1447C102.043 24.3967 104.092 19.2117 103.437 14.4481C103.026 11.4674 101.082 8.22819 98.9494 6.87091C98.9094 6.84651 98.8081 6.76994 98.6994 6.68779C98.5701 6.59006 98.4302 6.4843 98.3709 6.44934C96.7923 5.53508 94.2648 4.7646 92.5052 4.58318C83.4322 3.65273 78.0196 7.68392 74.9084 13.1149C73.6843 15.248 72.8739 17.5782 72.242 20.0474C71.5434 22.7826 71.042 26.0994 71.4421 29.1125C71.6823 30.9173 72.6741 33.4824 74.1085 34.9782C77.2701 38.2735 83.1506 38.233 89.6587 38.1881C90.4222 38.1829 91.1944 38.1776 91.9718 38.1776C94.2411 38.1776 99.6827 38.1324 101.325 38.0895C101.856 38.0737 103.378 31.8775 103.242 31.6772C103.183 31.6067 102.771 31.6135 102.145 31.6238C101.401 31.636 100.353 31.6532 99.2295 31.5519C99.5273 30.7653 99.8449 29.9615 100.168 29.1447ZM94.5602 22.7724C94.4034 23.2909 94.2475 23.8063 94.1049 24.3131C94.0524 24.4992 93.9999 24.6855 93.9474 24.8718C93.3288 27.0689 92.7092 29.2695 91.9718 31.2455C91.1065 31.2404 90.251 31.255 89.4179 31.2693C85.0636 31.344 81.3211 31.4081 79.9739 28.5791C79.0675 26.6727 79.4755 24.0917 79.9739 21.647C80.6431 18.3543 81.283 15.9627 83.1736 13.9148C84.6348 12.3339 88.3114 10.3955 92.2387 11.7821C93.5425 12.2432 95.5634 14.4376 95.7045 16.8476C95.8087 18.6441 95.1772 20.7322 94.5602 22.7724Z" fill="#1A1918"/>
<path d="M198.666 7.7373L206.886 7.78246C206.886 7.78246 191.603 28.491 190.355 30.1787C190.237 30.3387 190.1 30.5024 189.958 30.6722C189.616 31.0824 189.243 31.5286 189.022 32.0453C188.233 33.8821 187.423 37.911 187.423 37.911L179.901 37.9483C179.901 37.9483 181.072 33.7488 181.023 31.5119C180.994 30.1743 180.518 28.838 180.041 27.4994C179.821 26.8823 179.6 26.2646 179.424 25.6462C178.858 23.6626 178.091 19.7804 178.091 19.7804H185.823L186.889 24.0465L198.666 7.7373Z" fill="#1A1918"/>
<path d="M183.101 12.1048C184.618 13.0194 185.549 18.0639 185.549 18.0639C185.549 18.0639 177.611 18.1809 173.292 18.1809H169.559L165.026 37.9112H158.094C158.094 37.9112 162.408 16.4694 163.427 12.582C163.712 11.494 165.195 11.508 167.699 11.5318C168.09 11.5355 168.507 11.5394 168.948 11.5394H174.155C174.939 11.5394 175.754 11.5161 176.563 11.4929C179.226 11.4167 181.833 11.3421 183.101 12.1048Z" fill="#1A1918"/>
<path fill-rule="evenodd" clip-rule="evenodd" d="M156.561 27.2674C156.561 27.2674 158.244 19.7862 157.361 16.6026C157.311 16.4218 157.262 16.2256 157.211 16.0241L157.211 16.0236L157.211 16.0232C157.043 15.3509 156.861 14.6194 156.561 14.2031C155.108 12.1766 152.133 11.4727 150.162 11.2702C144.928 10.7342 140.572 12.1341 138.164 13.9366L138.037 14.0313C137.365 14.5321 136.8 14.9538 136.298 15.5363C136.106 15.7599 135.898 16.0105 135.719 16.2691C135.649 16.369 135.572 16.4544 135.495 16.5398C135.404 16.6414 135.312 16.7432 135.231 16.8691C135.095 17.0754 134.955 17.3942 134.802 17.7396L134.802 17.7401L134.802 17.7405C134.706 17.9576 134.605 18.1853 134.498 18.4022C134.286 18.8337 134.084 19.338 133.92 19.7474L133.898 19.802C132.453 23.412 130.979 30.1494 132.298 33.6661C132.493 34.1863 132.928 34.8446 133.077 35.0448C133.143 35.1331 133.206 35.2262 133.27 35.3192C133.387 35.4904 133.504 35.6611 133.632 35.7991C134.354 36.5779 135.424 37.1271 136.564 37.3988C142.343 38.7776 153.895 38.1987 153.895 38.1987L155.311 31.9279C155.311 31.9279 147.136 32.296 143.23 31.7999C143.158 31.7908 143.071 31.7815 142.972 31.771C142.259 31.6954 140.917 31.553 140.185 30.912C139.46 30.2778 138.604 28.7764 139.231 27.8007C139.578 27.2575 140.746 27.2651 141.953 27.273C142.293 27.2752 142.635 27.2774 142.964 27.2674C147.776 27.1206 156.561 27.2674 156.561 27.2674ZM150.096 18.9807C151.045 20.4471 150.829 21.7137 150.829 21.7137L140.497 21.6471C140.497 21.6471 140.38 17.1838 146.403 17.3731C148.536 17.4397 149.285 17.7303 150.096 18.9807Z" fill="#1A1918"/>
<path d="M125.566 11.5152L132.288 11.4753C132.288 11.4753 128.542 29.2456 126.633 37.911H118.901C118.191 37.911 117.492 37.9225 116.808 37.9338C112.28 38.0085 108.415 38.0723 106.636 34.7113C104.931 31.4866 106.087 26.4776 107.011 22.4692C107.164 21.8082 107.31 21.1744 107.436 20.5803C108.065 17.6101 109.391 11.5393 109.391 11.5393L116.355 11.4753C116.355 11.4753 114.387 20.9269 113.568 25.6462C113.503 26.0226 113.422 26.3941 113.343 26.7581C113.067 28.0285 112.811 29.2068 113.302 30.1787C113.902 31.3681 114.742 31.4532 117.301 31.5119C118.112 31.5307 120.767 31.5119 120.767 31.5119L125.566 11.5152Z" fill="#1A1918"/>
<path d="M70.141 14.0743L70.1407 14.0756C69.8687 15.3799 69.5933 16.7007 69.3091 17.9143H61.8437C62.0737 17.0259 62.2823 16.1397 62.4864 15.2721C62.7957 13.9577 63.0949 12.686 63.4434 11.5152C64.6099 11.5152 65.7364 11.5228 66.8893 11.5306C68.0974 11.5388 69.3345 11.5472 70.6769 11.5472C70.4988 12.3584 70.3207 13.2127 70.141 14.0743Z" fill="#1A1918"/>
<path d="M68.7758 19.7805H61.5772C61.2121 20.9805 59.2816 29.0538 58.6443 32.0454C58.5018 32.7158 58.3753 33.3896 58.2507 34.0532C57.4131 38.5135 56.6628 42.5093 51.7123 41.9103C51.4607 42.8353 51.1777 43.9058 50.8858 45.0101C50.5466 46.2932 50.1953 47.6219 49.8672 48.8213C50.4936 48.8341 51.1066 48.8564 51.7049 48.8782C53.3348 48.9374 54.8561 48.9927 56.2448 48.8424C57.4124 48.7148 59.5213 48.2108 59.9775 47.776C60.072 47.6858 60.1516 47.6636 60.2367 47.6399C60.3173 47.6174 60.4028 47.5936 60.5105 47.5092C62.9175 45.6291 63.5608 43.0499 64.4359 39.5412C64.4604 39.4428 64.4851 39.3437 64.5101 39.2439C65.9712 33.3944 67.8348 24.9906 68.7758 19.7805Z" fill="#1A1918"/>
<path d="M40.7813 20.7377C42.008 20.4764 44.7862 18.3863 45.2687 17.2797C41.274 19.9982 38.734 19.2359 37.4534 18.8516C37.3989 18.8352 37.3466 18.8196 37.2967 18.8049C37.0272 18.7277 36.4035 18.4477 35.8223 18.0984C35.7821 18.0742 35.7424 18.0504 35.7034 18.0269C34.4915 17.2994 33.8631 16.9221 32.8895 15.5065C32.3373 14.7044 31.7855 13.4296 31.6044 12.699C31.3056 11.4911 31.3884 9.63288 31.9564 8.0332C30.071 9.71569 29.7804 12.9659 30.4124 15.1147C30.4926 15.3868 30.9405 16.4558 31.1829 16.8476C32.8123 19.4688 35.9236 21.7724 40.7813 20.7377Z" fill="#21609B"/>
<path d="M37.315 28.0457C40.4188 28.0672 43.6607 26.6165 45.5803 24.5799C43.9008 28.8433 39.0378 31.5838 32.516 30.7121C27.0556 29.9815 21.8539 24.4865 21.3179 18.9806C20.926 14.9735 22.3228 12.5819 24.6241 9.68102C23.8243 11.1983 23.5254 12.3685 23.4509 13.1149C22.5765 21.7829 30.3751 28.0005 37.315 28.0457Z" fill="#21609B"/>
<path d="M44.7804 33.3785L44.6261 33.7782C41.997 38.8972 37.3391 42.0382 30.695 42.1767C27.589 42.2407 24.6294 41.4439 22.6962 40.577C18.5239 38.7026 15.0147 35.2262 13.0981 31.5119C10.349 26.1875 9.85324 18.7808 15.5695 13.2485C15.6136 13.2485 15.4403 13.5484 15.2669 13.8483C15.0936 14.1482 14.9203 14.4481 14.9643 14.4481L14.807 14.96C10.6877 27.8564 23.3786 38.9081 35.7153 37.6442C38.6802 37.3404 42.4611 35.7167 44.7804 33.3785Z" fill="#21609B"/>
</svg>
