<?xml version="1.0" encoding="UTF-8"?>
<svg version="1.1" xmlns="http://www.w3.org/2000/svg" width="150" height="150">
<path d="M0 0 C1.81640625 2.23828125 1.81640625 2.23828125 3.5625 5.3125 C4.24040232 6.48205098 4.91882467 7.65130064 5.59765625 8.8203125 C5.97035645 9.47418945 6.34305664 10.12806641 6.72705078 10.80175781 C8.17650461 13.3048039 9.67613559 15.77365223 11.18359375 18.2421875 C12.28909815 20.05726995 13.39456697 21.87237408 14.5 23.6875 C15.04084229 24.57284424 15.58168457 25.45818848 16.13891602 26.37036133 C16.63963623 27.20075928 17.14035645 28.03115723 17.65625 28.88671875 C18.10806641 29.63139404 18.55988281 30.37606934 19.02539062 31.14331055 C20 33 20 33 20 35 C27.92 33.02 35.84 31.04 44 29 C42.824375 27.246875 41.64875 25.49375 40.4375 23.6875 C38.43359375 20.69921875 38.43359375 20.69921875 37 18 C37.495 16.515 37.495 16.515 38 15 C40.22209979 14.52791655 42.45329919 14.09851947 44.6875 13.6875 C46.54955078 13.32205078 46.54955078 13.32205078 48.44921875 12.94921875 C52 13 52 13 54.78125 15.2578125 C55.5134375 16.16273437 56.245625 17.06765625 57 18 C57.52207031 18.57105469 58.04414062 19.14210938 58.58203125 19.73046875 C62 23.77777778 62 23.77777778 62 26 C62.66 26 63.32 26 64 26 C64 26.99 64 27.98 64 29 C59.05 30.485 59.05 30.485 54 32 C54 35.96659431 57.9145602 39.32610193 60.25 42.37109375 C62 45 62 45 62 48 C58.16945571 49.46573273 54.33509869 50.92123003 50.5 52.375 C49.42234375 52.7875 48.3446875 53.2 47.234375 53.625 C35.08262435 58.21895452 35.08262435 58.21895452 30 59 C28.26171875 58.07421875 28.26171875 58.07421875 27 56 C26.32582031 54.89269531 25.65164062 53.78539062 24.95703125 52.64453125 C24.2372102 51.36998572 23.52249499 50.09254522 22.8125 48.8125 C22.44447266 48.15830078 22.07644531 47.50410156 21.69726562 46.83007812 C20.7937534 45.22253039 19.8962759 43.61159349 19 42 C12.84250377 42.6932992 12.84250377 42.6932992 6.8125 44.0625 C0.38197425 45.64377682 0.38197425 45.64377682 -2 45 C-6.99252937 38.06844833 -10.32705034 30.21178629 -13.84082031 22.4621582 C-14.88267216 20.17062522 -15.94088429 17.88711175 -17 15.60351562 C-17.66506481 14.14629036 -18.32916308 12.6886235 -18.9921875 11.23046875 C-19.3097702 10.54921432 -19.62735291 9.8679599 -19.95455933 9.1660614 C-22.11451851 4.34355554 -22.11451851 4.34355554 -21 1 C-18.4385681 0.6358011 -15.87641581 0.28337202 -13.3125 -0.0625 C-12.59126953 -0.16626953 -11.87003906 -0.27003906 -11.12695312 -0.37695312 C-3.4478667 -1.39381845 -3.4478667 -1.39381845 0 0 Z M-11.75 3.5 C-12.94882812 3.63921875 -12.94882812 3.63921875 -14.171875 3.78125 C-15.07679687 3.88953125 -15.07679687 3.88953125 -16 4 C-12.35771369 16.7480021 -5.44024185 28.48562821 1 40 C3.12691797 39.55065113 5.25150039 39.09023527 7.375 38.625 C8.55835937 38.36976562 9.74171875 38.11453125 10.9609375 37.8515625 C14.08196967 37.24476035 14.08196967 37.24476035 16 35 C13.77977657 31.08361894 11.55596295 27.16930563 9.32885742 23.25683594 C8.57234251 21.92666426 7.81679678 20.59594086 7.06225586 19.26464844 C5.97506388 17.34683319 4.88435657 15.43105487 3.79296875 13.515625 C3.45847214 12.92380432 3.12397552 12.33198364 2.77934265 11.722229 C0.23129098 7.11285214 0.23129098 7.11285214 -3 3 C-6.01853795 3 -8.77081079 3.14950715 -11.75 3.5 Z M42 18 C42.9019361 19.48819457 43.82214129 20.96532813 44.75 22.4375 C45.26046875 23.26121094 45.7709375 24.08492187 46.296875 24.93359375 C47.81683418 27.09967379 47.81683418 27.09967379 49.96875 27.84375 C53.19617477 28.09201344 55.95991095 26.99387527 59 26 C55.59657854 20.52354516 55.59657854 20.52354516 50.5 16.9375 C47.58490158 17.01037746 44.85258415 17.4029475 42 18 Z M39.796875 34.3125 C38.8171875 34.58320312 37.8375 34.85390625 36.828125 35.1328125 C35.30445313 35.56207031 35.30445313 35.56207031 33.75 36 C32.203125 36.42925781 32.203125 36.42925781 30.625 36.8671875 C28.08206073 37.57355952 25.54085868 38.28618017 23 39 C25.64 43.62 28.28 48.24 31 53 C39.54751546 50.80536765 47.72983618 48.05452766 56 45 C54.8051291 41.82646673 53.5412986 38.98871356 51.625 36.1875 C51.22539063 35.58292969 50.82578125 34.97835937 50.4140625 34.35546875 C47.45892503 31.52278173 43.31299214 33.33125801 39.796875 34.3125 Z " fill="#E04B39" transform="translate(41,27)"/>
<path d="M0 0 C2.333386 2.20004966 3.14171724 3.04795395 3.28515625 6.2265625 C3.25260417 8.50520833 3.22005208 10.78385417 3.1875 13.0625 C-2.4225 13.0625 -8.0325 13.0625 -13.8125 13.0625 C-11.48998574 17.94745525 -11.48998574 17.94745525 -8.8125 19.0625 C-7.10547265 19.13246014 -5.39581997 19.14690154 -3.6875 19.125 C-2.77742188 19.11597656 -1.86734375 19.10695313 -0.9296875 19.09765625 C-0.23101562 19.08605469 0.46765625 19.07445313 1.1875 19.0625 C1.5175 20.3825 1.8475 21.7025 2.1875 23.0625 C-2.1538496 25.51801448 -5.91532224 25.74266358 -10.8125 25.0625 C-15.72874028 22.69542134 -17.99852527 20.20209507 -19.8125 15.0625 C-20.37601412 9.80303483 -19.60105459 6.54410559 -16.8125 2.0625 C-14.95943978 -0.14921704 -13.58572103 -1.60243755 -10.9375 -2.75 C-6.5564382 -3.13656428 -3.6361348 -2.50489286 0 0 Z M-10.8125 3.0625 C-12.2975 5.5375 -12.2975 5.5375 -13.8125 8.0625 C-9.8525 8.0625 -5.8925 8.0625 -1.8125 8.0625 C-2.8025 6.4125 -3.7925 4.7625 -4.8125 3.0625 C-7.8125 2.22916667 -7.8125 2.22916667 -10.8125 3.0625 Z " fill="#3B3332" transform="translate(127.8125,98.9375)"/>
<path d="M0 0 C2.93087207 2.25451698 3.82814288 3.48442865 5 7 C5.0806622 8.48123547 5.10761193 9.96582204 5.09765625 11.44921875 C5.09443359 12.29677734 5.09121094 13.14433594 5.08789062 14.01757812 C5.07951172 14.89865234 5.07113281 15.77972656 5.0625 16.6875 C5.05798828 17.58017578 5.05347656 18.47285156 5.04882812 19.39257812 C5.03704983 21.59511987 5.02060164 23.79752599 5 26 C1.7563929 26.86573912 -1.1330179 27.16437512 -4.5 27.1875 C-5.4384375 27.20167969 -6.376875 27.21585938 -7.34375 27.23046875 C-10.12465054 26.98918473 -11.68245777 26.52978117 -14 25 C-16.5099972 21.23500419 -16.61476744 19.45706394 -16 15 C-13.30154023 11.74801002 -11.80052112 10.22835878 -7.59765625 9.6953125 C-5.37466188 9.68828882 -3.21112588 9.77888741 -1 10 C-1.33 8.35 -1.66 6.7 -2 5 C-5.63 5 -9.26 5 -13 5 C-13 3.35 -13 1.7 -13 0 C-8.56413226 -1.2475878 -4.42928536 -1.21388364 0 0 Z M-10 16 C-10.04063832 17.66617115 -10.042721 19.33388095 -10 21 C-7.04335481 22.4783226 -4.25770263 22.06032783 -1 22 C-1 19.69 -1 17.38 -1 15 C-5.79970742 14.47166284 -5.79970742 14.47166284 -10 16 Z " fill="#3D3332" transform="translate(76,97)"/>
<path d="M0 0 C2.38312703 1.89428046 3.6500559 3.30011179 5 6 C5.08372659 7.52148326 5.10730027 9.04655778 5.09765625 10.5703125 C5.09443359 11.46621094 5.09121094 12.36210938 5.08789062 13.28515625 C5.07951172 14.22230469 5.07113281 15.15945312 5.0625 16.125 C5.05798828 17.06988281 5.05347656 18.01476562 5.04882812 18.98828125 C5.03702357 21.32558387 5.02055759 23.66276061 5 26 C-1.04716868 27.59762321 -7.4223372 28.2888314 -13.125 25.4375 C-15.62945239 22.18171189 -16.07188342 20.09735503 -16 16 C-13.91374661 12.57258371 -12.8255689 11.27518963 -9 10 C-7.60560336 9.93334624 -6.20830125 9.91461801 -4.8125 9.9375 C-2.9253125 9.9684375 -2.9253125 9.9684375 -1 10 C-1.33 8.68 -1.66 7.36 -2 6 C-5.63 5.67 -9.26 5.34 -13 5 C-13 3.35 -13 1.7 -13 0 C-8.56947541 -1.24608504 -4.42350383 -1.22155336 0 0 Z M-10 16 C-10 17.65 -10 19.3 -10 21 C-7.04335481 22.4783226 -4.25770263 22.06032783 -1 22 C-1 19.69 -1 17.38 -1 15 C-5.65052872 14.73067479 -5.65052872 14.73067479 -10 16 Z " fill="#403432" transform="translate(32,97)"/>
<path d="M0 0 C1.98 0 3.96 0 6 0 C7.98 5.94 9.96 11.88 12 18 C13.98 12.06 15.96 6.12 18 0 C19.98 0 21.96 0 24 0 C22.06643087 9.26077847 18.9161174 17.43270108 15 26 C13.02 26 11.04 26 9 26 C7.67739984 22.79573933 6.36876329 19.58595147 5.0625 16.375 C4.68931641 15.47136719 4.31613281 14.56773438 3.93164062 13.63671875 C2.09239132 9.09658982 0.51452014 4.91652574 0 0 Z " fill="#3F3432" transform="translate(83,97)"/>
<path d="M0 0 C1.65 0 3.3 0 5 0 C5 10.89 5 21.78 5 33 C6.32 33.33 7.64 33.66 9 34 C8.505 36.475 8.505 36.475 8 39 C2.25 38.25 2.25 38.25 0 36 C-0.17517747 33.27514272 -0.23149133 30.65340638 -0.1953125 27.9296875 C-0.1924826 27.13345978 -0.18965271 26.33723206 -0.18673706 25.51687622 C-0.1755264 22.96943237 -0.15042062 20.42233789 -0.125 17.875 C-0.11497133 16.14974465 -0.10584528 14.42448381 -0.09765625 12.69921875 C-0.07558422 8.46601086 -0.04104867 4.2330647 0 0 Z " fill="#363332" transform="translate(137,85)"/>
<path d="M0 0 C1.32 0 2.64 0 4 0 C4.01458252 0.95890137 4.02916504 1.91780273 4.04418945 2.90576172 C4.10209507 6.4582274 4.17932671 10.01005398 4.26245117 13.56201172 C4.2957373 15.10031779 4.32375778 16.63874707 4.34643555 18.17724609 C4.37991558 20.38692818 4.4322231 22.59547735 4.48828125 24.8046875 C4.49467117 25.49432587 4.5010611 26.18396423 4.50764465 26.89450073 C4.54025714 29.04685389 4.54025714 29.04685389 5 32 C5.99 32.66 6.98 33.32 8 34 C7.505 36.475 7.505 36.475 7 39 C4.125 38.6875 4.125 38.6875 1 38 C-1.45198633 34.32202051 -1.27259068 31.55519479 -1.23046875 27.3046875 C-1.23001053 26.55663849 -1.22955231 25.80858948 -1.2290802 25.03787231 C-1.22606246 23.45931407 -1.21819041 21.88075868 -1.20581055 20.30224609 C-1.18751639 17.87717227 -1.18530117 15.45247947 -1.18554688 13.02734375 C-1.18063298 11.49478834 -1.17480522 9.96223554 -1.16796875 8.4296875 C-1.16685593 7.70055145 -1.1657431 6.97141541 -1.16459656 6.22018433 C-1.11606285 1.11606285 -1.11606285 1.11606285 0 0 Z " fill="#363332" transform="translate(6,85)"/>
<path d="M0 0 C1.63001953 0.01353516 1.63001953 0.01353516 3.29296875 0.02734375 C4.12441406 0.03894531 4.95585938 0.05054687 5.8125 0.0625 C6.1425 0.7225 6.4725 1.3825 6.8125 2.0625 C6.4825 3.0525 6.1525 4.0425 5.8125 5.0625 C2.8425 5.0625 -0.1275 5.0625 -3.1875 5.0625 C-3.1875 11.9925 -3.1875 18.9225 -3.1875 26.0625 C-5.1675 26.0625 -7.1475 26.0625 -9.1875 26.0625 C-9.1875 17.8125 -9.1875 9.5625 -9.1875 1.0625 C-5.90230525 -0.03256492 -3.45086585 -0.03710608 0 0 Z " fill="#473533" transform="translate(52.1875,96.9375)"/>
</svg>
