<svg version="1.1" id="Layer_1" xmlns="http://www.w3.org/2000/svg" xmlnsXlink="http://www.w3.org/1999/xlink" x="0px" y="0px"
	 viewBox="0 0 500 500" style="enable-background:new 0 0 500 500;" xml:space="preserve">
<style type="text/css">
	.st0{fill:#EA6618;}
	.st1{fill:#D65813;}
	.st2{fill:#E05E11;}
	.st3{fill:#DE5C16;}
	.st4{fill:#FFFFFF;}
</style>
<g id="XMLID_1_">
	<path id="XMLID_2_" class="st0" d="M432.5,404.5V95.5c0-12.7-8.4-23.4-20-26.8l-13.1,7.9L253.5,232l-4.6,14.3l-2.7,13.7l45.5,169.9
		l7,2.6h105.7C420,432.5,432.5,420,432.5,404.5"/>
	<path id="XMLID_3_" class="st1" d="M67.5,95.5v309.1c0,9.6,4.8,18,12.1,23l9-4.3L242.9,258l6.1-11.8l0.2-11.4l-42-159.8l-6.4-7.6
		H95.5C80,67.5,67.5,80,67.5,95.5"/>
	<path id="XMLID_4_" class="st2" d="M249,246.3L412.5,68.7c-2.5-0.7-5.2-1.2-7.9-1.2H200.8L249,246.3z"/>
	<path id="XMLID_5_" class="st3" d="M95.5,432.5h203.3L249,246.3L79.6,427.6C84.1,430.7,89.6,432.5,95.5,432.5"/>
	<path id="XMLID_6_" class="st4" d="M202.8,205.8h20.3c8.1,30.5,17.3,57.2,27.5,81.4c11.6-27.2,20.1-53.9,27.4-81.4h19.2
		c-8.6,34.1-22.6,68.5-38.7,104h-17C226.1,276.2,213,241.6,202.8,205.8z M135.9,153H181v193.4h-45.3v-14.9h27.8v-164h-27.6V153z
		 M364.3,167.5h-27.6v164h27.8v14.9h-45.3V153h45.1V167.5z"/>
</g>
</svg>
