<?xml version="1.0" encoding="UTF-8"?>
<svg version="1.1" xmlns="http://www.w3.org/2000/svg" width="150" height="150">
<path d="M0 0 C6.3409401 2.79149258 11.90643692 6.31942852 17 11 C17.825 10.443125 18.65 9.88625 19.5 9.3125 C20.66559681 8.54004986 21.83238534 7.76939661 23 7 C23.68449219 6.54496094 24.36898437 6.08992188 25.07421875 5.62109375 C25.77160156 5.16863281 26.46898437 4.71617188 27.1875 4.25 C28.16783203 3.60804687 28.16783203 3.60804687 29.16796875 2.953125 C31 2 31 2 34 2 C34 1.34 34 0.68 34 0 C38.90735344 -0.42304771 41.06162546 -0.58427094 45.3125 2.0625 C50.62484683 7.86901862 51.43926431 12.60711244 51.23828125 20.265625 C50.91058566 24.02606615 50.08995397 27.38952749 49 31 C49.825 31.0825 50.65 31.165 51.5 31.25 C58.71277958 32.79559563 65.22694469 36.46196392 69.8125 42.3125 C71.3719607 45.84180579 71.47017401 48.17144018 71 52 C67.91720606 58.56769144 61.99873378 62.38721765 55.4140625 65.04296875 C53.28761686 65.75737399 51.16560133 66.41636276 49 67 C49.33 67.928125 49.66 68.85625 50 69.8125 C51.73263848 75.95775734 52.11724163 82.92237783 49.75 88.9375 C46.86451613 93.98709677 46.86451613 93.98709677 44 96 C38.16131052 97.58337342 34.62701717 96.97936833 29.2421875 94.32421875 C26.19130351 92.52239005 23.44888826 90.43487831 20.7265625 88.171875 C18.9340762 86.71920351 18.9340762 86.71920351 16 87 C14.20044113 88.1806233 14.20044113 88.1806233 12.375 89.75 C7.15307625 93.77642838 1.64643322 97.44784031 -5.1875 97.1875 C-10.04145622 95.675612 -12.41260355 93.32426465 -15 89 C-16.07888103 85.86672277 -16.1342396 82.92353623 -16.125 79.625 C-16.12886719 78.25214844 -16.12886719 78.25214844 -16.1328125 76.8515625 C-15.99234509 73.83564456 -15.55121867 70.9660814 -15 68 C-16.53720703 67.23816406 -16.53720703 67.23816406 -18.10546875 66.4609375 C-19.46650961 65.76633734 -20.82716655 65.07098456 -22.1875 64.375 C-22.86103516 64.04371094 -23.53457031 63.71242187 -24.22851562 63.37109375 C-29.55369167 60.61758809 -33.25838727 57.48322546 -36 52 C-36.38999063 47.94409747 -36.27354224 45.54708447 -34.4375 41.875 C-29.89432984 36.51638905 -24.57425364 33.35680791 -18 31 C-16.68 31 -15.36 31 -14 31 C-14.33 30.0925 -14.66 29.185 -15 28.25 C-16.79269317 21.90464 -17.18768473 14.31632794 -14.875 8.0625 C-11.21050527 2.07715861 -7.40138107 -1.33467527 0 0 Z M-8.73828125 9.1484375 C-10.15920812 12.3598202 -10.33914285 14.50560036 -10.25 18 C-10.23453125 19.010625 -10.2190625 20.02125 -10.203125 21.0625 C-10.01427356 23.7935824 -9.60765292 26.33416785 -9 29 C0.00275321 28.80400527 0.00275321 28.80400527 7.7109375 24.7109375 C11.5273414 20.34085484 11.5273414 20.34085484 13 15 C10.82259326 13.21547806 10.82259326 13.21547806 8.125 11.4375 C6.76761719 10.50744141 6.76761719 10.50744141 5.3828125 9.55859375 C1.78203842 7.20333333 -0.70598383 6.78350021 -5.02734375 6.4765625 C-7.23123663 6.85369145 -7.23123663 6.85369145 -8.73828125 9.1484375 Z M25 13 C24.01 13.66 23.02 14.32 22 15 C23.47545036 19.86898618 25.77980208 24.0864114 30 27 C34.63857031 28.17772164 39.2313019 28.67990931 44 29 C45.84752874 17.58157213 45.84752874 17.58157213 42 7 C34.50118837 6.18194782 30.87360356 8.52818348 25 13 Z M17 21 C15.68 22.65 14.36 24.3 13 26 C15.97 26 18.94 26 22 26 C20.35 24.35 18.7 22.7 17 21 Z M7 33 C5.44652027 35.23093706 4.0847256 37.3951627 2.75 39.75 C2.18539062 40.68199219 2.18539062 40.68199219 1.609375 41.6328125 C0.05517866 44.34122819 -1.0109015 46.40405127 -0.953125 49.5625 C0.25792715 52.65961698 1.78693163 55.39956657 3.5 58.25 C4.1290625 59.30703125 4.758125 60.3640625 5.40625 61.453125 C6.77095641 63.84573052 6.77095641 63.84573052 8 65 C14.09235425 66.1258265 20.98692466 66.64953461 27 65 C31.32787186 61.88073301 33.26538867 56.89941544 35 52 C35.30164063 51.18402344 35.60328125 50.36804688 35.9140625 49.52734375 C36.04512545 45.67290154 34.18414556 42.94266494 32.25 39.75 C31.70859375 38.79480469 31.70859375 38.79480469 31.15625 37.8203125 C28.93779286 33.92584379 28.93779286 33.92584379 25 32 C22.48818571 31.90382693 20.01083378 31.86065238 17.5 31.875 C16.48486328 31.86919922 16.48486328 31.86919922 15.44921875 31.86328125 C12.35926233 31.86937584 9.95320689 32.0155977 7 33 Z M34 33 C35.65 35.97 37.3 38.94 39 42 C41 38.23570226 41 38.23570226 42 35 C38.08936776 33.52952664 38.08936776 33.52952664 34 33 Z M-7 35 C-6.34 37.31 -5.68 39.62 -5 42 C-2.59927045 39.11912454 -0.52708963 36.43595166 1 33 C-1.88395737 33 -4.29477815 34.05905327 -7 35 Z M47 36 C42.8389363 46.03655708 43.05282065 51.04624338 47 61 C53.28112546 60.5168365 59.58126957 57.80464023 63.73828125 52.984375 C65.4122339 50.3516569 65.59853162 49.06747455 65 46 C60.42096974 40.13311748 54.19574287 37.24926091 47 36 Z M-29 44 C-30.462958 46.925916 -30.44523109 48.75617347 -30 52 C-25.85309005 56.46590303 -20.74793972 59.04022627 -15 61 C-14.01 61 -13.02 61 -12 61 C-8.25188031 53.27211384 -8.25188031 53.27211384 -9 45 C-9.2475 44.22011719 -9.495 43.44023438 -9.75 42.63671875 C-10.46950604 40.41247651 -11.22123135 38.20406221 -12 36 C-17.91556292 36 -24.39723032 40.54792274 -29 44 Z M-5 56 C-5.66 58.31 -6.32 60.62 -7 63 C-4.36 63.33 -1.72 63.66 1 64 C0.19185349 62.66402348 -0.62163181 61.331275 -1.4375 60 C-2.11619141 58.88625 -2.11619141 58.88625 -2.80859375 57.75 C-3.39833984 56.88375 -3.39833984 56.88375 -4 56 C-4.33 56 -4.66 56 -5 56 Z M39 56 C38.10887963 57.30892435 37.26149076 58.64781004 36.4375 60 C35.98246094 60.7425 35.52742188 61.485 35.05859375 62.25 C34.53458984 63.11625 34.53458984 63.11625 34 64 C36.64 63.67 39.28 63.34 42 63 C41.34 60.69 40.68 58.38 40 56 C39.67 56 39.34 56 39 56 Z M-9 69 C-10.41775451 75.31129428 -11.3187774 82.13309261 -8.5625 88.125 C-7.1367467 89.89343188 -7.1367467 89.89343188 -6 91 C1.28608934 91 6.8075713 88.13922759 12 83 C12 77.90550938 10.58822635 75.84473204 7.48828125 71.9296875 C2.7141083 68.22726766 -3.18588828 68.79840112 -9 69 Z M34.125 68.875 C29.81041456 69.38308825 28.13158733 71.76604166 25.5 75.0625 C24.31125217 76.69245616 23.13712913 78.33362195 22 80 C24.12260036 85.17734796 28.20683672 87.43840782 33 90 C37.83820174 91.36442902 37.83820174 91.36442902 42.375 89.75 C45.6999424 86.1692928 45.14185958 82.1066827 45.1015625 77.51953125 C44.9845923 74.61777044 44.59810881 71.84101683 44 69 C40.70417393 68.91760435 37.42225994 68.98136322 34.125 68.875 Z M13 71 C14.98 73.97 14.98 73.97 17 77 C18.68762851 75.3545622 20.3540349 73.68711423 22 72 C22 71.67 22 71.34 22 71 C19.03 71 16.06 71 13 71 Z " fill="#00DAFB" transform="translate(58,10)"/>
<path d="M0 0 C1.32 0.33 2.64 0.66 4 1 C3.67 1.99 3.34 2.98 3 4 C3.75925781 3.88140625 4.51851562 3.7628125 5.30078125 3.640625 C6.29464844 3.51171875 7.28851563 3.3828125 8.3125 3.25 C9.29863281 3.11078125 10.28476563 2.9715625 11.30078125 2.828125 C14 3 14 3 15.78125 4.78125 C17.23916884 7.43540994 18.14337076 10.10063949 19 13 C19.38091797 12.04287109 19.38091797 12.04287109 19.76953125 11.06640625 C20.11371094 10.24011719 20.45789063 9.41382813 20.8125 8.5625 C21.14894531 7.73878906 21.48539063 6.91507812 21.83203125 6.06640625 C23 4 23 4 26 3 C25.49228528 8.96564796 23.61407872 13.63809899 21 19 C18.6875 19 18.6875 19 16 18 C14.58711853 15.38948072 13.864695 12.86714656 13 10 C12.67 12.97 12.34 15.94 12 19 C10.37536158 19.05395478 8.75021459 19.09277195 7.125 19.125 C5.76761719 19.15980469 5.76761719 19.15980469 4.3828125 19.1953125 C2 19 2 19 0 17 C-0.1953125 14.6171875 -0.1953125 14.6171875 -0.125 11.875 C-0.10695313 10.96492187 -0.08890625 10.05484375 -0.0703125 9.1171875 C-0.03550781 8.06917969 -0.03550781 8.06917969 0 7 C-0.66 7 -1.32 7 -2 7 C-2 10.96 -2 14.92 -2 19 C-10.24119403 20.33313433 -10.24119403 20.33313433 -13.5625 18.875 C-15 17 -15 17 -15.4375 14.5 C-15 12 -15 12 -13.875 10.25 C-11.34022139 8.56014759 -8.99424517 8.33269391 -6 8 C-8.64 8 -11.28 8 -14 8 C-14 6.68 -14 5.36 -14 4 C-6.375 2.75 -6.375 2.75 -3 5 C-2.01 4.67 -1.02 4.34 0 4 C0 2.68 0 1.36 0 0 Z M3 7 C3 9.64 3 12.28 3 15 C5.475 15.495 5.475 15.495 8 16 C8 13.03 8 10.06 8 7 C6.35 7 4.7 7 3 7 Z M-10 12 C-10.33 13.32 -10.66 14.64 -11 16 C-9.35 15.67 -7.7 15.34 -6 15 C-5.67 14.01 -5.34 13.02 -5 12 C-6.65 12 -8.3 12 -10 12 Z " fill="#00D9FA" transform="translate(107,119)"/>
<path d="M0 0 C3.15210067 2.45163386 4.70975268 4.1473985 6 7.9375 C6 11.81045073 5.14268559 13.78597162 3 17 C-0.03414603 19.61273686 -1.47214842 20.00942592 -5.5 19.9375 C-9.43807145 18.88265943 -11.31744394 18.07704959 -14 15 C-14.99598531 12.26832098 -15.28374373 9.89307333 -15 7 C-13.30026151 3.4697739 -11.97719341 1.59145917 -8.625 -0.4375 C-5.28691063 -1.15280486 -3.26953662 -1.02173019 0 0 Z " fill="#00DAFB" transform="translate(80,49)"/>
<path d="M0 0 C1.65 0 3.3 0 5 0 C6.98 3.63 8.96 7.26 11 11 C11.33 7.37 11.66 3.74 12 0 C13.32 0 14.64 0 16 0 C16 6.6 16 13.2 16 20 C14.35 20 12.7 20 11 20 C9.02 16.37 7.04 12.74 5 9 C4.67 12.63 4.34 16.26 4 20 C2.68 20 1.36 20 0 20 C0 13.4 0 6.8 0 0 Z " fill="#00D9FA" transform="translate(75,118)"/>
<path d="M0 0 C1.32 0 2.64 0 4 0 C4 0.99 4 1.98 4 3 C5.32 3.33 6.64 3.66 8 4 C8 4.99 8 5.98 8 7 C6.68 7.33 5.36 7.66 4 8 C4 10.31 4 12.62 4 15 C5.32 15.33 6.64 15.66 8 16 C8 16.99 8 17.98 8 19 C5.125 19.125 5.125 19.125 2 19 C0 17 0 17 -0.1953125 14.6171875 C-0.16050781 13.25980469 -0.16050781 13.25980469 -0.125 11.875 C-0.10695313 10.96492187 -0.08890625 10.05484375 -0.0703125 9.1171875 C-0.03550781 8.06917969 -0.03550781 8.06917969 0 7 C-2.64 7.33 -5.28 7.66 -8 8 C-9.00217064 11.58327753 -9.00217064 11.58327753 -8 15 C-5.69 15 -3.38 15 -1 15 C-1 16.32 -1 17.64 -1 19 C-4.96041793 19.93186304 -7.19596138 20.3763585 -10.9375 18.625 C-13.52888995 15.32686734 -13.73463184 13.2483393 -13.4765625 9.1328125 C-13 7 -13 7 -11 4.375 C-6.83857623 2.46768077 -4.44580052 3.09576939 0 4 C0 2.68 0 1.36 0 0 Z " fill="#00D9F9" transform="translate(61,119)"/>
<path d="M0 0 C10.4862119 -0.3701016 10.4862119 -0.3701016 12.84375 1.328125 C14.59147409 3.85523957 14.18386575 5.99685948 14 9 C13.68722985 12.78870766 13.68722985 12.78870766 15.0625 15 C16.21044954 17.44895901 15.89034986 18.50702038 15 21 C12 20 12 20 10.97265625 18.40625 C10.52212891 17.46265625 10.52212891 17.46265625 10.0625 16.5 C8.588928 13.58197374 8.588928 13.58197374 5.75 12.0625 C5.1725 12.041875 4.595 12.02125 4 12 C4 14.64 4 17.28 4 20 C2.68 20 1.36 20 0 20 C0 13.4 0 6.8 0 0 Z M4 3 C4 4.98 4 6.96 4 9 C5.98 8.67 7.96 8.34 10 8 C10 6.68 10 5.36 10 4 C7.03 3.505 7.03 3.505 4 3 Z " fill="#00D9F9" transform="translate(4,118)"/>
<path d="M0 0 C2.46151161 1.69759422 2.92284429 2.729955 3.75 5.625 C3.87375 6.800625 3.87375 6.800625 4 8 C3 9 3 9 0.71484375 9.09765625 C-0.65994141 9.08025391 -0.65994141 9.08025391 -2.0625 9.0625 C-2.98160156 9.05347656 -3.90070313 9.04445312 -4.84765625 9.03515625 C-5.55792969 9.02355469 -6.26820313 9.01195312 -7 9 C-6.67 9.66 -6.34 10.32 -6 11 C-3.03 11 -0.06 11 3 11 C2.67 12.32 2.34 13.64 2 15 C-0.86145102 15.63048921 -3.11267611 16.10674025 -6 16 C-9.05192694 14.02896385 -10.6087082 12.6228988 -11.4765625 9.0234375 C-11.74423607 5.26191947 -11.27743495 3.33455391 -8.875 0.4375 C-5.31607124 -1.34196438 -3.74980806 -1.2227635 0 0 Z M-6 3 C-6.33 3.66 -6.66 4.32 -7 5 C-5.02 5 -3.04 5 -1 5 C-1 4.34 -1 3.68 -1 3 C-2.65 3 -4.3 3 -6 3 Z " fill="#00D8F9" transform="translate(144,123)"/>
<path d="M0 0 C1.875 1.25 1.875 1.25 3 3 C3.25 5.625 3.25 5.625 3 8 C1.41727399 9.58272601 -0.38034003 9.34735747 -2.5625 9.5625 C-3.38878906 9.64628906 -4.21507812 9.73007813 -5.06640625 9.81640625 C-5.70449219 9.87699219 -6.34257812 9.93757812 -7 10 C-6.01732141 11.20561184 -6.01732141 11.20561184 -4.15234375 11.09765625 C-2.1015625 11.06510417 -0.05078125 11.03255208 2 11 C2 12.32 2 13.64 2 15 C-5.05229456 16.43436499 -5.05229456 16.43436499 -9 14.625 C-11.51399326 11.32538385 -11.72645901 9.20789337 -11.484375 5.1328125 C-11 3 -11 3 -8.875 0.375 C-5.32017936 -1.32513161 -3.71712544 -1.21210612 0 0 Z M-7 3 C-7 3.66 -7 4.32 -7 5 C-5.02 5 -3.04 5 -1 5 C-1.33 4.34 -1.66 3.68 -2 3 C-3.65 3 -5.3 3 -7 3 Z " fill="#00D8F9" transform="translate(31,123)"/>
<path d="M0 0 C2.35119399 3.52679099 2.21443452 5.02879485 2.125 9.1875 C2.10695313 10.27417969 2.08890625 11.36085937 2.0703125 12.48046875 C2.03550781 13.72763672 2.03550781 13.72763672 2 15 C0.39884424 15.2493357 -1.20620159 15.47378648 -2.8125 15.6875 C-3.70582031 15.81511719 -4.59914063 15.94273437 -5.51953125 16.07421875 C-8 16 -8 16 -9.84375 14.75 C-11 13 -11 13 -10.6875 9.3125 C-10.460625 8.219375 -10.23375 7.12625 -10 6 C-7.36 5.34 -4.72 4.68 -2 4 C-4.64 4 -7.28 4 -10 4 C-10 2.68 -10 1.36 -10 0 C-6.23918426 -1.25360525 -3.84551868 -0.83902226 0 0 Z M-7 8 C-7 9.32 -7 10.64 -7 12 C-5.35 11.67 -3.7 11.34 -2 11 C-1.67 10.01 -1.34 9.02 -1 8 C-2.98 8 -4.96 8 -7 8 Z " fill="#00D9FA" transform="translate(45,123)"/>
<path d="M0 0 C1.32 0 2.64 0 4 0 C4 1.32 4 2.64 4 4 C2.68 4 1.36 4 0 4 C0 2.68 0 1.36 0 0 Z " fill="#00D7F8" transform="translate(115,117)"/>
</svg>
