<?xml version="1.0" encoding="UTF-8"?>
<svg version="1.1" xmlns="http://www.w3.org/2000/svg" width="440" height="250">
<path d="M0 0 C0.90105469 0.30035156 1.80210937 0.60070313 2.73046875 0.91015625 C21.70411929 7.70537063 38.29513561 24.04892392 47 42 C48.90062435 46.5869208 50.47750599 51.27523553 52 56 C52.33 56.99 52.66 57.98 53 59 C54.10214844 58.71125 55.20429688 58.4225 56.33984375 58.125 C76.46768373 53.09415896 95.50438 53.23708519 113.89453125 63.8828125 C128.85766981 74.0840969 140.36798322 88.96408759 144 107 C144.19406695 109.40211759 144.15734318 111.58740462 144 114 C144.65484375 113.94199219 145.3096875 113.88398438 145.984375 113.82421875 C155.71394387 113.34323724 163.87230937 116.11245655 171.4375 122.3125 C177.73972743 128.33957821 181.89391825 135.5662279 182.3359375 144.390625 C182.59434254 158.03580797 181.10272308 166.62172069 171.37109375 176.80078125 C162.95470674 184.60708419 154.86246039 186.29981752 143.62890625 186.26742554 C142.4780123 186.27195665 141.32711836 186.27648776 140.14134884 186.28115618 C136.95524465 186.29161377 133.7692827 186.29312815 130.58316684 186.29076743 C127.1432832 186.29035872 123.70343304 186.30140389 120.26356506 186.31088257 C113.52592362 186.3274843 106.78831717 186.33299182 100.05065697 186.33410732 C94.5698889 186.33505858 89.08913235 186.33917279 83.60836792 186.34550858 C68.05420971 186.36312194 52.50007907 186.37234778 36.94591081 186.37084763 C36.10766161 186.37076772 35.26941241 186.3706878 34.40576172 186.37060547 C33.56648309 186.37052371 32.72720447 186.37044195 31.86249316 186.37035771 C18.27641291 186.3695457 4.69044376 186.38866152 -8.89560437 186.4168822 C-22.86056307 186.44565981 -36.82546769 186.45941969 -50.79045677 186.45769465 C-58.62459376 186.45703223 -66.45861441 186.46245884 -74.29272461 186.48405075 C-80.96657159 186.50232727 -87.64024955 186.50655744 -94.31411082 186.4930319 C-97.71447602 186.48653332 -101.11425509 186.48847443 -104.51463127 186.5037384 C-126.28141573 186.59508309 -144.19009664 185.0577562 -160.71875 169.33984375 C-173.68799937 156.0374801 -178.45555953 141.08342693 -178.43383789 122.86621094 C-178.1251849 106.7445351 -171.82376679 93.91085231 -160.8125 82.25 C-146.4294007 68.51355231 -130.17117799 65.43472059 -111 65 C-110.8040625 64.030625 -110.608125 63.06125 -110.40625 62.0625 C-107.1879458 47.2366462 -101.3403013 34.26954444 -91 23 C-90.00419922 21.86691406 -90.00419922 21.86691406 -88.98828125 20.7109375 C-80.3293034 11.39573397 -68.87920438 4.43229574 -57 0 C-55.98808594 -0.391875 -54.97617188 -0.78375 -53.93359375 -1.1875 C-37.12259145 -6.69554171 -16.5263891 -6.19471654 0 0 Z " fill="#0196D6" transform="translate(218,34)"/>
<path d="M0 0 C26 0 26 0 33 4 C36.3252261 7.9669364 37.68592683 12.85163897 37.3828125 17.984375 C36.40660669 23.12439743 34.40218459 26.75556117 30.5 30.21875 C25.74803139 32.63716259 21.86065183 32.44268154 16.625 32.25 C11.860625 32.12625 11.860625 32.12625 7 32 C7 38.93 7 45.86 7 53 C4.69 53 2.38 53 0 53 C0 35.51 0 18.02 0 0 Z " fill="#FBFDFE" transform="translate(121,128)"/>
<path d="M0 0 C2.31 0 4.62 0 7 0 C9.89623695 6.31502976 12.4748461 12.70220612 14.890625 19.21484375 C15.24010193 20.15179581 15.58957886 21.08874786 15.949646 22.05409241 C16.68041294 24.01575887 17.40974578 25.97796012 18.13769531 27.94067383 C19.25649908 30.95501015 20.38188606 33.96683358 21.5078125 36.97851562 C22.21914463 38.89047823 22.930096 40.80258254 23.640625 42.71484375 C23.97805725 43.6168602 24.3154895 44.51887665 24.66314697 45.44822693 C24.97056824 46.27991898 25.2779895 47.11161102 25.59472656 47.96850586 C25.86690002 48.70080917 26.13907349 49.43311249 26.41949463 50.18760681 C27 52 27 52 27 54 C24.03 54 21.06 54 18 54 C17.01 50.37 16.02 46.74 15 43 C7.74 43 0.48 43 -7 43 C-7.99 46.63 -8.98 50.26 -10 54 C-12.97 54 -15.94 54 -19 54 C-16.99166481 47.02987137 -14.70720163 40.20639516 -12.20703125 33.3984375 C-11.68069344 31.95472275 -11.68069344 31.95472275 -11.14372253 30.48184204 C-10.0359794 27.44524726 -8.92431129 24.41010732 -7.8125 21.375 C-7.05507721 19.30087666 -6.29791332 17.22665876 -5.54101562 15.15234375 C-3.69699969 10.10046628 -1.84976989 5.04977328 0 0 Z " fill="#F4F9FC" transform="translate(86,127)"/>
<path d="M0 0 C0 2.31 0 4.62 0 7 C-1.98 7.99 -3.96 8.98 -6 10 C-6.01981934 10.66531738 -6.03963867 11.33063477 -6.06005859 12.01611328 C-6.15576418 15.05278268 -6.26525808 18.08880678 -6.375 21.125 C-6.42140625 22.69507813 -6.42140625 22.69507813 -6.46875 24.296875 C-6.67227986 29.65649452 -7.29929457 33.89788371 -9 39 C-8.69578125 39.59087402 -8.3915625 40.18174805 -8.078125 40.79052734 C-6.71681667 43.58034628 -6.68073615 45.76261902 -6.5859375 48.859375 C-6.54726562 49.97441406 -6.50859375 51.08945313 -6.46875 52.23828125 C-6.4378125 53.39714844 -6.406875 54.55601562 -6.375 55.75 C-6.33632812 56.92433594 -6.29765625 58.09867188 -6.2578125 59.30859375 C-6.1636018 62.20557268 -6.07798398 65.10254626 -6 68 C-4.02 68.33 -2.04 68.66 0 69 C0 71.64 0 74.28 0 77 C-5.64336328 76.6173991 -8.89915226 76.22146091 -13 72 C-14.96892548 68.82194186 -15.23989928 66.39309015 -15.23828125 62.68359375 C-15.25439453 61.67232422 -15.27050781 60.66105469 -15.28710938 59.61914062 C-15.30406714 57.49420191 -15.30923284 55.36913707 -15.30273438 53.24414062 C-15.35873583 50.41335723 -15.43546566 47.77545718 -16 45 C-18.37909093 42.94286584 -18.37909093 42.94286584 -21 42 C-21.3125 38.3125 -21.3125 38.3125 -21 35 C-20.360625 34.71125 -19.72125 34.4225 -19.0625 34.125 C-16.84793921 33.17176549 -16.84793921 33.17176549 -16 31 C-15.88298508 29.39204104 -15.82125599 27.77985835 -15.7890625 26.16796875 C-15.76070312 25.20439453 -15.73234375 24.24082031 -15.703125 23.24804688 C-15.65134534 21.21957881 -15.6069854 19.19090678 -15.5703125 17.16210938 C-15.27383788 7.89110087 -15.27383788 7.89110087 -12 4 C-7.90716575 0.63478073 -5.29877676 -0.50464541 0 0 Z " fill="#F5FAFC" transform="translate(220,119)"/>
<path d="M0 0 C6.15423406 0.36925404 8.72703501 1.82877227 13 6 C14.25274038 8.50548077 14.19101089 10.35499751 14.28125 13.15625 C14.31863281 14.17847656 14.35601562 15.20070312 14.39453125 16.25390625 C14.46484375 18.41796875 14.53515625 20.58203125 14.60546875 22.74609375 C14.64285156 23.76832031 14.68023437 24.79054687 14.71875 25.84375 C14.74904297 26.78412109 14.77933594 27.72449219 14.81054688 28.69335938 C14.85800096 31.02641574 14.85800096 31.02641574 16 33 C18.52733235 33.65555119 18.52733235 33.65555119 21 34 C21 36.64 21 39.28 21 42 C20.195625 42.309375 19.39125 42.61875 18.5625 42.9375 C16.10919595 43.76335345 16.10919595 43.76335345 15 45 C14.89098386 46.63674321 14.84418149 48.27772049 14.82421875 49.91796875 C14.80037109 50.92537109 14.77652344 51.93277344 14.75195312 52.97070312 C14.70937965 55.09550642 14.67791684 57.22056479 14.65820312 59.34570312 C14.4898211 65.50535244 14.13817799 69.31629948 10 74 C6.78542734 76.35735328 3.90339153 76.17742689 0 76 C0 73.69 0 71.38 0 69 C2.475 68.505 2.475 68.505 5 68 C5.01981934 67.29391602 5.03963867 66.58783203 5.06005859 65.86035156 C5.15540415 62.65653006 5.26504513 59.45335199 5.375 56.25 C5.42140625 54.58324219 5.42140625 54.58324219 5.46875 52.8828125 C5.50742187 51.81289062 5.54609375 50.74296875 5.5859375 49.640625 C5.6173584 48.65610352 5.6487793 47.67158203 5.68115234 46.65722656 C6.00367334 43.96938692 6.75453223 42.36352196 8 40 C7.68393897 37.34508736 7.19397377 35.38794754 6 33 C5.84733388 31.26131256 5.75067404 29.51752499 5.68359375 27.7734375 C5.64169922 26.7421875 5.59980469 25.7109375 5.55664062 24.6484375 C5.51732422 23.56820312 5.47800781 22.48796875 5.4375 21.375 C5.39431641 20.28703125 5.35113281 19.1990625 5.30664062 18.078125 C5.2003547 15.3855483 5.09831943 12.69287747 5 10 C2.525 9.01 2.525 9.01 0 8 C0 5.36 0 2.72 0 0 Z " fill="#F4F9FC" transform="translate(325,119)"/>
<path d="M0 0 C2.3925 -0.0825 4.785 -0.165 7.25 -0.25 C7.99668945 -0.28641602 8.74337891 -0.32283203 9.51269531 -0.36035156 C12.87255713 -0.41637938 14.70448465 -0.2118878 17.45703125 1.76171875 C19.97797676 5.41868528 19.48605348 7.62551864 19 12 C17.4375 13.6875 17.4375 13.6875 16 15 C16.23903168 19.30257029 18.25010451 23.11979695 20 27 C18.35 27 16.7 27 15 27 C14.16151196 25.54462432 13.32936066 24.08559627 12.5 22.625 C12.0359375 21.81289062 11.571875 21.00078125 11.09375 20.1640625 C10 18 10 18 10 16 C8.02 16 6.04 16 4 16 C4 19.63 4 23.26 4 27 C2.68 27 1.36 27 0 27 C0 18.09 0 9.18 0 0 Z " fill="#F0F7FB" transform="translate(233,143)"/>
<path d="M0 0 C2.31 0 4.62 0 7 0 C7 17.49 7 34.98 7 53 C4.69 53 2.38 53 0 53 C0 35.51 0 18.02 0 0 Z " fill="#FFFFFF" transform="translate(167,128)"/>
<path d="M0 0 C3.8053125 -0.12375 3.8053125 -0.12375 7.6875 -0.25 C8.87218872 -0.30462402 8.87218872 -0.30462402 10.08081055 -0.36035156 C13.78291451 -0.41839441 15.68662578 -0.17907099 18.98046875 1.703125 C21.3204405 4.36444684 21.67834361 5.50065918 21.625 9 C21.63789063 9.845625 21.65078125 10.69125 21.6640625 11.5625 C21 14 21 14 18.98046875 16.296875 C15.04536121 18.54550788 12.11707372 18.45424027 7.6875 18.25 C5.150625 18.1675 2.61375 18.085 0 18 C0 12.06 0 6.12 0 0 Z " fill="#0697D6" transform="translate(128,135)"/>
<path d="M0 0 C5.94 0 11.88 0 18 0 C18 1.32 18 2.64 18 4 C13.71 4 9.42 4 5 4 C5 6.64 5 9.28 5 12 C8.63 12 12.26 12 16 12 C16 13.32 16 14.64 16 16 C12.37 16 8.74 16 5 16 C5 18.31 5 20.62 5 23 C9.29 23 13.58 23 18 23 C18 24.32 18 25.64 18 27 C12.06 27 6.12 27 0 27 C0 18.09 0 9.18 0 0 Z " fill="#E9F3FA" transform="translate(257,143)"/>
<path d="M0 0 C2.37152871 0.40303261 4.09809693 1.19356834 6.18359375 2.37109375 C5.85359375 3.69109375 5.52359375 5.01109375 5.18359375 6.37109375 C4.48492187 6.29890625 3.78625 6.22671875 3.06640625 6.15234375 C2.15632813 6.05953125 1.24625 5.96671875 0.30859375 5.87109375 C-0.59632813 5.77828125 -1.50125 5.68546875 -2.43359375 5.58984375 C-4.74953836 5.3406208 -4.74953836 5.3406208 -6.81640625 5.37109375 C-6.81640625 7.02109375 -6.81640625 8.67109375 -6.81640625 10.37109375 C-6.05714844 10.55285156 -5.29789062 10.73460937 -4.515625 10.921875 C-3.52175781 11.17324219 -2.52789062 11.42460937 -1.50390625 11.68359375 C-0.51777344 11.92722656 0.46835937 12.17085937 1.484375 12.421875 C4.23013327 13.38746003 5.48512076 14.03852417 7.18359375 16.37109375 C7.67308515 20.21709759 7.90471514 22.41130334 5.53125 25.5703125 C2.55079426 27.8564857 0.90156431 27.84833794 -2.81640625 27.74609375 C-3.84765625 27.73320312 -4.87890625 27.7203125 -5.94140625 27.70703125 C-8.72296597 27.38201204 -10.43820276 26.80030258 -12.81640625 25.37109375 C-12.15640625 24.05109375 -11.49640625 22.73109375 -10.81640625 21.37109375 C-9.82640625 21.70109375 -8.83640625 22.03109375 -7.81640625 22.37109375 C-6.25522197 22.4385024 -4.69138105 22.45623831 -3.12890625 22.43359375 C-2.32066406 22.42457031 -1.51242187 22.41554687 -0.6796875 22.40625 C-0.06480469 22.39464844 0.55007813 22.38304687 1.18359375 22.37109375 C1.51359375 21.05109375 1.84359375 19.73109375 2.18359375 18.37109375 C1.17039062 18.13326172 1.17039062 18.13326172 0.13671875 17.890625 C-4.11344143 16.77895015 -7.14094268 15.98222746 -10.44140625 12.99609375 C-12.00919584 10.0030409 -12.56038564 8.67766883 -11.81640625 5.37109375 C-8.4271915 0.45126589 -5.62334821 -0.16567924 0 0 Z " fill="#ECF5FB" transform="translate(290.81640625,142.62890625)"/>
<path d="M0 0 C0.66 0 1.32 0 2 0 C4.31 7.26 6.62 14.52 9 22 C3.72 22 -1.56 22 -7 22 C-5.04910592 14.48905779 -2.76288395 7.25081726 0 0 Z " fill="#0C99D7" transform="translate(89,140)"/>
<path d="M0 0 C6.27 0 12.54 0 19 0 C19 1.32 19 2.64 19 4 C16.69 4 14.38 4 12 4 C12 11.59 12 19.18 12 27 C10.68 27 9.36 27 8 27 C8 19.41 8 11.82 8 4 C5.36 4 2.72 4 0 4 C0 2.68 0 1.36 0 0 Z " fill="#F3F8FC" transform="translate(299,143)"/>
<path d="M0 0 C7.75 -0.125 7.75 -0.125 10 1 C10 2.98 10 4.96 10 7 C6.78548731 8.60725635 3.56387464 8.05748185 0 8 C0 5.36 0 2.72 0 0 Z " fill="#0B99D7" transform="translate(237,147)"/>
</svg>
