<?xml version="1.0" encoding="UTF-8"?>
<svg version="1.1" xmlns="http://www.w3.org/2000/svg" width="1024" height="1024">
<path d="M0 0 C1.56331055 0.32025146 1.56331055 0.32025146 3.15820312 0.64697266 C86.93422531 18.09813845 168.57099277 58.78841868 231.62890625 116.83984375 C233.64939246 118.68058324 235.69502573 120.48064239 237.7578125 122.2734375 C249.16470841 132.23407117 259.92097664 142.70064646 270 154 C271.51763714 155.63838674 273.04402322 157.26834105 274.57055664 158.8984375 C280.32344939 165.05702349 285.77451961 171.38326651 291 178 C291.51288574 178.64565918 292.02577148 179.29131836 292.55419922 179.95654297 C341.42106068 241.57250768 376.4948436 313.13001762 405.1875 500.25 C405.18656342 501.31368805 405.18562683 502.3773761 405.18466187 503.47329712 C405.00574119 597.41017753 378.91727578 688.7984882 306 805 C305.54254395 805.60908203 305.08508789 806.21816406 304.61376953 806.84570312 C288.28918455 828.51582475 270.39003557 848.67667182 251.25 867.875 C250.75422455 868.37345428 250.2584491 868.87190857 249.74765015 869.38546753 C244.01214278 875.14446405 238.1948713 880.73444419 232 886 C230.91668594 886.94905855 229.83460466 887.89952656 228.75390625 888.8515625 C220.51722208 896.03607339 211.99519825 902.76754384 203.24609375 909.31591797 C200.97981802 911.0151321 198.72429565 912.72798467 196.46875 914.44140625 C121.81709995 970.74359082 29.9144529 1004.01476357 -63 1012 C-64.54337036 1012.14139404 -64.54337036 1012.14139404 -66.11791992 1012.28564453 C-79.32383547 1013.34287429 -92.57276596 1013.24378535 -105.8125 1013.25 C-107.74993073 1013.25101212 -107.74993073 1013.25101212 -109.72650146 1013.25204468 C-129.99398616 1013.23525163 -149.89668254 1012.67457929 -170 1010 C-170.66056396 1009.91278687 -171.32112793 1009.82557373 -172.00170898 1009.73571777 C-268.71520276 996.86793485 -360.18904451 957.93110419 -435 895 C-435.53157715 894.55333984 -436.0631543 894.10667969 -436.61083984 893.64648438 C-449.4015603 882.87151439 -461.53201771 871.55527514 -473.375 859.75 C-473.84953613 859.2781427 -474.32407227 858.8062854 -474.81298828 858.32012939 C-480.43504007 852.72217628 -485.84853807 847.03227351 -491 841 C-492.02130523 839.84316612 -493.04470853 838.68818075 -494.0703125 837.53515625 C-502.17277109 828.35420892 -509.70774704 818.83402383 -517 809 C-517.53625 808.27941406 -518.0725 807.55882812 -518.625 806.81640625 C-576.03506716 729.39561857 -610.62956543 637.09263182 -619.1875 502.25 C-619.18656342 501.2614502 -619.18562683 500.27290039 -619.18466187 499.25439453 C-619.01805515 417.7205132 -599.34116781 339.89588552 -563 267 C-562.57895996 266.1538916 -562.15791992 265.3077832 -561.72412109 264.43603516 C-543.21271016 227.53995271 -518.84508873 192.55098698 -490.9453125 162.12890625 C-489.0693637 160.07591008 -487.24992085 157.98407269 -485.4375 155.875 C-482.4306373 152.41676068 -479.22817411 149.2069987 -475.9609375 145.99609375 C-474.08338879 144.08488381 -472.35190586 142.10965365 -470.625 140.0625 C-467.18876702 136.06140681 -463.35778449 132.63194199 -459.40234375 129.15234375 C-457.36804531 127.32974466 -455.45565472 125.46579375 -453.5625 123.5 C-449.88326062 119.75150435 -445.82371647 116.52633283 -441.734375 113.23828125 C-439.37330922 111.30558026 -437.11882708 109.3155385 -434.875 107.25 C-427.9553685 101.04322574 -420.44338472 95.5554311 -413 90 C-412.28134766 89.46181641 -411.56269531 88.92363281 -410.82226562 88.36914062 C-331.90591416 29.52234266 -237.77857852 -2.76165648 0 0 Z " fill="#233746" transform="translate(619,11)"/>
<path d="M0 0 C46.2 0 92.4 0 140 0 C140 46.2 140 92.4 140 140 C116.9 140 93.8 140 70 140 C70 162.77 70 185.54 70 209 C23.8 209 -22.4 209 -70 209 C-70 163.13 -70 117.26 -70 70 C-46.9 70 -23.8 70 0 70 C0 46.9 0 23.8 0 0 Z " fill="#009CD7" transform="translate(472,269)"/>
<path d="M0 0 C46.2 0 92.4 0 140 0 C140 46.2 140 92.4 140 140 C116.9 140 93.8 140 70 140 C70 162.77 70 185.54 70 209 C23.8 209 -22.4 209 -70 209 C-70 163.13 -70 117.26 -70 70 C-69.67 70 -69.34 70 -69 70 C-69 92.77 -69 115.54 -69 139 C-0.36 139 68.28 139 139 139 C139 116.23 139 93.46 139 70 C115.9 70 92.8 70 69 70 C69 47.23 69 24.46 69 1 C46.23 1 23.46 1 0 1 C0 0.67 0 0.34 0 0 Z " fill="#1D82DE" transform="translate(472,269)"/>
<path d="M0 0 C6.75356302 4.60054744 13.17406466 10.30581935 17 17.625 C16.75592909 20.17967098 16.38229909 21.27925226 14.46533203 23.01293945 C13.81935059 23.41730225 13.17336914 23.82166504 12.5078125 24.23828125 C11.80269531 24.68107422 11.09757813 25.12386719 10.37109375 25.58007812 C9.62988281 26.02802734 8.88867188 26.47597656 8.125 26.9375 C7.02478516 27.63842773 7.02478516 27.63842773 5.90234375 28.35351562 C1.80781945 30.87809937 1.80781945 30.87809937 0 31.625 C-3.56422632 30.43692456 -4.03224115 29.45531893 -6.125 26.4375 C-11.98820619 18.70593461 -19.44695414 14.31989523 -29 12.625 C-39.14167258 11.52382644 -47.94249704 13.51338026 -56.3125 19.4375 C-64.56564231 26.22528847 -70.02931702 34.21404649 -71.44921875 45.0546875 C-71.81351657 56.33535779 -69.44185394 66.9767612 -61.99609375 75.6875 C-52.92700805 84.49036988 -43.0905901 86.94266517 -30.703125 86.7734375 C-20.39289113 86.20726859 -13.33646463 81.54851998 -6.54296875 73.98046875 C-4.38449048 70.87324276 -4.38449048 70.87324276 -2 63.625 C-13.88 63.625 -25.76 63.625 -38 63.625 C-38 56.695 -38 49.765 -38 42.625 C-17.87 42.625 2.26 42.625 23 42.625 C23 62.54744437 20.37533935 78.80237229 6.33984375 93.375 C-1.08571968 100.51544163 -8.1661271 104.43078581 -18 107.625 C-19.68416016 108.17607422 -19.68416016 108.17607422 -21.40234375 108.73828125 C-36.19233266 112.38358796 -53.51641134 109.1277677 -66.4765625 101.3828125 C-79.00170285 92.65786953 -89.01607142 80.56473218 -93 65.625 C-96.10884505 47.50158481 -94.40614214 30.1765295 -84 14.625 C-63.12506453 -12.09801572 -28.73795734 -17.03135074 0 0 Z " fill="#FCFCFC" transform="translate(628,555.375)"/>
<path d="M0 0 C7.26 0 14.52 0 22 0 C22 38.28 22 76.56 22 116 C14.74 116 7.48 116 0 116 C-0.495 112.535 -0.495 112.535 -1 109 C-1.9590625 109.86625 -1.9590625 109.86625 -2.9375 110.75 C-10.96626536 116.64868475 -19.15783916 118.69931143 -29 118 C-40.08603546 116.02989129 -49.51103672 110.18837201 -56 101 C-63.09875781 89.36159771 -63.95217667 75.32496039 -61.1953125 62.15625 C-57.79909565 52.31893224 -51.17648258 44.03067272 -42.0078125 38.9609375 C-32.01607921 34.17890172 -21.59080838 33.1126356 -10.9375 36.75 C-6.75196543 38.37519987 -4.727583 40.0179336 -1 43 C-0.67 28.81 -0.34 14.62 0 0 Z " fill="#FCFCFC" transform="translate(803,547)"/>
<path d="M0 0 C7.26 0 14.52 0 22 0 C22 38.28 22 76.56 22 116 C14.74 116 7.48 116 0 116 C-0.495 112.535 -0.495 112.535 -1 109 C-1.46148437 109.39832031 -1.92296875 109.79664063 -2.3984375 110.20703125 C-9.64832015 116.09576992 -17.13301186 118.64282325 -26.50390625 118.27734375 C-37.21050893 117.08772123 -47.03296505 112.02310309 -53.9375 103.6875 C-61.81873444 92.63109197 -63.09048057 80.20456219 -62 67 C-59.88654264 55.70700798 -53.71773952 47.21161674 -44.50390625 40.5078125 C-35.17748803 34.89159186 -24.50260816 33.14094665 -13.91015625 35.765625 C-8.5590059 37.57567854 -5.5518405 39.3585276 -1 43 C-0.67 28.81 -0.34 14.62 0 0 Z " fill="#FDFDFD" transform="translate(507,547)"/>
<path d="M0 0 C4.58294975 3.03060154 8.82847793 6.43133909 13 10 C11.68759628 12.98313476 10.40088424 14.78029394 7.84765625 16.796875 C7.23599609 17.28027344 6.62433594 17.76367188 5.99414062 18.26171875 C5.35669922 18.75285156 4.71925781 19.24398437 4.0625 19.75 C3.42892578 20.25660156 2.79535156 20.76320313 2.14257812 21.28515625 C-2.61862997 25 -2.61862997 25 -6 25 C-6.53625 24.2575 -7.0725 23.515 -7.625 22.75 C-11.75498117 17.96791654 -16.26481477 16.33079508 -22.48828125 15.578125 C-30.14851606 15.14577394 -30.14851606 15.14577394 -36.8125 18.375 C-39.82008392 21.9841007 -40.4407464 24.21082122 -40.3203125 28.9765625 C-40.10274148 31.24180893 -40.10274148 31.24180893 -38.25 33.6875 C-31.711833 38.33965729 -24.07361651 40.64521661 -16.54150391 43.23266602 C-5.67179054 46.97456187 6.08507272 51.10569123 12.3125 61.5 C16.86071794 70.93334091 17.36519105 79.68377561 13.97265625 89.65625 C10.24454878 98.6396415 4.40624261 105.62915287 -4.4375 109.8125 C-6.27971602 110.57135321 -8.13335121 111.30340803 -10 112 C-10.65742188 112.2475 -11.31484375 112.495 -11.9921875 112.75 C-25.40511537 116.89476741 -41.5228555 113.53732887 -53.8125 107.375 C-59.85168651 103.79554295 -65.22544955 99.13471963 -70 94 C-70 93.34 -70 92.68 -70 92 C-68.50292969 90.61132812 -68.50292969 90.61132812 -66.421875 89.03125 C-65.67292969 88.46019531 -64.92398438 87.88914062 -64.15234375 87.30078125 C-63.35957031 86.70652344 -62.56679687 86.11226562 -61.75 85.5 C-60.97269531 84.90574219 -60.19539062 84.31148437 -59.39453125 83.69921875 C-56.02168654 81.14508164 -52.84570345 78.79681607 -49 77 C-48.6596875 77.51949219 -48.319375 78.03898438 -47.96875 78.57421875 C-43.70866277 84.70375915 -39.13284989 88.62238337 -32 91 C-24.02329497 91.55378994 -17.5805348 91.79078742 -11.1875 86.5 C-8.54575342 83.16305695 -8.59539277 79.28569656 -8.66796875 75.21484375 C-8.87263305 72.74446577 -8.87263305 72.74446577 -10.9375 70.1875 C-17.22749895 65.69464361 -23.94981819 63.68820471 -31.3125 61.625 C-41.78419511 58.66530922 -54.22235957 54.69405283 -60.2734375 44.94921875 C-64.82098151 36.12827346 -65.85037534 26.07687842 -62.94140625 16.5234375 C-58.04652685 6.04388539 -50.54367684 0.33940441 -40 -4 C-27.54381767 -7.6510067 -11.28940992 -6.25661573 0 0 Z " fill="#FBFCFC" transform="translate(259,551)"/>
<path d="M0 0 C9.0340693 6.18326069 15.04848565 15.17992824 17.1875 25.875 C17.1875 31.485 17.1875 37.095 17.1875 42.875 C-2.6125 42.875 -22.4125 42.875 -42.8125 42.875 C-38.66450385 51.77871091 -38.66450385 51.77871091 -30.8125 55.875 C-23.72935429 56.80786185 -16.70886736 56.91573146 -10.43359375 53.1640625 C-7.74789603 51.02844744 -5.8289701 48.64764639 -3.8125 45.875 C2.01902493 48.98791367 7.77450334 52.07127262 13.1875 55.875 C11.96318627 62.24699648 7.21074461 66.36292519 2.125 70.0625 C-8.76326185 76.86538387 -20.91620683 78.38886859 -33.4375 76.25 C-44.13570986 73.40890031 -53.48278851 66.70302912 -59.41015625 57.35546875 C-64.7757523 47.17178646 -66.70305705 36.2106379 -64.125 24.84375 C-60.34673919 13.6349096 -53.436928 4.03847491 -42.9296875 -1.69921875 C-28.82662975 -8.26184162 -13.61212398 -8.00385462 0 0 Z " fill="#FCFCFC" transform="translate(343.8125,588.125)"/>
<path d="M0 0 C23.1 0 46.2 0 70 0 C70 22.77 70 45.54 70 69 C46.9 69 23.8 69 0 69 C0 46.23 0 23.46 0 0 Z " fill="#98DFF2" transform="translate(472,409)"/>
<path d="M0 0 C22.77 0 45.54 0 69 0 C69 22.77 69 45.54 69 69 C46.23 69 23.46 69 0 69 C0 46.23 0 23.46 0 0 Z " fill="#00B1E2" transform="translate(542,339)"/>
<path d="M0 0 C22.77 0 45.54 0 69 0 C69 22.77 69 45.54 69 69 C46.23 69 23.46 69 0 69 C0 46.23 0 23.46 0 0 Z " fill="#99E0F3" transform="translate(403,339)"/>
<path d="M0 0 C22.77 0 45.54 0 69 0 C69 22.77 69 45.54 69 69 C46.23 69 23.46 69 0 69 C0 46.23 0 23.46 0 0 Z " fill="#00B2E2" transform="translate(472,270)"/>
<path d="M0 0 C5.72798416 4.33602242 9.21139827 10.61496277 10.55688477 17.63525391 C11.29315441 23.14523485 11.12656818 28.69846745 11.1015625 34.24609375 C11.10014755 35.43477554 11.0987326 36.62345734 11.09727478 37.84815979 C11.09169739 41.62796594 11.079149 45.40771189 11.06640625 49.1875 C11.06138833 51.7571606 11.05682593 54.32682213 11.05273438 56.89648438 C11.04173536 63.18101262 11.02448627 69.46549612 11.00390625 75.75 C3.74390625 75.75 -3.51609375 75.75 -10.99609375 75.75 C-11.05216797 70.33207031 -11.05216797 70.33207031 -11.109375 64.8046875 C-11.15560914 61.29974369 -11.20683609 57.79490587 -11.25854492 54.29003906 C-11.29176322 51.8574876 -11.31980474 49.42485963 -11.3425293 46.9921875 C-11.37613133 43.49185642 -11.42845209 39.99222445 -11.484375 36.4921875 C-11.49076492 35.40759247 -11.49715485 34.32299744 -11.5037384 33.20553589 C-11.61112357 27.66865712 -11.81608168 23.49979274 -14.99609375 18.75 C-19.15590333 14.98017257 -23.25755738 14.32538965 -28.7109375 14.4140625 C-32.64992664 14.99312757 -34.42931881 16.81654293 -36.99609375 19.75 C-40.04605812 26.2578073 -40.462668 31.90517884 -40.5078125 39.03125 C-40.5257637 40.08534058 -40.5437149 41.13943115 -40.56221008 42.22546387 C-40.61606131 45.56693615 -40.65012827 48.90826765 -40.68359375 52.25 C-40.71678901 54.52606115 -40.75128069 56.80210378 -40.78710938 59.078125 C-40.87419549 64.63543413 -40.93448114 70.1921175 -40.99609375 75.75 C-48.25609375 75.75 -55.51609375 75.75 -62.99609375 75.75 C-62.99609375 49.68 -62.99609375 23.61 -62.99609375 -3.25 C-55.73609375 -3.25 -48.47609375 -3.25 -40.99609375 -3.25 C-40.66609375 -0.94 -40.33609375 1.37 -39.99609375 3.75 C-39.58359375 3.35167969 -39.17109375 2.95335937 -38.74609375 2.54296875 C-27.49915112 -7.77509692 -12.8714705 -8.06041206 0 0 Z " fill="#FDFDFD" transform="translate(428.99609375,587.25)"/>
<path d="M0 0 C7.26 0 14.52 0 22 0 C22.33 2.97 22.66 5.94 23 9 C23.50789062 8.51789062 24.01578125 8.03578125 24.5390625 7.5390625 C25.22742188 6.90742187 25.91578125 6.27578125 26.625 5.625 C27.29789063 4.99851562 27.97078125 4.37203125 28.6640625 3.7265625 C33.71396724 -0.00597578 38.78052784 -0.2785429 44.875 -0.125 C45.90753906 -0.11146484 45.90753906 -0.11146484 46.9609375 -0.09765625 C48.64077838 -0.07432513 50.32043746 -0.03846326 52 0 C49.96192707 7.1178153 47.59655258 14.06707281 45 21 C44.13117187 21.02578125 43.26234375 21.0515625 42.3671875 21.078125 C33.37028244 21.33100237 33.37028244 21.33100237 26 26 C22.783155 31.92402825 22.53217022 37.08323675 22.48828125 43.74609375 C22.47033005 44.75720718 22.45237885 45.76832062 22.43388367 46.81007385 C22.37997958 50.0191743 22.34594851 53.22812769 22.3125 56.4375 C22.2793094 58.62176516 22.24481814 60.80601098 22.20898438 62.99023438 C22.12183127 68.32684177 22.06159133 73.66279229 22 79 C14.74 79 7.48 79 0 79 C0 52.93 0 26.86 0 0 Z " fill="#FEFEFE" transform="translate(656,584)"/>
<path d="M0 0 C7.59 0 15.18 0 23 0 C23 26.07 23 52.14 23 79 C15.74 79 8.48 79 1 79 C1 59.86 1 40.72 1 21 C-1.64 21 -4.28 21 -7 21 C-4.96070337 13.87791101 -2.58175794 6.94403861 0 0 Z " fill="#FCFCFC" transform="translate(713,584)"/>
<path d="M0 0 C4.38383371 3.37940072 7.87060634 7.89188258 8.82421875 13.40625 C9.49972991 20.537876 9.23749175 26.54747019 4.82421875 32.40625 C-0.16047535 37.49086002 -3.53333046 39.58726308 -10.73828125 39.84375 C-16.71072583 39.77643761 -20.62693089 39.1066889 -25.33203125 35.3671875 C-29.94412112 30.46195632 -32.40660796 25.01836378 -32.73828125 18.28125 C-32.33122692 11.447022 -29.78876681 6.59653608 -24.73828125 2.03125 C-17.33674329 -3.71509171 -8.32582711 -4.72866449 0 0 Z " fill="#253948" transform="translate(794.17578125,604.59375)"/>
<path d="M0 0 C6.0098656 3.28841703 9.67630417 6.45239431 12.3125 12.8125 C13.30279283 19.79060995 13.57450597 26.82908012 9.8125 33 C5.66363159 38.10185674 1.70398314 40.37105539 -4.80859375 41.21875 C-11.12077585 41.51064281 -15.96065847 41.14584999 -21.10546875 37.30078125 C-26.24570319 32.4651533 -28.32308236 26.93607977 -29.125 20.0625 C-28.92288266 13.85630871 -26.12469073 8.15960002 -21.6796875 3.87890625 C-14.79286605 -1.41962612 -8.34925049 -2.68874168 0 0 Z " fill="#263948" transform="translate(494.6875,603.1875)"/>
<path d="M0 0 C3.18585707 1.63193903 5.21511946 3.96538475 7.375 6.8125 C8.83795646 11.93284763 8.68592776 15.65354922 6.3125 20.3125 C2.73770791 24.4669881 0.56223989 25.82641779 -4.9375 26.4375 C-9.2150513 26.25994127 -11.73416458 24.81013746 -15 22 C-18.16169386 18.31135716 -18.52014779 14.92386551 -18.35546875 10.21875 C-17.79697545 6.73276986 -16.29872629 4.61799384 -14 2 C-9.57651301 -0.72938559 -5.04793365 -0.78824201 0 0 Z " fill="#F9FAFA" transform="translate(730,546)"/>
<path d="M0 0 C2.85516529 2.22068411 4.27508908 3.94185473 5.8125 7.1875 C5.8125 7.8475 5.8125 8.5075 5.8125 9.1875 C-6.7275 9.1875 -19.2675 9.1875 -32.1875 9.1875 C-28.82056769 3.57594614 -25.43088715 0.01710301 -19.75 -3.1875 C-12.37526007 -4.98621706 -6.50547113 -3.69918947 0 0 Z " fill="#2E414F" transform="translate(333.1875,604.8125)"/>
</svg>
